<svg width="57" height="81" viewBox="0 0 57 81" fill="none" xmlns="http://www.w3.org/2000/svg">
<path d="M0.800293 46.2001L12.0003 46.2001L12.0003 57.5334L0.800292 57.5334L0.800293 46.2001ZM45.6003 46.2001L56.8003 46.2001L56.8003 57.5334L45.6003 57.5334L45.6003 46.2001ZM12.0003 57.5334L23.2003 57.5334L23.2003 68.8667L12.0003 68.8667L12.0003 57.5334ZM45.6003 57.5334L45.6003 68.8667L34.4003 68.8667L34.4003 57.5334L45.6003 57.5334ZM34.4003 68.8667L34.4003 80.2001L23.2003 80.2001L23.2003 68.8667L34.4003 68.8667Z" fill="#6DF2CC"/>
<path opacity="0.6" d="M0.800293 -2.44784e-06L12.0003 -1.95827e-06L12.0003 11.3333L0.800292 11.3333L0.800293 -2.44784e-06ZM45.6003 -4.89568e-07L56.8003 0L56.8003 11.3333L45.6003 11.3333L45.6003 -4.89568e-07ZM12.0003 11.3333L23.2003 11.3333L23.2003 22.6667L12.0003 22.6667L12.0003 11.3333ZM45.6003 11.3333L45.6003 22.6667L34.4003 22.6667L34.4003 11.3333L45.6003 11.3333ZM34.4003 22.6667L34.4003 34L23.2003 34L23.2003 22.6667L34.4003 22.6667Z" fill="#6DF2CC"/>
</svg>
