<svg xmlns="http://www.w3.org/2000/svg" width="71" height="6" viewBox="0 0 71 6" fill="none">
  <g clip-path="url(#clip0_181_2649)">
    <path d="M29.9254 5.84623C29.5845 5.84623 29.3091 5.62929 29.3091 5.36019C29.3091 4.16842 28.0798 3.19634 26.5682 3.19634C25.0567 3.19634 23.8274 4.16568 23.8274 5.36019C23.8274 5.62929 23.552 5.84623 23.2111 5.84623C22.8702 5.84623 22.5947 5.62929 22.5947 5.36019C22.5947 3.63021 24.3783 2.22426 26.5682 2.22426C28.7582 2.22426 30.5418 3.63021 30.5418 5.36019C30.5418 5.62929 30.2663 5.84623 29.9254 5.84623Z" fill="#9D0C0C"/>
    <path d="M39.4113 5.84623C39.2529 5.84623 39.091 5.79954 38.9705 5.70343L35.572 3.05355C35.3276 2.86408 35.3276 2.55378 35.572 2.3643C35.8165 2.17483 36.2125 2.17483 36.4569 2.3643L39.4147 4.67094L42.3725 2.3643C42.6169 2.17483 43.0129 2.17483 43.2574 2.3643C43.5019 2.55378 43.5019 2.86408 43.2574 3.05355L39.8589 5.70343C39.7349 5.79954 39.5765 5.84623 39.4181 5.84623H39.4113Z" fill="#9D0C0C"/>
    <path d="M33.0139 5.84623C32.6661 5.84623 32.3838 5.62929 32.3838 5.36018V2.63341C32.3838 2.3643 32.6661 2.14737 33.0139 2.14737C33.3617 2.14737 33.644 2.3643 33.644 2.63341V5.36018C33.644 5.62929 33.3617 5.84623 33.0139 5.84623Z" fill="#9D0C0C"/>
    <path d="M33.0622 1.42242C33.5202 1.42242 33.8921 1.12586 33.8921 0.760639C33.8921 0.395422 33.5202 0.0988541 33.0622 0.0988541C32.6043 0.0988541 32.2324 0.395422 32.2324 0.760639C32.2324 1.12586 32.6043 1.42242 33.0622 1.42242Z" fill="#9D0C0C"/>
    <path d="M44.2937 5.83798C44.7516 5.83798 45.1235 5.54141 45.1235 5.1762C45.1235 4.81098 44.7516 4.51441 44.2937 4.51441C43.8357 4.51441 43.4639 4.81098 43.4639 5.1762C43.4639 5.54141 43.8357 5.83798 44.2937 5.83798Z" fill="#9D0C0C"/>
    <path d="M18.6973 6C18.3668 6 18.0362 5.94782 17.7195 5.84622C17.0756 5.63753 16.5728 5.23936 16.3008 4.7286C16.0288 4.21785 16.0254 3.65217 16.2871 3.13593C16.5487 2.62242 17.0446 2.21876 17.6816 2.00183C18.322 1.7849 19.0279 1.78215 19.6718 1.99085C20.3157 2.19954 20.8184 2.59771 21.0904 3.10847C21.2178 3.34737 21.0766 3.62471 20.7771 3.72631L17.7298 4.75606C17.8537 4.84668 17.9984 4.92082 18.1602 4.973C18.5114 5.08833 18.9005 5.08558 19.2483 4.9675C19.5719 4.85766 19.8336 4.65721 19.9817 4.40458C20.1194 4.16842 20.4706 4.06956 20.7633 4.1794C21.056 4.28924 21.1834 4.56934 21.0456 4.80549C20.7736 5.26956 20.295 5.63478 19.7062 5.83524C19.3791 5.94508 19.0382 6 18.6939 6H18.6973ZM18.143 2.86956C17.7918 2.98764 17.5197 3.20732 17.3786 3.49016C17.3131 3.61922 17.2787 3.75377 17.2753 3.88833L19.6649 3.08101C19.5409 2.99039 19.3963 2.91899 19.2345 2.86407C19.0382 2.79817 18.6181 2.7103 18.1464 2.86956H18.143Z" fill="#9D0C0C"/>
    <path d="M14.2103 2.21602C13.866 2.21602 13.5871 2.43295 13.5871 2.70206C13.5871 3.89382 12.3441 4.8659 10.8153 4.8659C9.28647 4.8659 8.04345 3.89657 8.04345 2.70206C8.04345 2.43295 7.76455 2.21602 7.42022 2.21602C7.0759 2.21602 6.79699 2.43295 6.79699 2.70206C6.79699 3.89382 5.55398 4.8659 4.02517 4.8659C2.49636 4.8659 1.24646 3.89382 1.24646 2.70206C1.24646 2.43295 0.967556 2.21602 0.62323 2.21602C0.278904 2.21602 0 2.43295 0 2.70206C0 4.43204 1.80427 5.83799 4.02173 5.83799C5.45068 5.83799 6.70402 5.25309 7.41678 4.37712C8.12953 5.25309 9.38632 5.83799 10.8118 5.83799C13.0293 5.83799 14.8336 4.43204 14.8336 2.70206C14.8336 2.43295 14.5547 2.21602 14.2103 2.21602Z" fill="#9D0C0C"/>
    <path d="M48.4951 0.576679C48.4951 1.03251 48.106 1.39499 47.5448 1.45265L47.5448 1.22199C47.9235 1.16158 48.1646 0.925421 48.1887 0.623361L47.8512 0.623361L47.8512 0.10986L48.4951 0.10986L48.4951 0.576679Z" fill="#9D0C0C"/>
    <path d="M47.7135 1.68636e-05L48.6328 1.69277e-05L48.6328 0.576676C48.6328 1.09018 48.1921 1.49658 47.562 1.56249L47.407 1.57896L47.407 1.13137L47.5172 1.11489C47.7754 1.0737 47.9614 0.930909 48.0268 0.733198L47.71 0.733198L47.71 1.68634e-05L47.7135 1.68636e-05ZM48.3574 0.219697L47.9889 0.219697L47.9889 0.513518L48.3367 0.513518L48.3264 0.631596C48.2988 0.958369 48.0509 1.21649 47.6825 1.30986L47.6825 1.32084C48.0853 1.22473 48.3574 0.936401 48.3574 0.579422L48.3574 0.222443L48.3574 0.219697Z" fill="#9D0C0C"/>
    <path d="M53.3463 2.81464H52.9985C52.9744 2.41373 52.2789 2.10343 51.3767 2.10343C50.4746 2.10343 49.8548 2.41373 49.8548 2.81464C49.8548 3.21556 50.1371 3.51213 51.5558 3.64393C52.9744 3.77574 53.4633 4.13821 53.4633 4.65995C53.4633 5.33272 52.5715 5.72814 51.4387 5.72814C50.1647 5.72814 49.4864 5.2476 49.4141 4.71213H49.7687C49.8169 5.06087 50.3059 5.47551 51.4628 5.47551C52.4063 5.47551 53.1156 5.14599 53.1156 4.67094C53.1156 4.24805 52.7368 4.01739 51.3561 3.88009C49.9581 3.74279 49.5036 3.38032 49.5036 2.83936C49.5036 2.24073 50.2955 1.8508 51.3974 1.8508C52.4992 1.8508 53.3153 2.27917 53.3394 2.8119L53.3463 2.81464Z" fill="#9D0C0C"/>
    <path d="M51.4423 5.83799C50.0546 5.83799 49.3591 5.2778 49.2799 4.72586L49.2627 4.60503H49.8963L49.91 4.70114C49.9582 5.03341 50.4575 5.36842 51.4664 5.36842C52.3444 5.36842 52.9814 5.07734 52.9814 4.67368C52.9814 4.34691 52.7128 4.12998 51.3424 3.99268C49.9789 3.85812 49.3694 3.50389 49.3694 2.8421C49.3694 2.18032 50.2027 1.74371 51.401 1.74371C52.5992 1.74371 53.4531 2.20229 53.4807 2.8119L53.4876 2.92448H52.8678L52.8609 2.82014C52.8402 2.47963 52.1895 2.21327 51.3769 2.21327C50.5642 2.21327 49.9927 2.47689 49.9927 2.81464C49.9927 3.10572 50.1132 3.39954 51.5731 3.53684C52.9573 3.6659 53.6046 4.02288 53.6046 4.65995C53.6046 5.36293 52.7369 5.83799 51.4423 5.83799ZM49.5829 4.82197C49.7206 5.2119 50.2647 5.6183 51.4423 5.6183C52.3823 5.6183 53.3292 5.32174 53.3292 4.65995C53.3292 4.3167 53.126 3.90206 51.5421 3.75377C50.2302 3.63295 49.7172 3.36934 49.7172 2.81464C49.7172 2.34508 50.43 1.99359 51.3769 1.99359C52.3238 1.99359 52.9883 2.2929 53.1157 2.7048H53.188C53.0606 2.27368 52.3272 1.96339 51.4044 1.96339C50.3714 1.96339 49.6483 2.32586 49.6483 2.8421C49.6483 3.21831 49.8549 3.62471 51.3769 3.77574C52.7473 3.91304 53.2569 4.15744 53.2569 4.67643C53.2569 5.19542 52.5028 5.59085 51.4664 5.59085C50.3749 5.59085 49.7895 5.22014 49.6587 4.82746H49.5829V4.82197Z" fill="#9D0C0C"/>
    <path d="M59.5512 5.72815C58.2221 5.72815 57.2373 4.89062 57.2373 3.78948C57.2373 2.68834 58.2118 1.85081 59.5271 1.85081C60.5256 1.85081 61.3382 2.36431 61.6102 3.11671H61.2556C61.0077 2.51808 60.3638 2.10893 59.5271 2.10893C58.377 2.10893 57.5851 2.83387 57.5851 3.78948C57.5851 4.74509 58.377 5.47003 59.5271 5.47003C60.3707 5.47003 61.0318 5.04715 61.2625 4.44852H61.6171C61.3623 5.20641 60.5497 5.72815 59.5512 5.72815Z" fill="#9D0C0C"/>
    <path d="M59.5512 5.83799C58.1532 5.83799 57.0996 4.95653 57.0996 3.78948C57.0996 2.62243 58.1429 1.74097 59.5271 1.74097C60.5773 1.74097 61.445 2.2682 61.7411 3.0865L61.7928 3.22655H61.1558L61.1248 3.15241C60.8872 2.57575 60.2743 2.21877 59.5271 2.21877C58.4804 2.21877 57.7228 2.88055 57.7228 3.78948C57.7228 4.6984 58.4804 5.36019 59.5271 5.36019C60.2812 5.36019 60.9113 4.98948 61.1317 4.41557L61.1627 4.33868H61.7997L61.7515 4.47598C61.476 5.28879 60.5945 5.83525 59.5512 5.83525V5.83799ZM59.5271 1.96339C58.3013 1.96339 57.3751 2.74875 57.3751 3.79223C57.3751 4.8357 58.3116 5.62106 59.5512 5.62106C60.4189 5.62106 61.1386 5.20916 61.4312 4.5611H61.3624C61.08 5.18444 60.3707 5.58261 59.5271 5.58261C58.322 5.58261 57.4474 4.83021 57.4474 3.79223C57.4474 2.75424 58.322 2.00184 59.5271 2.00184C60.3638 2.00184 61.0525 2.38628 61.352 3.00962H61.4209C61.1145 2.3698 60.3914 1.96339 59.5305 1.96339H59.5271Z" fill="#9D0C0C"/>
    <path d="M62.9644 4.12723V1.94691H63.3121V4.0833C63.3121 4.98673 63.9078 5.47277 64.8478 5.47277C65.8739 5.47277 66.6728 4.64348 66.6728 3.87186V1.94691H67.0205V5.63753H66.6728V4.72037C66.5729 5.04989 65.9221 5.72815 64.7721 5.72815C63.715 5.72815 62.9609 5.09657 62.9609 4.12723H62.9644Z" fill="#9D0C0C"/>
    <path d="M64.7751 5.83799C63.6284 5.83799 62.8262 5.13501 62.8262 4.12723V1.83433H63.4494V4.08055C63.4494 4.89337 63.959 5.36019 64.8474 5.36019C65.8149 5.36019 66.5346 4.57208 66.5346 3.86911V1.83433H67.1578V5.74462H66.5346V5.15698C66.2074 5.49474 65.6083 5.83524 64.7716 5.83524L64.7751 5.83799ZM63.1016 2.05401V4.12449C63.1016 5.01694 63.7731 5.61556 64.7751 5.61556C65.777 5.61556 66.4485 5.00321 66.5414 4.69016V4.68467C66.2075 5.18444 65.5911 5.57712 64.8474 5.57712C63.7972 5.57712 63.1705 5.01694 63.1705 4.07781V2.05126H63.0982L63.1016 2.05401ZM66.8135 5.52495H66.8858V2.05401H66.8135V5.52495Z" fill="#9D0C0C"/>
    <path d="M70.8623 2.20229H69.7398V5.63478H69.392V2.20229H68.2695V1.94417H69.392V0.796341H69.7398V1.94417H70.8623V2.20229Z" fill="#9D0C0C"/>
    <path d="M69.8776 5.74462H69.2543V2.31213H68.1318V1.83433H69.2543V0.686501H69.8776V1.83433H71.0001V2.31213H69.8776V5.74462ZM69.5298 5.52494H69.6021V2.09245H70.7246V2.05401H69.6021V0.90618H69.5298V2.05401H68.4073V2.09245H69.5298V5.52494Z" fill="#9D0C0C"/>
  </g>
  <defs>
    <clipPath id="clip0_181_2649">
      <rect width="71" height="6" fill="white"/>
    </clipPath>
  </defs>
</svg>