<svg width="2048" height="2732" viewBox="0 0 2048 2732" fill="none" xmlns="http://www.w3.org/2000/svg">
<path d="M666.024 2094.88C676.978 2094.88 685.829 2085.94 685.829 2074.87C685.829 2063.8 676.978 2054.86 666.024 2054.86C655.071 2054.86 646.22 2063.8 646.22 2074.87C646.22 2085.94 655.071 2094.88 666.024 2094.88Z" fill="#F2F2F2"/>
<path d="M834.64 2278.01C841.223 2278.01 846.589 2272.59 846.589 2265.94C846.589 2259.28 841.223 2253.86 834.64 2253.86C828.056 2253.86 822.69 2259.28 822.69 2265.94C822.69 2272.59 828.056 2278.01 834.64 2278.01Z" fill="#F2F2F2"/>
<path d="M953.522 2213.56C962.816 2213.56 970.34 2205.96 970.34 2196.57C970.34 2187.17 962.816 2179.57 953.522 2179.57C944.229 2179.57 936.705 2187.17 936.705 2196.57C936.705 2205.96 944.229 2213.56 953.522 2213.56Z" fill="#F2F2F2"/>
<path d="M754.647 1368.41C766.928 1368.41 776.831 1358.34 776.831 1345.99C776.831 1333.64 766.873 1323.57 754.647 1323.57C742.421 1323.57 732.464 1333.64 732.464 1345.99C732.464 1358.34 742.421 1368.41 754.647 1368.41Z" fill="#F2F2F2"/>
<path d="M812.954 2002.03C823.299 2002.03 831.652 1993.59 831.652 1983.14C831.652 1972.69 823.299 1964.24 812.954 1964.24C802.609 1964.24 794.256 1972.69 794.256 1983.14C794.256 1993.59 802.609 2002.03 812.954 2002.03Z" fill="#F2F2F2"/>
<path d="M1859.06 1931.77C1864.75 1931.77 1869.4 1927.07 1869.4 1921.31C1869.4 1915.56 1864.75 1910.86 1859.06 1910.86C1853.36 1910.86 1848.71 1915.56 1848.71 1921.31C1848.71 1927.07 1853.36 1931.77 1859.06 1931.77Z" fill="#F2F2F2"/>
<path d="M783.745 1191.43C788.97 1191.43 793.205 1187.15 793.205 1181.87C793.205 1176.59 788.97 1172.31 783.745 1172.31C778.521 1172.31 774.286 1176.59 774.286 1181.87C774.286 1187.15 778.521 1191.43 783.745 1191.43Z" fill="#F2F2F2"/>
<path d="M232.537 1939.76C232.537 1927.46 222.69 1917.51 210.519 1917.51C198.349 1917.51 188.502 1927.46 188.502 1939.76C188.502 1952.06 198.349 1962.01 210.519 1962.01C222.69 1962.01 232.537 1952.06 232.537 1939.76Z" fill="#F2F2F2"/>
<path d="M734.123 2220.27C734.123 2207.91 724.221 2197.91 711.995 2197.91C699.769 2197.91 689.867 2207.91 689.867 2220.27C689.867 2232.62 699.769 2242.63 711.995 2242.63C724.221 2242.63 734.123 2232.62 734.123 2220.27Z" fill="#F2F2F2"/>
<path d="M1934.18 152.191C1934.18 147.439 1930.36 143.582 1925.66 143.582C1920.96 143.582 1917.14 147.439 1917.14 152.191C1917.14 156.942 1920.96 160.799 1925.66 160.799C1930.36 160.799 1934.18 156.942 1934.18 152.191Z" fill="#F2F2F2"/>
<path d="M1944.08 2540.85C1956.92 2540.85 1967.32 2530.34 1967.32 2517.38C1967.32 2504.41 1956.92 2493.9 1944.08 2493.9C1931.25 2493.9 1920.85 2504.41 1920.85 2517.38C1920.85 2530.34 1931.25 2540.85 1944.08 2540.85Z" fill="#F2F2F2"/>
<path d="M1144.27 2082.19C1144.27 2069.78 1134.31 2059.67 1121.97 2059.67C1109.64 2059.67 1099.68 2069.73 1099.68 2082.19C1099.68 2094.66 1109.64 2104.72 1121.97 2104.72C1134.31 2104.72 1144.27 2094.66 1144.27 2082.19Z" fill="#F2F2F2"/>
<path d="M28.5167 1957.26C28.5167 1946.8 20.1081 1938.31 9.76326 1938.31C-0.581576 1938.31 -8.99023 1946.8 -8.99023 1957.26C-8.99023 1967.71 -0.581576 1976.21 9.76326 1976.21C20.1081 1976.21 28.5167 1967.71 28.5167 1957.26Z" fill="#F2F2F2"/>
<path d="M1532.39 105.793C1542.17 105.793 1550.09 97.7848 1550.09 87.9055C1550.09 78.0262 1542.17 70.0175 1532.39 70.0175C1522.61 70.0175 1514.69 78.0262 1514.69 87.9055C1514.69 97.7848 1522.61 105.793 1532.39 105.793Z" fill="#F2F2F2"/>
<path d="M407.514 535.665C415.646 535.665 422.285 529.012 422.285 520.739C422.285 512.466 415.701 505.814 407.514 505.814C399.327 505.814 392.744 512.466 392.744 520.739C392.744 529.012 399.327 535.665 407.514 535.665Z" fill="#F2F2F2"/>
<path d="M1294.4 1311.44C1302.01 1311.44 1308.18 1305.21 1308.18 1297.53C1308.18 1289.84 1302.01 1283.61 1294.4 1283.61C1286.8 1283.61 1280.63 1289.84 1280.63 1297.53C1280.63 1305.21 1286.8 1311.44 1294.4 1311.44Z" fill="#F2F2F2"/>
<path d="M1345.13 233.022C1345.13 220.165 1334.79 209.712 1322.06 209.712C1309.34 209.712 1299 220.165 1299 233.022C1299 245.879 1309.34 256.332 1322.06 256.332C1334.79 256.332 1345.13 245.879 1345.13 233.022Z" fill="#F2F2F2"/>
<path d="M565.121 2019.53C576.516 2019.53 585.7 2010.19 585.7 1998.74C585.7 1987.28 576.461 1977.94 565.121 1977.94C553.78 1977.94 544.542 1987.28 544.542 1998.74C544.542 2010.19 553.78 2019.53 565.121 2019.53Z" fill="#F2F2F2"/>
<path d="M1354.65 513.305C1343.64 513.305 1334.73 522.304 1334.73 533.428C1334.73 544.553 1343.64 553.552 1354.65 553.552C1365.66 553.552 1374.56 544.553 1374.56 533.428C1374.56 522.304 1365.66 513.305 1354.65 513.305Z" fill="#F2F2F2"/>
<path d="M755.975 2606.82C762.89 2606.82 768.532 2601.17 768.532 2594.13C768.532 2587.08 762.945 2581.44 755.975 2581.44C749.004 2581.44 743.417 2587.08 743.417 2594.13C743.417 2601.17 749.004 2606.82 755.975 2606.82Z" fill="#F2F2F2"/>
<path d="M1619.02 1209.48C1619.02 1199.92 1611.33 1192.21 1601.93 1192.21C1592.52 1192.21 1584.83 1199.98 1584.83 1209.48C1584.83 1218.99 1592.52 1226.76 1601.93 1226.76C1611.33 1226.76 1619.02 1218.99 1619.02 1209.48Z" fill="#F2F2F2"/>
<path d="M1394.37 1088.68C1399.68 1088.68 1403.99 1084.33 1403.99 1078.96C1403.99 1073.58 1399.68 1069.23 1394.37 1069.23C1389.05 1069.23 1384.74 1073.58 1384.74 1078.96C1384.74 1084.33 1389.05 1088.68 1394.37 1088.68Z" fill="#F2F2F2"/>
<path d="M1708.7 240.624C1716.67 240.624 1723.13 234.092 1723.13 226.034C1723.13 217.977 1716.67 211.445 1708.7 211.445C1700.72 211.445 1694.26 217.977 1694.26 226.034C1694.26 234.092 1700.72 240.624 1708.7 240.624Z" fill="#F2F2F2"/>
<path d="M1536.43 344.151C1536.43 338.952 1532.28 334.76 1527.14 334.76C1521.99 334.76 1517.84 338.952 1517.84 344.151C1517.84 349.35 1521.99 353.542 1527.14 353.542C1532.28 353.542 1536.43 349.35 1536.43 344.151Z" fill="#F2F2F2"/>
<path d="M679.135 447.342C679.135 452.373 683.174 456.454 688.152 456.454C693.131 456.454 697.17 452.373 697.17 447.342C697.17 442.311 693.131 438.231 688.152 438.231C683.174 438.231 679.135 442.311 679.135 447.342Z" fill="#F2F2F2"/>
<path d="M626.526 1755.96C631.414 1755.96 635.377 1751.96 635.377 1747.02C635.377 1742.08 631.414 1738.07 626.526 1738.07C621.638 1738.07 617.675 1742.08 617.675 1747.02C617.675 1751.96 621.638 1755.96 626.526 1755.96Z" fill="#F2F2F2"/>
<path d="M650.092 1646.34C655.622 1646.34 660.105 1641.81 660.105 1636.22C660.105 1630.64 655.622 1626.11 650.092 1626.11C644.562 1626.11 640.079 1630.64 640.079 1636.22C640.079 1641.81 644.562 1646.34 650.092 1646.34Z" fill="#F2F2F2"/>
<path d="M811.46 1689.27C811.46 1694.14 815.388 1698.1 820.201 1698.1C825.014 1698.1 828.942 1694.14 828.942 1689.27C828.942 1684.41 825.014 1680.44 820.201 1680.44C815.388 1680.44 811.46 1684.41 811.46 1689.27Z" fill="#F2F2F2"/>
<path d="M295.712 1841.99C301.853 1841.99 306.831 1836.96 306.831 1830.76C306.831 1824.55 301.853 1819.52 295.712 1819.52C289.572 1819.52 284.593 1824.55 284.593 1830.76C284.593 1836.96 289.572 1841.99 295.712 1841.99Z" fill="#F2F2F2"/>
<path d="M290.899 993.709C301.963 993.709 310.925 984.653 310.925 973.473C310.925 962.293 301.963 953.237 290.899 953.237C279.835 953.237 270.874 962.293 270.874 973.473C270.874 984.653 279.835 993.709 290.899 993.709Z" fill="#F2F2F2"/>
<path d="M975.042 702.526C987.046 702.526 996.782 692.688 996.782 680.557C996.782 668.427 987.046 658.589 975.042 658.589C963.037 658.589 953.301 668.427 953.301 680.557C953.301 692.688 963.037 702.526 975.042 702.526Z" fill="#F2F2F2"/>
<path d="M46.1084 777.097C53.0234 777.097 58.6661 771.395 58.6661 764.407C58.6661 757.42 53.0234 751.718 46.1084 751.718C39.1934 751.718 33.5508 757.42 33.5508 764.407C33.5508 771.395 39.1934 777.097 46.1084 777.097Z" fill="#F2F2F2"/>
<path d="M1511.15 1730.53C1511.15 1725.44 1507.05 1721.3 1502.02 1721.3C1496.99 1721.3 1492.89 1725.44 1492.89 1730.53C1492.89 1735.61 1496.99 1739.75 1502.02 1739.75C1507.05 1739.75 1511.15 1735.61 1511.15 1730.53Z" fill="#F2F2F2"/>
<path d="M-16.5693 2124.29C-5.38711 2124.29 3.67781 2115.13 3.67781 2103.83C3.67781 2092.53 -5.38711 2083.37 -16.5693 2083.37C-27.7515 2083.37 -36.8164 2092.53 -36.8164 2103.83C-36.8164 2115.13 -27.7515 2124.29 -16.5693 2124.29Z" fill="#F2F2F2"/>
<path d="M1982.14 10.484C1976.72 10.484 1972.29 14.956 1972.29 20.4342C1972.29 25.9124 1976.72 30.3844 1982.14 30.3844C1987.56 30.3844 1991.99 25.9124 1991.99 20.4342C1991.99 14.956 1987.56 10.484 1982.14 10.484Z" fill="#F2F2F2"/>
<path d="M1500.91 2356.5C1500.91 2345.65 1492.23 2336.87 1481.5 2336.87C1470.76 2336.87 1462.08 2345.65 1462.08 2356.5C1462.08 2367.34 1470.76 2376.12 1481.5 2376.12C1492.23 2376.12 1500.91 2367.34 1500.91 2356.5Z" fill="#F2F2F2"/>
<path d="M1948.95 1350.63C1948.95 1360.13 1956.53 1367.79 1965.93 1367.79C1975.34 1367.79 1982.92 1360.13 1982.92 1350.63C1982.92 1341.13 1975.28 1333.47 1965.93 1333.47C1956.58 1333.47 1948.95 1341.13 1948.95 1350.63Z" fill="#F2F2F2"/>
<path d="M779.541 2134.18C785.315 2134.18 789.996 2129.45 789.996 2123.62C789.996 2117.78 785.315 2113.05 779.541 2113.05C773.767 2113.05 769.085 2117.78 769.085 2123.62C769.085 2129.45 773.767 2134.18 779.541 2134.18Z" fill="#F2F2F2"/>
<path d="M587.304 1341.24C582.104 1341.24 577.899 1345.49 577.899 1350.74C577.899 1356 582.104 1360.25 587.304 1360.25C592.504 1360.25 596.708 1356 596.708 1350.74C596.708 1345.49 592.504 1341.24 587.304 1341.24Z" fill="#F2F2F2"/>
<path d="M1601.87 895.325C1614.21 895.325 1624.22 885.207 1624.22 872.742C1624.22 860.276 1614.21 850.158 1601.87 850.158C1589.54 850.158 1579.52 860.276 1579.52 872.742C1579.52 885.207 1589.54 895.325 1601.87 895.325Z" fill="#F2F2F2"/>
<path d="M677.531 2387.85C688.316 2387.85 697.059 2379.02 697.059 2368.12C697.059 2357.22 688.316 2348.39 677.531 2348.39C666.746 2348.39 658.003 2357.22 658.003 2368.12C658.003 2379.02 666.746 2387.85 677.531 2387.85Z" fill="#F2F2F2"/>
<path d="M365.471 1992.42C376.561 1992.42 385.552 1983.33 385.552 1972.13C385.552 1960.92 376.561 1951.84 365.471 1951.84C354.38 1951.84 345.39 1960.92 345.39 1972.13C345.39 1983.33 354.38 1992.42 365.471 1992.42Z" fill="#F2F2F2"/>
<path d="M1293.8 2472.6C1300.88 2472.6 1306.63 2466.79 1306.63 2459.63C1306.63 2452.47 1300.88 2446.66 1293.8 2446.66C1286.71 2446.66 1280.96 2452.47 1280.96 2459.63C1280.96 2466.79 1286.71 2472.6 1293.8 2472.6Z" fill="#F2F2F2"/>
<path d="M935.156 1592.73C924.424 1592.73 915.739 1601.51 915.739 1612.35C915.739 1623.2 924.424 1631.98 935.156 1631.98C945.888 1631.98 954.573 1623.2 954.573 1612.35C954.573 1601.51 945.888 1592.73 935.156 1592.73Z" fill="#F2F2F2"/>
<path d="M524.571 2339.33C524.571 2329.05 516.273 2320.66 506.094 2320.66C495.915 2320.66 487.617 2329.05 487.617 2339.33C487.617 2349.62 495.915 2358 506.094 2358C516.273 2358 524.571 2349.62 524.571 2339.33Z" fill="#F2F2F2"/>
<path d="M519.426 45.7569C511.792 45.7569 505.596 52.0177 505.596 59.7319C505.596 67.4461 511.792 73.7069 519.426 73.7069C527.06 73.7069 533.256 67.4461 533.256 59.7319C533.256 52.0177 527.06 45.7569 519.426 45.7569Z" fill="#F2F2F2"/>
<path d="M1901.71 314.971C1909.53 314.971 1915.87 308.564 1915.87 300.661C1915.87 292.757 1909.53 286.351 1901.71 286.351C1893.89 286.351 1887.54 292.757 1887.54 300.661C1887.54 308.564 1893.89 314.971 1901.71 314.971Z" fill="#F2F2F2"/>
<path d="M1771.04 2597.14C1765.12 2597.14 1760.31 2602.01 1760.31 2607.99C1760.31 2613.97 1765.12 2618.83 1771.04 2618.83C1776.96 2618.83 1781.77 2613.97 1781.77 2607.99C1781.77 2602.01 1776.96 2597.14 1771.04 2597.14Z" fill="#F2F2F2"/>
<path d="M541.997 752.501C541.997 746.463 537.129 741.544 531.154 741.544C525.18 741.544 520.312 746.463 520.312 752.501C520.312 758.538 525.18 763.457 531.154 763.457C537.129 763.457 541.997 758.538 541.997 752.501Z" fill="#F2F2F2"/>
<path d="M1154.39 1588.09C1148.8 1588.09 1144.27 1592.68 1144.27 1598.32C1144.27 1603.97 1148.8 1608.55 1154.39 1608.55C1159.98 1608.55 1164.51 1603.97 1164.51 1598.32C1164.51 1592.68 1159.98 1588.09 1154.39 1588.09Z" fill="#F2F2F2"/>
<path d="M352.581 2225.63C359.975 2225.63 365.969 2219.58 365.969 2212.11C365.969 2204.63 359.975 2198.58 352.581 2198.58C345.188 2198.58 339.194 2204.63 339.194 2212.11C339.194 2219.58 345.188 2225.63 352.581 2225.63Z" fill="#F2F2F2"/>
<path d="M1202.68 723.488C1214.29 723.488 1223.71 713.978 1223.71 702.246C1223.71 690.515 1214.29 681.004 1202.68 681.004C1191.07 681.004 1181.66 690.515 1181.66 702.246C1181.66 713.978 1191.07 723.488 1202.68 723.488Z" fill="#F2F2F2"/>
<path d="M1735.3 736.737C1729.61 736.737 1725.02 741.377 1725.02 747.134C1725.02 752.892 1729.61 757.532 1735.3 757.532C1741 757.532 1745.59 752.892 1745.59 747.134C1745.59 741.377 1741 736.737 1735.3 736.737Z" fill="#F2F2F2"/>
<path d="M732.463 615.657C725.714 615.657 720.293 621.191 720.293 627.955C720.293 634.719 725.77 640.253 732.463 640.253C739.157 640.253 744.634 634.719 744.634 627.955C744.634 621.191 739.157 615.657 732.463 615.657Z" fill="#F2F2F2"/>
<path d="M985.165 1214.35C992.468 1214.35 998.387 1208.37 998.387 1200.99C998.387 1193.61 992.468 1187.63 985.165 1187.63C977.863 1187.63 971.944 1193.61 971.944 1200.99C971.944 1208.37 977.863 1214.35 985.165 1214.35Z" fill="#F2F2F2"/>
<path d="M195.86 2549.69C203.039 2549.69 208.86 2543.8 208.86 2536.55C208.86 2529.29 203.039 2523.41 195.86 2523.41C188.68 2523.41 182.859 2529.29 182.859 2536.55C182.859 2543.8 188.68 2549.69 195.86 2549.69Z" fill="#F2F2F2"/>
<path d="M1441.22 1322.12C1441.22 1312.12 1433.2 1304.07 1423.36 1304.07C1413.51 1304.07 1405.49 1312.17 1405.49 1322.12C1405.49 1332.07 1413.51 1340.18 1423.36 1340.18C1433.2 1340.18 1441.22 1332.07 1441.22 1322.12Z" fill="#F2F2F2"/>
<path d="M1899.27 2675.52C1906.88 2675.52 1913.05 2669.28 1913.05 2661.6C1913.05 2653.91 1906.88 2647.68 1899.27 2647.68C1891.67 2647.68 1885.5 2653.91 1885.5 2661.6C1885.5 2669.28 1891.67 2675.52 1899.27 2675.52Z" fill="#F2F2F2"/>
<path d="M1897.34 1161.3C1905.1 1161.3 1911.39 1154.94 1911.39 1147.1C1911.39 1139.26 1905.1 1132.9 1897.34 1132.9C1889.58 1132.9 1883.29 1139.26 1883.29 1147.1C1883.29 1154.94 1889.58 1161.3 1897.34 1161.3Z" fill="#F2F2F2"/>
<path d="M1477.57 2491.88C1477.57 2484.39 1471.54 2478.3 1464.18 2478.3C1456.82 2478.3 1450.79 2484.39 1450.79 2491.88C1450.79 2499.38 1456.82 2505.41 1464.18 2505.41C1471.54 2505.41 1477.57 2499.32 1477.57 2491.88Z" fill="#F2F2F2"/>
<path d="M1232.78 848.984C1244.78 848.984 1254.52 839.148 1254.52 827.015C1254.52 814.882 1244.78 805.047 1232.78 805.047C1220.77 805.047 1211.04 814.882 1211.04 827.015C1211.04 839.148 1220.77 848.984 1232.78 848.984Z" fill="#F2F2F2"/>
<path d="M1801.69 1723.09C1807.61 1723.09 1812.37 1718.23 1812.37 1712.3C1812.37 1706.38 1807.55 1701.51 1801.69 1701.51C1795.82 1701.51 1791.01 1706.38 1791.01 1712.3C1791.01 1718.23 1795.82 1723.09 1801.69 1723.09Z" fill="#F2F2F2"/>
<path d="M1281.68 2705.42C1287.71 2705.42 1292.63 2700.45 1292.63 2694.35C1292.63 2688.26 1287.71 2683.29 1281.68 2683.29C1275.65 2683.29 1270.73 2688.26 1270.73 2694.35C1270.73 2700.45 1275.65 2705.42 1281.68 2705.42Z" fill="#F2F2F2"/>
<path d="M1442.16 1208.76C1442.16 1217.25 1449.02 1224.18 1457.43 1224.18C1465.84 1224.18 1472.7 1217.25 1472.7 1208.76C1472.7 1200.26 1465.84 1193.33 1457.43 1193.33C1449.02 1193.33 1442.16 1200.26 1442.16 1208.76Z" fill="#F2F2F2"/>
<path d="M1251.59 1708.89C1251.59 1714.48 1256.07 1719.07 1261.65 1719.07C1267.24 1719.07 1271.72 1714.54 1271.72 1708.89C1271.72 1703.25 1267.24 1698.72 1261.65 1698.72C1256.07 1698.72 1251.59 1703.25 1251.59 1708.89Z" fill="#F2F2F2"/>
<path d="M1404.88 1837.69C1412.24 1837.69 1418.16 1831.65 1418.16 1824.27C1418.16 1816.89 1412.18 1810.86 1404.88 1810.86C1397.58 1810.86 1391.6 1816.89 1391.6 1824.27C1391.6 1831.65 1397.58 1837.69 1404.88 1837.69Z" fill="#F2F2F2"/>
<path d="M547.197 993.43C552.121 993.43 556.104 989.405 556.104 984.43C556.104 979.455 552.121 975.43 547.197 975.43C542.274 975.43 538.291 979.455 538.291 984.43C538.291 989.405 542.274 993.43 547.197 993.43Z" fill="#F2F2F2"/>
<path d="M1742.33 1221.22C1742.33 1212.73 1735.53 1205.91 1727.17 1205.91C1718.82 1205.91 1712.01 1212.78 1712.01 1221.22C1712.01 1229.66 1718.82 1236.54 1727.17 1236.54C1735.53 1236.54 1742.33 1229.66 1742.33 1221.22Z" fill="#F2F2F2"/>
<path d="M1314.37 1505.14C1314.37 1510.34 1318.52 1514.53 1323.67 1514.53C1328.81 1514.53 1332.96 1510.34 1332.96 1505.14C1332.96 1499.94 1328.81 1495.75 1323.67 1495.75C1318.52 1495.75 1314.37 1499.94 1314.37 1505.14Z" fill="#F2F2F2"/>
<path d="M1416.16 702.191C1424.74 702.191 1431.65 695.147 1431.65 686.539C1431.65 677.93 1424.68 670.887 1416.16 670.887C1407.64 670.887 1400.67 677.93 1400.67 686.539C1400.67 695.147 1407.64 702.191 1416.16 702.191Z" fill="#F2F2F2"/>
<path d="M309.21 2448.39C319.887 2448.39 328.572 2439.62 328.572 2428.83C328.572 2418.04 319.887 2409.26 309.21 2409.26C298.533 2409.26 289.848 2418.04 289.848 2428.83C289.848 2439.62 298.533 2448.39 309.21 2448.39Z" fill="#F2F2F2"/>
<path d="M686.327 275.618C692.223 275.618 697.003 270.787 697.003 264.829C697.003 258.871 692.223 254.04 686.327 254.04C680.43 254.04 675.65 258.871 675.65 264.829C675.65 270.787 680.43 275.618 686.327 275.618Z" fill="#F2F2F2"/>
<path d="M1871.89 1561.99C1865.31 1561.99 1859.94 1567.41 1859.94 1574.06C1859.94 1580.71 1865.31 1586.14 1871.89 1586.14C1878.47 1586.14 1883.84 1580.71 1883.84 1574.06C1883.84 1567.41 1878.47 1561.99 1871.89 1561.99Z" fill="#F2F2F2"/>
<path d="M825.402 314.245C825.402 302.226 815.776 292.444 803.827 292.444C791.878 292.444 782.252 302.17 782.252 314.245C782.252 326.319 791.878 336.046 803.827 336.046C815.776 336.046 825.402 326.319 825.402 314.245Z" fill="#F2F2F2"/>
<path d="M900.913 2711.01C911.147 2711.01 919.445 2702.63 919.445 2692.29C919.445 2681.94 911.147 2673.56 900.913 2673.56C890.679 2673.56 882.381 2681.94 882.381 2692.29C882.381 2702.63 890.679 2711.01 900.913 2711.01Z" fill="#F2F2F2"/>
<path d="M1466.01 393.455C1460.09 393.455 1455.27 398.318 1455.27 404.3C1455.27 410.281 1460.09 415.144 1466.01 415.144C1471.93 415.144 1476.74 410.281 1476.74 404.3C1476.74 398.318 1471.93 393.455 1466.01 393.455Z" fill="#F2F2F2"/>
<path d="M1755.05 2333.86C1755.05 2327.93 1750.3 2323.12 1744.43 2323.12C1738.57 2323.12 1733.81 2327.93 1733.81 2333.86C1733.81 2339.78 1738.57 2344.59 1744.43 2344.59C1750.3 2344.59 1755.05 2339.78 1755.05 2333.86Z" fill="#F2F2F2"/>
<path d="M1791.34 1103.5C1795.9 1103.5 1799.59 1099.77 1799.59 1095.17C1799.59 1090.57 1795.9 1086.84 1791.34 1086.84C1786.79 1086.84 1783.1 1090.57 1783.1 1095.17C1783.1 1099.77 1786.79 1103.5 1791.34 1103.5Z" fill="#F2F2F2"/>
<path d="M233.09 1068.11C233.09 1072.75 236.796 1076.5 241.388 1076.5C245.979 1076.5 249.686 1072.75 249.686 1068.11C249.686 1063.47 245.979 1059.73 241.388 1059.73C236.796 1059.73 233.09 1063.47 233.09 1068.11Z" fill="#F2F2F2"/>
<path d="M665.858 1242.13C678.629 1242.13 688.982 1231.67 688.982 1218.76C688.982 1205.86 678.629 1195.4 665.858 1195.4C653.087 1195.4 642.734 1205.86 642.734 1218.76C642.734 1231.67 653.087 1242.13 665.858 1242.13Z" fill="#F2F2F2"/>
<path d="M1638.72 77.564C1644.08 77.564 1648.4 73.2038 1648.4 67.7815C1648.4 62.3592 1644.08 57.999 1638.72 57.999C1633.35 57.999 1629.04 62.3592 1629.04 67.7815C1629.04 73.2038 1633.35 77.564 1638.72 77.564Z" fill="#F2F2F2"/>
<path d="M701.651 2738.29C711 2738.29 718.578 2730.63 718.578 2721.19C718.578 2711.74 711 2704.08 701.651 2704.08C692.301 2704.08 684.723 2711.74 684.723 2721.19C684.723 2730.63 692.301 2738.29 701.651 2738.29Z" fill="#F2F2F2"/>
<path d="M1857.29 388.033C1869.81 388.033 1879.97 377.771 1879.97 365.114C1879.97 352.456 1869.81 342.195 1857.29 342.195C1844.76 342.195 1834.6 352.456 1834.6 365.114C1834.6 377.771 1844.76 388.033 1857.29 388.033Z" fill="#F2F2F2"/>
<path d="M1806.17 861.673C1806.17 855.245 1801.02 850.046 1794.66 850.046C1788.3 850.046 1783.16 855.245 1783.16 861.673C1783.16 868.102 1788.3 873.301 1794.66 873.301C1801.02 873.301 1806.17 868.102 1806.17 861.673Z" fill="#F2F2F2"/>
<path d="M1607.35 2143.24C1616.7 2143.24 1624.28 2135.58 1624.28 2126.13C1624.28 2116.68 1616.7 2109.03 1607.35 2109.03C1598 2109.03 1590.42 2116.68 1590.42 2126.13C1590.42 2135.58 1598 2143.24 1607.35 2143.24Z" fill="#F2F2F2"/>
<path d="M577.623 1488.82C585.81 1488.82 592.393 1482.11 592.393 1473.89C592.393 1465.67 585.755 1458.96 577.623 1458.96C569.491 1458.96 562.853 1465.67 562.853 1473.89C562.853 1482.11 569.491 1488.82 577.623 1488.82Z" fill="#F2F2F2"/>
<path d="M78.6367 118.091C78.6367 123.178 82.6751 127.259 87.7092 127.259C92.7433 127.259 96.7817 123.178 96.7817 118.091C96.7817 113.005 92.7433 108.924 87.7092 108.924C82.6751 108.924 78.6367 113.005 78.6367 118.091Z" fill="#F2F2F2"/>
<path d="M1651.44 1585.8C1651.44 1572.95 1641.15 1562.55 1628.43 1562.55C1615.7 1562.55 1605.41 1572.95 1605.41 1585.8C1605.41 1598.66 1615.7 1609.06 1628.43 1609.06C1641.15 1609.06 1651.44 1598.66 1651.44 1585.8Z" fill="#F2F2F2"/>
<path d="M1915.7 646.011C1915.7 641.26 1911.89 637.458 1907.24 637.458C1902.59 637.458 1898.78 641.316 1898.78 646.011C1898.78 650.707 1902.59 654.564 1907.24 654.564C1911.89 654.564 1915.7 650.707 1915.7 646.011Z" fill="#F2F2F2"/>
<path d="M1382.92 116.023C1382.92 108.924 1377.22 103.166 1370.19 103.166C1363.17 103.166 1357.47 108.924 1357.47 116.023C1357.47 123.122 1363.17 128.88 1370.19 128.88C1377.22 128.88 1382.92 123.122 1382.92 116.023Z" fill="#F2F2F2"/>
<path d="M80.6833 1333.53C90.143 1333.53 97.7771 1325.81 97.7771 1316.25C97.7771 1306.69 90.143 1298.98 80.6833 1298.98C71.2235 1298.98 63.5894 1306.69 63.5894 1316.25C63.5894 1325.81 71.2235 1333.53 80.6833 1333.53Z" fill="#F2F2F2"/>
<path d="M354.407 2734.66C363.97 2734.66 371.722 2726.82 371.722 2717.16C371.722 2707.5 363.97 2699.67 354.407 2699.67C344.844 2699.67 337.092 2707.5 337.092 2717.16C337.092 2726.82 344.844 2734.66 354.407 2734.66Z" fill="#F2F2F2"/>
<path d="M518.707 1870.33C524.294 1870.33 528.775 1865.75 528.775 1860.16C528.775 1854.57 524.239 1849.99 518.707 1849.99C513.175 1849.99 508.639 1854.57 508.639 1860.16C508.639 1865.75 513.175 1870.33 518.707 1870.33Z" fill="#F2F2F2"/>
<path d="M1117.66 2571.6C1122.67 2571.6 1126.73 2567.49 1126.73 2562.43C1126.73 2557.37 1122.67 2553.26 1117.66 2553.26C1112.65 2553.26 1108.58 2557.37 1108.58 2562.43C1108.58 2567.49 1112.65 2571.6 1117.66 2571.6Z" fill="#F2F2F2"/>
<path d="M1884.34 2125.8C1893.58 2125.8 1901.1 2118.19 1901.1 2108.86C1901.1 2099.52 1893.58 2091.92 1884.34 2091.92C1875.1 2091.92 1867.57 2099.52 1867.57 2108.86C1867.57 2118.19 1875.1 2125.8 1884.34 2125.8Z" fill="#F2F2F2"/>
<path d="M516.549 1581.5C516.549 1573.73 510.354 1567.47 502.664 1567.47C494.975 1567.47 488.779 1573.73 488.779 1581.5C488.779 1589.27 494.975 1595.53 502.664 1595.53C510.354 1595.53 516.549 1589.27 516.549 1581.5Z" fill="#F2F2F2"/>
<path d="M290.678 663.62C290.678 658.98 286.972 655.235 282.38 655.235C277.788 655.235 274.082 658.98 274.082 663.62C274.082 668.259 277.788 672.005 282.38 672.005C286.972 672.005 290.678 668.259 290.678 663.62Z" fill="#F2F2F2"/>
<path d="M98.9389 595.757C92.6324 595.757 87.543 600.9 87.543 607.272C87.543 613.645 92.6324 618.788 98.9389 618.788C105.245 618.788 110.335 613.645 110.335 607.272C110.335 600.9 105.245 595.757 98.9389 595.757Z" fill="#F2F2F2"/>
<path d="M1232 2094.88C1220.05 2094.88 1210.37 2104.67 1210.37 2116.74C1210.37 2128.81 1220.05 2138.6 1232 2138.6C1243.95 2138.6 1253.63 2128.81 1253.63 2116.74C1253.63 2104.67 1243.95 2094.88 1232 2094.88Z" fill="#F2F2F2"/>
<path d="M1034.4 2700.84C1040.49 2700.84 1045.41 2695.86 1045.41 2689.72C1045.41 2683.57 1040.49 2678.59 1034.4 2678.59C1028.32 2678.59 1023.39 2683.57 1023.39 2689.72C1023.39 2695.86 1028.32 2700.84 1034.4 2700.84Z" fill="#F2F2F2"/>
<path d="M1594.4 685.365C1594.4 673.626 1585 664.123 1573.38 664.123C1561.77 664.123 1552.36 673.626 1552.36 685.365C1552.36 697.104 1561.77 706.607 1573.38 706.607C1585 706.607 1594.4 697.104 1594.4 685.365Z" fill="#F2F2F2"/>
<path d="M1028.15 956.368C1037.22 956.368 1044.58 948.935 1044.58 939.766C1044.58 930.596 1037.22 923.163 1028.15 923.163C1019.07 923.163 1011.72 930.596 1011.72 939.766C1011.72 948.935 1019.07 956.368 1028.15 956.368Z" fill="#F2F2F2"/>
<path d="M1452.79 2670.88C1462.99 2670.88 1471.26 2662.52 1471.26 2652.21C1471.26 2641.89 1462.99 2633.54 1452.79 2633.54C1442.58 2633.54 1434.31 2641.89 1434.31 2652.21C1434.31 2662.52 1442.58 2670.88 1452.79 2670.88Z" fill="#F2F2F2"/>
<path d="M1320.07 324.418C1310.34 324.418 1302.43 332.412 1302.43 342.25C1302.43 352.089 1310.34 360.083 1320.07 360.083C1329.81 360.083 1337.72 352.089 1337.72 342.25C1337.72 332.412 1329.81 324.418 1320.07 324.418Z" fill="#F2F2F2"/>
<path d="M1697.47 1863.79C1708.58 1863.79 1717.6 1854.68 1717.6 1843.45C1717.6 1832.21 1708.58 1823.1 1697.47 1823.1C1686.35 1823.1 1677.33 1832.21 1677.33 1843.45C1677.33 1854.68 1686.35 1863.79 1697.47 1863.79Z" fill="#F2F2F2"/>
<path d="M776.885 1764.79C768.477 1764.79 761.617 1771.67 761.617 1780.22C761.617 1788.77 768.422 1795.65 776.885 1795.65C785.349 1795.65 792.154 1788.77 792.154 1780.22C792.154 1771.67 785.349 1764.79 776.885 1764.79Z" fill="#F2F2F2"/>
<path d="M1358.02 2561.98C1366.49 2561.98 1373.35 2555.05 1373.35 2546.5C1373.35 2537.95 1366.49 2531.01 1358.02 2531.01C1349.56 2531.01 1342.7 2537.95 1342.7 2546.5C1342.7 2555.05 1349.56 2561.98 1358.02 2561.98Z" fill="#F2F2F2"/>
<path d="M942.845 1900.3C955.311 1900.3 965.416 1890.08 965.416 1877.49C965.416 1864.89 955.311 1854.68 942.845 1854.68C930.38 1854.68 920.275 1864.89 920.275 1877.49C920.275 1890.08 930.38 1900.3 942.845 1900.3Z" fill="#F2F2F2"/>
<path d="M342.9 279.475C342.9 285.4 347.658 290.208 353.522 290.208C359.386 290.208 364.143 285.4 364.143 279.475C364.143 273.549 359.386 268.742 353.522 268.742C347.658 268.742 342.9 273.549 342.9 279.475Z" fill="#F2F2F2"/>
<path d="M380.241 2113.55C385.22 2113.55 389.314 2109.47 389.314 2104.39C389.314 2099.3 385.276 2095.22 380.241 2095.22C375.207 2095.22 371.169 2099.3 371.169 2104.39C371.169 2109.47 375.207 2113.55 380.241 2113.55Z" fill="#F2F2F2"/>
<path d="M586.031 2413.12C591.561 2413.12 596.044 2408.59 596.044 2403C596.044 2397.42 591.561 2392.89 586.031 2392.89C580.501 2392.89 576.019 2397.42 576.019 2403C576.019 2408.59 580.501 2413.12 586.031 2413.12Z" fill="#F2F2F2"/>
<path d="M1324.5 1640.08C1337.15 1640.08 1347.4 1629.72 1347.4 1616.94C1347.4 1604.16 1337.15 1593.8 1324.5 1593.8C1311.85 1593.8 1301.6 1604.16 1301.6 1616.94C1301.6 1629.72 1311.85 1640.08 1324.5 1640.08Z" fill="#F2F2F2"/>
<path d="M1979.87 1472.44C1973.9 1472.44 1969.03 1477.36 1969.03 1483.39C1969.03 1489.43 1973.9 1494.35 1979.87 1494.35C1985.85 1494.35 1990.72 1489.43 1990.72 1483.39C1990.72 1477.36 1985.85 1472.44 1979.87 1472.44Z" fill="#F2F2F2"/>
<path d="M487.562 1298.08C487.562 1306.69 494.477 1313.68 502.996 1313.68C511.516 1313.68 518.431 1306.69 518.431 1298.08C518.431 1289.48 511.516 1282.49 502.996 1282.49C494.477 1282.49 487.562 1289.48 487.562 1298.08Z" fill="#F2F2F2"/>
<path d="M971.114 579.043C978.905 579.043 985.221 572.661 985.221 564.788C985.221 556.916 978.905 550.534 971.114 550.534C963.324 550.534 957.008 556.916 957.008 564.788C957.008 572.661 963.324 579.043 971.114 579.043Z" fill="#F2F2F2"/>
<path d="M254.776 2650.19C265.452 2650.19 274.138 2641.42 274.138 2630.63C274.138 2619.84 265.452 2611.06 254.776 2611.06C244.099 2611.06 235.414 2619.84 235.414 2630.63C235.414 2641.42 244.099 2650.19 254.776 2650.19Z" fill="#F2F2F2"/>
<path d="M883.653 85.7254C895.844 85.7254 905.726 75.7395 905.726 63.4213C905.726 51.1031 895.844 41.1172 883.653 41.1172C871.463 41.1172 861.581 51.1031 861.581 63.4213C861.581 75.7395 871.463 85.7254 883.653 85.7254Z" fill="#F2F2F2"/>
<path d="M51.917 351.418C42.5679 351.418 35.0444 359.076 35.0444 368.468C35.0444 377.859 42.6232 385.517 51.917 385.517C61.2108 385.517 68.7896 377.859 68.7896 368.468C68.7896 359.076 61.2108 351.418 51.917 351.418Z" fill="#F2F2F2"/>
<path d="M1723.13 1041.22C1723.13 1036.19 1719.1 1032.11 1714.12 1032.11C1709.14 1032.11 1705.1 1036.19 1705.1 1041.22C1705.1 1046.26 1709.14 1050.34 1714.12 1050.34C1719.1 1050.34 1723.13 1046.26 1723.13 1041.22Z" fill="#F2F2F2"/>
<path d="M842.55 531.416C842.55 524.317 836.852 518.559 829.827 518.559C822.801 518.559 817.103 524.317 817.103 531.416C817.103 538.515 822.801 544.273 829.827 544.273C836.852 544.273 842.55 538.515 842.55 531.416Z" fill="#F2F2F2"/>
<path d="M206.149 1686.2C197.298 1686.2 190.162 1693.47 190.162 1702.35C190.162 1711.24 197.298 1718.51 206.149 1718.51C215 1718.51 222.137 1711.24 222.137 1702.35C222.137 1693.47 215 1686.2 206.149 1686.2Z" fill="#F2F2F2"/>
<path d="M1998.68 2278.85C2003.22 2278.85 2006.93 2275.1 2006.93 2270.52C2006.93 2265.94 2003.22 2262.19 1998.68 2262.19C1994.15 2262.19 1990.44 2265.94 1990.44 2270.52C1990.44 2275.1 1994.15 2278.85 1998.68 2278.85Z" fill="#F2F2F2"/>
<path d="M1473.25 1470.98C1473.25 1481.27 1481.5 1489.65 1491.73 1489.65C1501.96 1489.65 1510.21 1481.32 1510.21 1470.98C1510.21 1460.64 1501.96 1452.31 1491.73 1452.31C1481.5 1452.31 1473.25 1460.64 1473.25 1470.98Z" fill="#F2F2F2"/>
<path d="M1597.56 1415.75C1597.56 1426.6 1606.24 1435.38 1616.97 1435.38C1627.71 1435.38 1636.39 1426.6 1636.39 1415.75C1636.39 1404.91 1627.71 1396.13 1616.97 1396.13C1606.24 1396.13 1597.56 1404.91 1597.56 1415.75Z" fill="#F2F2F2"/>
<path d="M1222.1 2263.76C1232.61 2263.76 1241.13 2255.15 1241.13 2244.53C1241.13 2233.91 1232.61 2225.3 1222.1 2225.3C1211.59 2225.3 1203.07 2233.91 1203.07 2244.53C1203.07 2255.15 1211.59 2263.76 1222.1 2263.76Z" fill="#F2F2F2"/>
<path d="M233.256 276.121C225.567 276.121 219.315 282.437 219.315 290.208C219.315 297.978 225.567 304.294 233.256 304.294C240.946 304.294 247.197 297.978 247.197 290.208C247.197 282.437 240.946 276.121 233.256 276.121Z" fill="#F2F2F2"/>
<path d="M979.246 334.983C984.391 334.983 988.595 330.735 988.595 325.536C988.595 320.338 984.391 316.089 979.246 316.089C974.101 316.089 969.897 320.338 969.897 325.536C969.897 330.735 974.101 334.983 979.246 334.983Z" fill="#F2F2F2"/>
<path d="M1709.91 2718.11C1717.15 2718.11 1723.02 2712.18 1723.02 2704.86C1723.02 2697.55 1717.15 2691.62 1709.91 2691.62C1702.67 2691.62 1696.8 2697.55 1696.8 2704.86C1696.8 2712.18 1702.67 2718.11 1709.91 2718.11Z" fill="#F2F2F2"/>
<path d="M1765.79 2028.25C1754.17 2028.25 1744.82 2037.75 1744.82 2049.44C1744.82 2061.12 1754.22 2070.62 1765.79 2070.62C1777.35 2070.62 1786.75 2061.12 1786.75 2049.44C1786.75 2037.75 1777.35 2028.25 1765.79 2028.25Z" fill="#F2F2F2"/>
<path d="M1612.16 1721.81C1604.53 1721.81 1598.39 1728.07 1598.39 1735.73C1598.39 1743.38 1604.58 1749.64 1612.16 1749.64C1619.74 1749.64 1625.94 1743.38 1625.94 1735.73C1625.94 1728.07 1619.8 1721.81 1612.16 1721.81Z" fill="#F2F2F2"/>
<path d="M452.157 649.868C446.293 649.868 441.536 654.676 441.536 660.601C441.536 666.526 446.293 671.334 452.157 671.334C458.021 671.334 462.779 666.526 462.779 660.601C462.779 654.676 458.021 649.868 452.157 649.868Z" fill="#F2F2F2"/>
<path d="M1259.22 2560.14C1271.22 2560.14 1280.91 2550.3 1280.91 2538.23C1280.91 2526.15 1271.17 2516.31 1259.22 2516.31C1247.27 2516.31 1237.54 2526.15 1237.54 2538.23C1237.54 2550.3 1247.27 2560.14 1259.22 2560.14Z" fill="#F2F2F2"/>
<path d="M1545.61 2268.17C1552.03 2268.17 1557.17 2262.92 1557.17 2256.49C1557.17 2250.06 1551.97 2244.81 1545.61 2244.81C1539.25 2244.81 1534.05 2250.06 1534.05 2256.49C1534.05 2262.92 1539.25 2268.17 1545.61 2268.17Z" fill="#F2F2F2"/>
<path d="M1269.12 424.535C1261.71 424.535 1255.68 430.628 1255.68 438.119C1255.68 445.61 1261.71 451.703 1269.12 451.703C1276.54 451.703 1282.57 445.61 1282.57 438.119C1282.57 430.628 1276.54 424.535 1269.12 424.535Z" fill="#F2F2F2"/>
<path d="M1074.34 1306.53C1080.05 1306.53 1084.69 1301.85 1084.69 1296.07C1084.69 1290.3 1080.05 1285.62 1074.34 1285.62C1068.63 1285.62 1064 1290.3 1064 1296.07C1064 1301.85 1068.63 1306.53 1074.34 1306.53Z" fill="#F2F2F2"/>
<path d="M1337.77 948.039C1337.77 940.66 1331.86 934.679 1324.55 934.679C1317.25 934.679 1311.33 940.66 1311.33 948.039C1311.33 955.418 1317.25 961.399 1324.55 961.399C1331.86 961.399 1337.77 955.418 1337.77 948.039Z" fill="#F2F2F2"/>
<path d="M999.051 1725.05C999.051 1732.54 1005.08 1738.63 1012.49 1738.63C1019.91 1738.63 1025.94 1732.54 1025.94 1725.05C1025.94 1717.56 1019.91 1711.47 1012.49 1711.47C1005.08 1711.47 999.051 1717.56 999.051 1725.05Z" fill="#F2F2F2"/>
<path d="M2029.05 2433.97C2034.09 2433.97 2038.18 2429.84 2038.18 2424.75C2038.18 2419.66 2034.09 2415.53 2029.05 2415.53C2024.02 2415.53 2019.93 2419.66 2019.93 2424.75C2019.93 2429.84 2024.02 2433.97 2029.05 2433.97Z" fill="#F2F2F2"/>
<path d="M1349.95 2114.95C1355.26 2114.95 1359.57 2110.59 1359.57 2105.22C1359.57 2099.86 1355.26 2095.5 1349.95 2095.5C1344.63 2095.5 1340.32 2099.86 1340.32 2105.22C1340.32 2110.59 1344.63 2114.95 1349.95 2114.95Z" fill="#F2F2F2"/>
<path d="M205.43 2068.95C205.43 2062.91 200.562 2057.99 194.587 2057.99C188.613 2057.99 183.745 2062.91 183.745 2068.95C183.745 2074.98 188.613 2079.9 194.587 2079.9C200.562 2079.9 205.43 2074.98 205.43 2068.95Z" fill="#F2F2F2"/>
<path d="M435.838 1001.42C435.838 1011.93 444.302 1020.49 454.702 1020.49C465.102 1020.49 473.566 1011.93 473.566 1001.42C473.566 990.914 465.102 982.362 454.702 982.362C444.302 982.362 435.838 990.914 435.838 1001.42Z" fill="#F2F2F2"/>
<path d="M367.241 1452.76C358.556 1452.76 351.53 1459.86 351.53 1468.64C351.53 1477.41 358.556 1484.51 367.241 1484.51C375.926 1484.51 382.952 1477.41 382.952 1468.64C382.952 1459.86 375.926 1452.76 367.241 1452.76Z" fill="#F2F2F2"/>
<path d="M584.206 509.447C575.631 509.447 568.661 516.491 568.661 525.155C568.661 533.82 575.631 540.863 584.206 540.863C592.781 540.863 599.751 533.82 599.751 525.155C599.751 516.491 592.781 509.447 584.206 509.447Z" fill="#F2F2F2"/>
<path d="M1169.16 223.966C1157.98 223.966 1148.97 233.078 1148.97 244.37C1148.97 255.661 1157.98 264.773 1169.16 264.773C1180.33 264.773 1189.35 255.661 1189.35 244.37C1189.35 233.078 1180.33 223.966 1169.16 223.966Z" fill="#F2F2F2"/>
<path d="M1975.34 1677.25C1980.87 1677.25 1985.35 1672.73 1985.35 1667.14C1985.35 1661.55 1980.87 1657.02 1975.34 1657.02C1969.81 1657.02 1965.33 1661.55 1965.33 1667.14C1965.33 1672.73 1969.81 1677.25 1975.34 1677.25Z" fill="#F2F2F2"/>
<path d="M627.3 2528.11C632.943 2528.11 637.534 2523.47 637.534 2517.77C637.534 2512.06 632.943 2507.43 627.3 2507.43C621.657 2507.43 617.066 2512.06 617.066 2517.77C617.066 2523.47 621.657 2528.11 627.3 2528.11Z" fill="#F2F2F2"/>
<path d="M621.326 919.362C633.939 919.362 644.118 909.021 644.118 896.331C644.118 883.642 633.884 873.301 621.326 873.301C608.768 873.301 598.534 883.642 598.534 896.331C598.534 909.021 608.768 919.362 621.326 919.362Z" fill="#F2F2F2"/>
<path d="M1819.17 606.602C1819.17 598.943 1813.03 592.682 1805.39 592.682C1797.76 592.682 1791.62 598.887 1791.62 606.602C1791.62 614.316 1797.76 620.521 1805.39 620.521C1813.03 620.521 1819.17 614.316 1819.17 606.602Z" fill="#F2F2F2"/>
<path d="M135.616 882.859C143.25 882.859 149.446 876.599 149.446 868.884C149.446 861.17 143.25 854.909 135.616 854.909C127.982 854.909 121.786 861.17 121.786 868.884C121.786 876.599 127.982 882.859 135.616 882.859Z" fill="#F2F2F2"/>
<path d="M537.295 328.22C531.597 328.22 526.95 332.915 526.95 338.673C526.95 344.431 531.597 349.126 537.295 349.126C542.993 349.126 547.639 344.431 547.639 338.673C547.639 332.915 542.993 328.22 537.295 328.22Z" fill="#F2F2F2"/>
<path d="M1441.61 2091.03C1453.39 2091.03 1462.91 2081.41 1462.91 2069.5C1462.91 2057.6 1453.39 2047.98 1441.61 2047.98C1429.83 2047.98 1420.31 2057.6 1420.31 2069.5C1420.31 2081.41 1429.83 2091.03 1441.61 2091.03Z" fill="#F2F2F2"/>
<path d="M536.354 1175.83C536.354 1170.24 531.873 1165.71 526.341 1165.71C520.809 1165.71 516.328 1170.24 516.328 1175.83C516.328 1181.42 520.809 1185.95 526.341 1185.95C531.873 1185.95 536.354 1181.42 536.354 1175.83Z" fill="#F2F2F2"/>
<path d="M1795.82 1556.68C1795.82 1549.97 1790.46 1544.55 1783.82 1544.55C1777.18 1544.55 1771.82 1549.97 1771.82 1556.68C1771.82 1563.39 1777.18 1568.81 1783.82 1568.81C1790.46 1568.81 1795.82 1563.39 1795.82 1556.68Z" fill="#F2F2F2"/>
<path d="M2004.71 1044.24C2004.71 1036.19 1998.24 1029.65 1990.27 1029.65C1982.31 1029.65 1975.84 1036.19 1975.84 1044.24C1975.84 1052.29 1982.31 1058.83 1990.27 1058.83C1998.24 1058.83 2004.71 1052.29 2004.71 1044.24Z" fill="#F2F2F2"/>
<path d="M4.67371 1513.41C-0.360414 1513.41 -4.4541 1517.55 -4.4541 1522.63C-4.4541 1527.72 -0.360414 1531.86 4.67371 1531.86C9.70783 1531.86 13.8015 1527.72 13.8015 1522.63C13.8015 1517.55 9.70783 1513.41 4.67371 1513.41Z" fill="#F2F2F2"/>
<path d="M739.655 880.288C739.655 888.282 746.072 894.766 753.983 894.766C761.894 894.766 768.311 888.282 768.311 880.288C768.311 872.294 761.894 865.81 753.983 865.81C746.072 865.81 739.655 872.294 739.655 880.288Z" fill="#F2F2F2"/>
<path d="M399.437 1302.05C399.437 1297.08 395.454 1293.05 390.531 1293.05C385.607 1293.05 381.624 1297.08 381.624 1302.05C381.624 1307.03 385.607 1311.05 390.531 1311.05C395.454 1311.05 399.437 1307.03 399.437 1302.05Z" fill="#F2F2F2"/>
<path d="M1072.29 1972.69C1078.6 1972.69 1083.69 1967.54 1083.69 1961.17C1083.69 1954.8 1078.6 1949.66 1072.29 1949.66C1065.99 1949.66 1060.9 1954.8 1060.9 1961.17C1060.9 1967.54 1065.99 1972.69 1072.29 1972.69Z" fill="#F2F2F2"/>
<path d="M1613.99 2386.57C1613.99 2379.02 1607.96 2372.87 1600.43 2372.87C1592.91 2372.87 1586.88 2378.97 1586.88 2386.57C1586.88 2394.17 1592.91 2400.26 1600.43 2400.26C1607.96 2400.26 1613.99 2394.12 1613.99 2386.57Z" fill="#F2F2F2"/>
<path d="M834.142 1065.88C834.142 1055.98 826.231 1047.99 816.439 1047.99C806.648 1047.99 798.737 1055.98 798.737 1065.88C798.737 1075.77 806.648 1083.76 816.439 1083.76C826.231 1083.76 834.142 1075.77 834.142 1065.88Z" fill="#F2F2F2"/>
<path d="M257.652 1395.46C269.964 1395.46 279.946 1385.38 279.946 1372.93C279.946 1360.49 269.964 1350.41 257.652 1350.41C245.339 1350.41 235.358 1360.49 235.358 1372.93C235.358 1385.38 245.339 1395.46 257.652 1395.46Z" fill="#F2F2F2"/>
<path d="M1734.64 406.144C1728.39 406.144 1723.3 411.287 1723.3 417.604C1723.3 423.92 1728.39 429.063 1734.64 429.063C1740.89 429.063 1745.98 423.92 1745.98 417.604C1745.98 411.287 1740.89 406.144 1734.64 406.144Z" fill="#F2F2F2"/>
<path d="M1985.41 2154.75C1992.1 2154.75 1997.52 2149.27 1997.52 2142.51C1997.52 2135.75 1992.1 2130.27 1985.41 2130.27C1978.71 2130.27 1973.29 2135.75 1973.29 2142.51C1973.29 2149.27 1978.71 2154.75 1985.41 2154.75Z" fill="#F2F2F2"/>
<path d="M326.636 458.914C326.636 449.299 318.947 441.529 309.432 441.529C299.917 441.529 292.227 449.299 292.227 458.914C292.227 468.529 299.917 476.299 309.432 476.299C318.947 476.299 326.636 468.529 326.636 458.914Z" fill="#F2F2F2"/>
<path d="M410.335 2452.53C416.843 2452.53 422.119 2447.2 422.119 2440.62C422.119 2434.05 416.843 2428.72 410.335 2428.72C403.828 2428.72 398.552 2434.05 398.552 2440.62C398.552 2447.2 403.828 2452.53 410.335 2452.53Z" fill="#F2F2F2"/>
<path d="M32.4443 530.745C38.341 530.745 43.1211 525.915 43.1211 519.957C43.1211 513.998 38.341 509.168 32.4443 509.168C26.5477 509.168 21.7676 513.998 21.7676 519.957C21.7676 525.915 26.5477 530.745 32.4443 530.745Z" fill="#F2F2F2"/>
<path d="M939.195 2553.43C950.314 2553.43 959.387 2544.32 959.387 2533.03C959.387 2521.74 950.369 2512.62 939.195 2512.62C928.02 2512.62 919.003 2521.74 919.003 2533.03C919.003 2544.32 928.02 2553.43 939.195 2553.43Z" fill="#F2F2F2"/>
<path d="M1691.55 2242.01C1696.69 2242.01 1700.9 2237.82 1700.9 2232.56C1700.9 2227.31 1696.75 2223.12 1691.55 2223.12C1686.35 2223.12 1682.2 2227.31 1682.2 2232.56C1682.2 2237.82 1686.35 2242.01 1691.55 2242.01Z" fill="#F2F2F2"/>
<path d="M28.2398 1693.69C40.9802 1693.69 51.3082 1683.25 51.3082 1670.38C51.3082 1657.5 40.9802 1647.07 28.2398 1647.07C15.4995 1647.07 5.17139 1657.5 5.17139 1670.38C5.17139 1683.25 15.4995 1693.69 28.2398 1693.69Z" fill="#F2F2F2"/>
<path d="M1194.72 1223.35C1200.86 1223.35 1205.84 1218.32 1205.84 1212.11C1205.84 1205.91 1200.86 1200.87 1194.72 1200.87C1188.58 1200.87 1183.6 1205.91 1183.6 1212.11C1183.6 1218.32 1188.58 1223.35 1194.72 1223.35Z" fill="#F2F2F2"/>
<path d="M156.195 1828.97C161.328 1828.97 165.489 1824.76 165.489 1819.58C165.489 1814.39 161.328 1810.18 156.195 1810.18C151.062 1810.18 146.901 1814.39 146.901 1819.58C146.901 1824.76 151.062 1828.97 156.195 1828.97Z" fill="#F2F2F2"/>
<path d="M1199.2 1391.38C1204.91 1391.38 1209.54 1386.7 1209.54 1380.93C1209.54 1375.16 1204.91 1370.48 1199.2 1370.48C1193.49 1370.48 1188.85 1375.16 1188.85 1380.93C1188.85 1386.7 1193.49 1391.38 1199.2 1391.38Z" fill="#F2F2F2"/>
<path d="M1132.76 396.418C1141.83 396.418 1149.19 388.984 1149.19 379.815C1149.19 370.646 1141.83 363.213 1132.76 363.213C1123.69 363.213 1116.33 370.646 1116.33 379.815C1116.33 388.984 1123.69 396.418 1132.76 396.418Z" fill="#F2F2F2"/>
<path d="M1485.31 779.724C1478.79 779.724 1473.48 785.09 1473.48 791.687C1473.48 798.283 1478.79 803.649 1485.31 803.649C1491.84 803.649 1497.15 798.283 1497.15 791.687C1497.15 785.09 1491.84 779.724 1485.31 779.724Z" fill="#F2F2F2"/>
<path d="M13.0825 881.574C13.0825 893.816 22.9295 903.766 35.0446 903.766C47.1596 903.766 57.0066 893.816 57.0066 881.574C57.0066 869.332 47.1596 859.381 35.0446 859.381C22.9295 859.381 13.0825 869.332 13.0825 881.574Z" fill="#F2F2F2"/>
<path d="M25.9165 2680.38C35.8188 2680.38 43.8955 2672.22 43.8955 2662.21C43.8955 2652.21 35.8188 2644.04 25.9165 2644.04C16.0142 2644.04 7.9375 2652.21 7.9375 2662.21C7.9375 2672.22 16.0142 2680.38 25.9165 2680.38Z" fill="#F2F2F2"/>
<path d="M119.961 306.027C126.101 306.027 131.08 300.996 131.08 294.791C131.08 288.587 126.101 283.556 119.961 283.556C113.82 283.556 108.841 288.587 108.841 294.791C108.841 300.996 113.82 306.027 119.961 306.027Z" fill="#F2F2F2"/>
<path d="M1061.06 1515.42C1067.08 1515.42 1071.96 1510.49 1071.96 1504.41C1071.96 1498.33 1067.08 1493.4 1061.06 1493.4C1055.05 1493.4 1050.17 1498.33 1050.17 1504.41C1050.17 1510.49 1055.05 1515.42 1061.06 1515.42Z" fill="#F2F2F2"/>
<path d="M972.276 2395.18C972.276 2389.42 967.629 2384.72 961.931 2384.72C956.233 2384.72 951.586 2389.42 951.586 2395.18C951.586 2400.94 956.233 2405.63 961.931 2405.63C967.629 2405.63 972.276 2400.94 972.276 2395.18Z" fill="#F2F2F2"/>
<path d="M1737.96 2521.12C1745.1 2521.12 1750.9 2515.25 1750.9 2508.04C1750.9 2500.83 1745.1 2494.96 1737.96 2494.96C1730.82 2494.96 1725.02 2500.83 1725.02 2508.04C1725.02 2515.25 1730.82 2521.12 1737.96 2521.12Z" fill="#F2F2F2"/>
<path d="M100.875 2317.25C105.688 2317.25 109.56 2313.34 109.56 2308.48C109.56 2303.61 105.688 2299.7 100.875 2299.7C96.0623 2299.7 92.1899 2303.61 92.1899 2308.48C92.1899 2313.34 96.0623 2317.25 100.875 2317.25Z" fill="#F2F2F2"/>
<path d="M1520.39 1372.15C1520.39 1377.24 1524.48 1381.43 1529.57 1381.43C1534.66 1381.43 1538.75 1377.29 1538.75 1372.15C1538.75 1367.01 1534.66 1362.87 1529.57 1362.87C1524.48 1362.87 1520.39 1367.01 1520.39 1372.15Z" fill="#F2F2F2"/>
<path d="M1184.43 968.61C1184.43 963.132 1180.06 958.716 1174.64 958.716C1169.22 958.716 1164.84 963.132 1164.84 968.61C1164.84 974.088 1169.22 978.504 1174.64 978.504C1180.06 978.504 1184.43 974.088 1184.43 968.61Z" fill="#F2F2F2"/>
<path d="M1776.96 71.3591C1767.83 71.3591 1760.42 78.8497 1760.42 88.0732C1760.42 97.2967 1767.83 104.787 1776.96 104.787C1786.09 104.787 1793.5 97.2967 1793.5 88.0732C1793.5 78.8497 1786.09 71.3591 1776.96 71.3591Z" fill="#F2F2F2"/>
<path d="M1680.65 585.527C1680.65 596.596 1689.55 605.595 1700.51 605.595C1711.46 605.595 1720.37 596.596 1720.37 585.527C1720.37 574.459 1711.46 565.459 1700.51 565.459C1689.55 565.459 1680.65 574.459 1680.65 585.527Z" fill="#F2F2F2"/>
<path d="M77.1429 -0.0810986C71.8322 -0.0810986 67.4619 4.2791 67.4619 9.7014C67.4619 15.1237 71.7769 19.4839 77.1429 19.4839C82.509 19.4839 86.8239 15.1237 86.8239 9.7014C86.8239 4.2791 82.509 -0.0810986 77.1429 -0.0810986Z" fill="#F2F2F2"/>
<path d="M476.996 2572.88C487.617 2572.88 496.247 2564.16 496.247 2553.43C496.247 2542.7 487.617 2533.98 476.996 2533.98C466.375 2533.98 457.745 2542.7 457.745 2553.43C457.745 2564.16 466.375 2572.88 476.996 2572.88Z" fill="#F2F2F2"/>
<path d="M897.815 1319.83C897.815 1328.1 904.453 1334.87 912.696 1334.87C920.939 1334.87 927.577 1328.16 927.577 1319.83C927.577 1311.5 920.939 1304.79 912.696 1304.79C904.453 1304.79 897.815 1311.5 897.815 1319.83Z" fill="#F2F2F2"/>
<path d="M1105.21 489.994C1097.63 489.994 1091.55 496.199 1091.55 503.801C1091.55 511.404 1097.69 517.609 1105.21 517.609C1112.73 517.609 1118.87 511.404 1118.87 503.801C1118.87 496.199 1112.73 489.994 1105.21 489.994Z" fill="#F2F2F2"/>
<path d="M1153.17 1818.85C1147.36 1818.85 1142.61 1823.6 1142.61 1829.53C1142.61 1835.45 1147.31 1840.2 1153.17 1840.2C1159.04 1840.2 1163.74 1835.45 1163.74 1829.53C1163.74 1823.6 1159.04 1818.85 1153.17 1818.85Z" fill="#F2F2F2"/>
<path d="M1938.44 484.795C1938.44 471.938 1928.09 461.485 1915.37 461.485C1902.65 461.485 1892.3 471.938 1892.3 484.795C1892.3 497.652 1902.65 508.106 1915.37 508.106C1928.09 508.106 1938.44 497.652 1938.44 484.795Z" fill="#F2F2F2"/>
<path d="M35.5422 213.681C27.0229 213.681 20.1079 220.668 20.1079 229.277C20.1079 237.885 27.0229 244.873 35.5422 244.873C44.0615 244.873 50.9765 237.885 50.9765 229.277C50.9765 220.668 44.0615 213.681 35.5422 213.681Z" fill="#F2F2F2"/>
<path d="M1280.24 1112.72C1275.65 1112.72 1271.89 1116.52 1271.89 1121.16C1271.89 1125.8 1275.65 1129.6 1280.24 1129.6C1284.83 1129.6 1288.6 1125.8 1288.6 1121.16C1288.6 1116.52 1284.83 1112.72 1280.24 1112.72Z" fill="#F2F2F2"/>
<path d="M885.645 696.265C885.645 683.241 875.245 672.731 862.355 672.731C849.466 672.731 839.065 683.296 839.065 696.265C839.065 709.234 849.521 719.799 862.355 719.799C875.189 719.799 885.645 709.234 885.645 696.265Z" fill="#F2F2F2"/>
<path d="M2034.75 1942.28C2034.75 1929.25 2024.3 1918.69 2011.41 1918.69C1998.52 1918.69 1988.06 1929.25 1988.06 1942.28C1988.06 1955.3 1998.52 1965.87 2011.41 1965.87C2024.3 1965.87 2034.75 1955.3 2034.75 1942.28Z" fill="#F2F2F2"/>
<path d="M534.418 2681.94C540.282 2681.94 545.095 2677.14 545.095 2671.16C545.095 2665.18 540.337 2660.37 534.418 2660.37C528.499 2660.37 523.741 2665.18 523.741 2671.16C523.741 2677.14 528.499 2681.94 534.418 2681.94Z" fill="#F2F2F2"/>
<path d="M612.862 1144.75C618.173 1144.75 622.432 1140.39 622.432 1135.08C622.432 1129.77 618.117 1125.41 612.862 1125.41C607.606 1125.41 603.292 1129.77 603.292 1135.08C603.292 1140.39 607.606 1144.75 612.862 1144.75Z" fill="#F2F2F2"/>
<path d="M642.015 10.7635C632.169 10.7635 624.258 18.8131 624.258 28.7074C624.258 38.6017 632.224 46.6513 642.015 46.6513C651.807 46.6513 659.773 38.6017 659.773 28.7074C659.773 18.8131 651.807 10.7635 642.015 10.7635Z" fill="#F2F2F2"/>
<path d="M219.592 2261.13C219.592 2248.5 209.413 2238.21 196.911 2238.21C184.408 2238.21 174.229 2248.5 174.229 2261.13C174.229 2273.76 184.408 2284.05 196.911 2284.05C209.413 2284.05 219.592 2273.76 219.592 2261.13Z" fill="#F2F2F2"/>
<path d="M1162.36 2689.6C1172.48 2689.6 1180.67 2681.33 1180.67 2671.1C1180.67 2660.87 1172.48 2652.6 1162.36 2652.6C1152.23 2652.6 1144.04 2660.87 1144.04 2671.1C1144.04 2681.33 1152.23 2689.6 1162.36 2689.6Z" fill="#F2F2F2"/>
<path d="M1075.56 149.954C1075.56 144.029 1070.8 139.166 1064.88 139.166C1058.96 139.166 1054.2 143.973 1054.2 149.954C1054.2 155.936 1058.96 160.743 1064.88 160.743C1070.8 160.743 1075.56 155.936 1075.56 149.954Z" fill="#F2F2F2"/>
<path d="M1346.74 2352.3C1357.36 2352.3 1365.99 2343.58 1365.99 2332.85C1365.99 2322.12 1357.36 2313.4 1346.74 2313.4C1336.12 2313.4 1327.49 2322.12 1327.49 2332.85C1327.49 2343.58 1336.12 2352.3 1346.74 2352.3Z" fill="#F2F2F2"/>
<path d="M1144.38 80.5267C1144.38 74.769 1139.78 70.1293 1134.09 70.1293C1128.39 70.1293 1123.8 74.769 1123.8 80.5267C1123.8 86.2844 1128.39 90.9241 1134.09 90.9241C1139.78 90.9241 1144.38 86.2844 1144.38 80.5267Z" fill="#F2F2F2"/>
<path d="M657.671 1918.07C669.495 1918.07 679.08 1908.39 679.08 1896.44C679.08 1884.49 669.495 1874.8 657.671 1874.8C645.847 1874.8 636.262 1884.49 636.262 1896.44C636.262 1908.39 645.847 1918.07 657.671 1918.07Z" fill="#F2F2F2"/>
<path d="M1103.22 775.699C1103.22 766.587 1095.92 759.209 1086.84 759.209C1077.77 759.209 1070.47 766.587 1070.47 775.699C1070.47 784.811 1077.77 792.245 1086.84 792.245C1095.92 792.245 1103.22 784.867 1103.22 775.699Z" fill="#F2F2F2"/>
<path d="M282.491 1603.97C288.465 1603.97 293.333 1599.05 293.333 1593.01C293.333 1586.98 288.465 1582.06 282.491 1582.06C276.516 1582.06 271.648 1586.98 271.648 1593.01C271.648 1599.05 276.516 1603.97 282.491 1603.97Z" fill="#F2F2F2"/>
<path d="M1797.43 301.332C1810.08 301.332 1820.33 290.97 1820.33 278.189C1820.33 265.408 1810.08 255.046 1797.43 255.046C1784.78 255.046 1774.53 265.408 1774.53 278.189C1774.53 290.97 1784.78 301.332 1797.43 301.332Z" fill="#F2F2F2"/>
<path d="M57.449 2396.24C57.449 2388.36 51.1426 2381.99 43.3425 2381.99C35.5423 2381.99 29.2358 2388.36 29.2358 2396.24C29.2358 2404.12 35.5423 2410.49 43.3425 2410.49C51.1426 2410.49 57.449 2404.12 57.449 2396.24Z" fill="#F2F2F2"/>
<path d="M1838.03 1354.38C1838.03 1342.25 1828.3 1332.41 1816.29 1332.41C1804.29 1332.41 1794.55 1342.25 1794.55 1354.38C1794.55 1366.51 1804.29 1376.34 1816.29 1376.34C1828.3 1376.34 1838.03 1366.51 1838.03 1354.38Z" fill="#F2F2F2"/>
<path d="M531.044 2171.35C523.244 2171.35 516.882 2177.78 516.882 2185.66C516.882 2193.55 523.244 2199.98 531.044 2199.98C538.844 2199.98 545.206 2193.55 545.206 2185.66C545.206 2177.78 538.844 2171.35 531.044 2171.35Z" fill="#F2F2F2"/>
<path d="M392.577 72.7007C392.577 61.9679 383.948 53.2475 373.326 53.2475C362.705 53.2475 354.075 61.9679 354.075 72.7007C354.075 83.4335 362.705 92.1539 373.326 92.1539C383.948 92.1539 392.577 83.4335 392.577 72.7007Z" fill="#F2F2F2"/>
<path d="M1524.7 1903.09C1535.82 1903.09 1544.89 1893.98 1544.89 1882.69C1544.89 1871.39 1535.88 1862.28 1524.7 1862.28C1513.53 1862.28 1504.51 1871.39 1504.51 1882.69C1504.51 1893.98 1513.53 1903.09 1524.7 1903.09Z" fill="#F2F2F2"/>
<path d="M408.897 1826.68C419.56 1826.68 428.204 1817.94 428.204 1807.17C428.204 1796.39 419.56 1787.66 408.897 1787.66C398.234 1787.66 389.59 1796.39 389.59 1807.17C389.59 1817.94 398.234 1826.68 408.897 1826.68Z" fill="#F2F2F2"/>
<path d="M845.317 1513.86C851.274 1513.86 856.104 1508.98 856.104 1502.96C856.104 1496.94 851.274 1492.06 845.317 1492.06C839.359 1492.06 834.529 1496.94 834.529 1502.96C834.529 1508.98 839.359 1513.86 845.317 1513.86Z" fill="#F2F2F2"/>
<path d="M763.719 761.389C775.024 761.389 784.188 752.129 784.188 740.706C784.188 729.283 775.024 720.023 763.719 720.023C752.415 720.023 743.251 729.283 743.251 740.706C743.251 752.129 752.415 761.389 763.719 761.389Z" fill="#F2F2F2"/>
<path d="M1568.46 1970.79C1568.46 1964.92 1563.76 1960.16 1557.95 1960.16C1552.14 1960.16 1547.44 1964.92 1547.44 1970.79C1547.44 1976.65 1552.14 1981.41 1557.95 1981.41C1563.76 1981.41 1568.46 1976.65 1568.46 1970.79Z" fill="#F2F2F2"/>
<path d="M928.739 1045.92C919.335 1045.92 911.756 1053.63 911.756 1063.08C911.756 1072.53 919.39 1080.24 928.739 1080.24C938.088 1080.24 945.722 1072.53 945.722 1063.08C945.722 1053.63 938.088 1045.92 928.739 1045.92Z" fill="#F2F2F2"/>
<path d="M1860.27 1006.12C1870.84 1006.12 1879.41 997.454 1879.41 986.778C1879.41 976.101 1870.84 967.436 1860.27 967.436C1849.71 967.436 1841.13 976.101 1841.13 986.778C1841.13 997.454 1849.71 1006.12 1860.27 1006.12Z" fill="#F2F2F2"/>
<path d="M723.944 118.539C712.769 118.539 703.642 127.706 703.642 139.054C703.642 150.402 712.714 159.569 723.944 159.569C735.174 159.569 744.246 150.402 744.246 139.054C744.246 127.706 735.174 118.539 723.944 118.539Z" fill="#F2F2F2"/>
<path d="M249.188 1217.98C249.188 1211.78 244.209 1206.69 238.013 1206.69C231.818 1206.69 226.839 1211.72 226.839 1217.98C226.839 1224.24 231.818 1229.27 238.013 1229.27C244.209 1229.27 249.188 1224.24 249.188 1217.98Z" fill="#F2F2F2"/>
<path d="M1591.47 2632.42C1596.84 2632.42 1601.15 2628.06 1601.15 2622.64C1601.15 2617.21 1596.84 2612.85 1591.47 2612.85C1586.11 2612.85 1581.79 2617.21 1581.79 2622.64C1581.79 2628.06 1586.11 2632.42 1591.47 2632.42Z" fill="#F2F2F2"/>
<path d="M529.661 215.246C529.661 210.382 525.788 206.469 520.975 206.469C516.162 206.469 512.29 210.382 512.29 215.246C512.29 220.109 516.162 224.022 520.975 224.022C525.788 224.022 529.661 220.109 529.661 215.246Z" fill="#F2F2F2"/>
<path d="M297.925 801.581C297.925 806.724 302.074 810.916 307.163 810.916C312.253 810.916 316.402 806.724 316.402 801.581C316.402 796.438 312.253 792.245 307.163 792.245C302.074 792.245 297.925 796.438 297.925 801.581Z" fill="#F2F2F2"/>
<path d="M2066.12 320.394C2066.12 307.537 2055.77 297.083 2043.05 297.083C2030.33 297.083 2019.98 307.537 2019.98 320.394C2019.98 333.251 2030.33 343.704 2043.05 343.704C2055.77 343.704 2066.12 333.251 2066.12 320.394Z" fill="#F2F2F2"/>
<path d="M1532.45 1045.81C1539.57 1045.81 1545.34 1039.98 1545.34 1032.78C1545.34 1025.59 1539.57 1019.76 1532.45 1019.76C1525.33 1019.76 1519.56 1025.59 1519.56 1032.78C1519.56 1039.98 1525.33 1045.81 1532.45 1045.81Z" fill="#F2F2F2"/>
<path d="M1974.07 1765.91C1974.07 1771.28 1978.38 1775.69 1983.75 1775.69C1989.11 1775.69 1993.43 1771.33 1993.43 1765.91C1993.43 1760.49 1989.11 1756.13 1983.75 1756.13C1978.38 1756.13 1974.07 1760.49 1974.07 1765.91Z" fill="#F2F2F2"/>
<path d="M66.1893 996.728C66.1893 983.871 55.8998 973.473 43.1762 973.473C30.4526 973.473 20.1631 983.871 20.1631 996.728C20.1631 1009.58 30.4526 1019.98 43.1762 1019.98C55.8998 1019.98 66.1893 1009.58 66.1893 996.728Z" fill="#F2F2F2"/>
<path d="M639.194 786.823C633.552 786.823 628.96 791.463 628.96 797.165C628.96 802.867 633.552 807.506 639.194 807.506C644.837 807.506 649.428 802.867 649.428 797.165C649.428 791.463 644.837 786.823 639.194 786.823Z" fill="#F2F2F2"/>
<path d="M1558.45 534.323C1558.45 524.261 1550.37 516.099 1540.41 516.099C1530.45 516.099 1522.38 524.261 1522.38 534.323C1522.38 544.385 1530.45 552.546 1540.41 552.546C1550.37 552.546 1558.45 544.385 1558.45 534.323Z" fill="#F2F2F2"/>
<path d="M175.668 1539.74C175.668 1534.65 171.574 1530.52 166.54 1530.52C161.506 1530.52 157.412 1534.65 157.412 1539.74C157.412 1544.83 161.506 1548.96 166.54 1548.96C171.574 1548.96 175.668 1544.83 175.668 1539.74Z" fill="#F2F2F2"/>
<path d="M445.906 867.878C445.906 877.213 453.374 884.76 462.613 884.76C471.851 884.76 479.319 877.213 479.319 867.878C479.319 858.543 471.851 850.996 462.613 850.996C453.374 850.996 445.906 858.543 445.906 867.878Z" fill="#F2F2F2"/>
<path d="M1875.87 846.636C1875.87 855.58 1883.06 862.847 1891.92 862.847C1900.77 862.847 1907.96 855.58 1907.96 846.636C1907.96 837.692 1900.77 830.425 1891.92 830.425C1883.06 830.425 1875.87 837.692 1875.87 846.636Z" fill="#F2F2F2"/>
<path d="M1697.08 1363.04C1690.99 1363.04 1686.07 1368.02 1686.07 1374.16C1686.07 1380.31 1690.99 1385.29 1697.08 1385.29C1703.16 1385.29 1708.09 1380.31 1708.09 1374.16C1708.09 1368.02 1703.16 1363.04 1697.08 1363.04Z" fill="#F2F2F2"/>
<path d="M1132.15 2336.59C1132.15 2328.77 1125.9 2322.45 1118.15 2322.45C1110.41 2322.45 1104.16 2328.77 1104.16 2336.59C1104.16 2344.42 1110.41 2350.74 1118.15 2350.74C1125.9 2350.74 1132.15 2344.42 1132.15 2336.59Z" fill="#F2F2F2"/>
</svg>
