<svg width="490" height="175" viewBox="0 0 490 175" fill="none" xmlns="http://www.w3.org/2000/svg">
<path d="M100.784 0V8.75021H109.359V43.7499H117.934V52.4997H109.359V96.25H100.784V113.75H117.934V122.5H109.359V166.25H100.784V175H143.658V166.25H135.083V122.5H143.658V113.75H126.508V96.25H135.083V52.4997H143.658V43.7499H135.083V8.75021H143.658V0H100.784Z" fill="white"/>
<path d="M395.678 78.7499H378.529V87.4998H369.954V96.25H361.38V105H395.678V96.25H404.253V87.4998H412.828V69.9997H421.402V43.7499H429.977V35.0001H421.402V17.5H429.977V8.75021H421.402V0H335.656V8.75021H344.23V17.5H395.678V35.0001H344.23V43.7499H335.656V52.4997H395.678V78.7499Z" fill="white"/>
<path d="M206.254 148.75V122.5H214.829V113.75H206.254V96.25H197.68V87.4998H206.254V43.7499H214.829V26.2498H206.254V8.75021H214.829V0H171.956V8.75021H180.53V26.2498H189.105V43.7499H180.53V87.4998H171.956V96.25H180.53V113.75H189.105V122.5H180.53V175H231.978V148.75H206.254Z" fill="white"/>
<path d="M249.128 0V26.2498H257.702V43.7499H249.128V69.9997H214.829V78.7499H223.404V96.25H249.128V113.75H257.702V122.5H249.128V175H274.851V122.5H283.426V113.75H274.851V78.7499H266.277V69.9997H274.851V43.7499H283.426V26.2498H274.851V8.75021H283.426V0H249.128Z" fill="white"/>
<path d="M481.425 8.75021H489.999V0H455.701V26.2498H464.276V43.7499H438.552V61.2499H464.276V69.9997H455.701V96.25H481.425V69.9997H489.999V61.2499H481.425V43.7499H489.999V26.2498H481.425V8.75021Z" fill="white"/>
<path d="M481.425 148.75H455.701V140H464.275V131.25H455.701V113.75H438.552V105H421.402V122.5H404.253V131.25H395.678V140H378.529V157.5H369.955V175H395.678V166.25H404.253V157.5H412.828V148.75H404.253V140H429.977V148.75H447.126V157.5H455.701L455.702 166.25H464.276V175H490V157.5H481.426L481.425 148.75Z" fill="white"/>
<path d="M292.001 0V26.2498H300.575V43.7499H292.001V113.75H300.575V122.5H292.001V175H317.725V122.5H326.299V113.75H317.725V78.7499H309.15V69.9997H317.725V43.7499H326.299V26.2498H317.725V8.75021H326.299V0H292.001Z" fill="white"/>
<path d="M76.9697 113.75V105V96.25H85.5446V43.7499H76.9697V26.2498H68.3953V8.75021H59.8204V0H34.0966V8.75021H25.7242V26.2498H17.1493V43.7499H25.7238V52.4997H8.57487V96.2496H0V113.75H17.1493V122.499H8.57487V166.249H0V175H42.8732V166.249H34.2987V122.5H42.8736V113.75H25.7242V96.25H34.2987V87.5002H59.8204V96.25H51.2459V113.75H68.3953V122.5H59.8204V166.25H51.2459V175H94.1191V166.25H85.5446V122.5H94.1191V113.75H76.9697ZM34.2987 78.7499V61.2499H42.8736V43.7499H34.2987V26.2498H42.8736V8.75021H51.2459V26.2498H59.8204V43.7499H68.3953V52.4997H59.8204V78.7499H34.2987Z" fill="white"/>
</svg>
