<svg width="1450" height="840" viewBox="0 0 1450 840" fill="none" xmlns="http://www.w3.org/2000/svg">
<g opacity="0.1">
<path d="M1449.73 806.739V60.8042L1403.73 20.3316H512.994L486.717 0.146606H54.2028L0 54.8674V791.626L25.7362 820.988H402.399L436.339 839.985H1422.34L1449.73 806.739Z" fill="#6DF2CC"/>
</g>
<path d="M498.761 0.146587L517.955 12.6651H1396.66L1384.98 0L498.761 0.146587Z" fill="#6DF2CC"/>
<path d="M485.892 2.96083L511.493 22.6327L512.169 23.1458H1402.81L1447.15 62.1378V805.669L1421.2 837.185H436.975L403.588 818.496L403.034 818.188H26.8446L2.58173 790.498V56.0838L55.2166 2.96083H485.879M486.703 0.146362H54.2028L0 54.8672V791.626L25.7362 821.002H402.399L436.339 840H1422.34L1449.73 806.754V60.8039L1403.73 20.3313H512.994L486.703 0.146362Z" fill="#6DF2CC"/>
<path d="M83.3995 826.529H401.669L427.216 839.985H96.538L83.3995 826.529Z" fill="#6DF2CC"/>
<path d="M90.6986 839.985H78.2901L65.7058 826.529H78.1143L90.6986 839.985Z" fill="#6DF2CC"/>
<path d="M73.2753 839.985H60.8668L48.269 826.529H60.6776L73.2753 839.985Z" fill="#6DF2CC"/>
<path d="M26.9527 0.146362H47.9986L0 48.5346V26.7665L26.9527 0.146362Z" fill="#6DF2CC"/>
<path opacity="0.1" d="M1448.62 86.9259L1431.66 105.337V826.924L1450 807.033L1448.62 86.9259Z" fill="#6DF2CC"/>
<path d="M1447.16 776.264L1389.13 839.194H1422.34L1449.73 806.739L1447.16 776.264Z" fill="#6DF2CC"/>
<path opacity="0.1" d="M0 791.626H251.293L277.435 819.962H25.7362L0 791.626Z" fill="#6DF2CC"/>
<g filter="url(#filter0_d_329_2652)">
<path d="M361.162 21.035H63.8279V50.035H361.162V21.035Z" stroke="#6DF2CC" stroke-width="2.016" stroke-miterlimit="10"/>
</g>
<path d="M166.79 24.0934L155.511 46.405H166.137L177.416 24.0934H166.79Z" fill="#6DF2CC"/>
<path d="M151.427 24.0934L140.154 46.405H150.78L162.053 24.0934H151.427Z" fill="#6DF2CC"/>
<path d="M136.07 24.0934L124.79 46.405H135.416L146.696 24.0934H136.07Z" fill="#6DF2CC"/>
<path d="M182.147 24.0934L170.874 46.405H181.5L192.779 24.0934H182.147Z" fill="#6DF2CC"/>
<path d="M197.51 24.0934L186.231 46.405H196.863L208.137 24.0934H197.51Z" fill="#6DF2CC"/>
<path d="M120.707 24.0934L109.433 46.405H120.059L131.333 24.0934H120.707Z" fill="#6DF2CC"/>
<path d="M74.6233 24.0934L67.2405 38.7024V46.405H73.9759L85.2556 24.0934H74.6233Z" fill="#6DF2CC"/>
<path d="M89.9864 24.0934L78.7068 46.405H89.339L100.612 24.0934H89.9864Z" fill="#6DF2CC"/>
<path d="M105.35 24.0934L94.0701 46.405H104.696L115.976 24.0934H105.35Z" fill="#6DF2CC"/>
<path d="M228.231 24.0934L216.958 46.405H227.584L238.857 24.0934H228.231Z" fill="#6DF2CC"/>
<path opacity="0.45" d="M305.035 24.0934L293.755 46.405H304.387L315.661 24.0934H305.035Z" fill="#6DF2CC"/>
<path opacity="0.45" d="M320.392 24.0934L309.118 46.405H319.744L331.024 24.0934H320.392Z" fill="#6DF2CC"/>
<path opacity="0.45" d="M335.755 24.0934L324.475 46.405H335.107L346.381 24.0934H335.755Z" fill="#6DF2CC"/>
<path d="M212.868 24.0934L201.594 46.405H212.22L223.5 24.0934H212.868Z" fill="#6DF2CC"/>
<path opacity="0.45" d="M357.853 24.0934H351.118L339.838 46.405H350.464L357.853 31.796V24.0934Z" fill="#6DF2CC"/>
<path opacity="0.45" d="M258.951 24.0934L247.678 46.405H258.304L269.577 24.0934H258.951Z" fill="#6DF2CC"/>
<path opacity="0.45" d="M243.594 24.0934L232.314 46.405H242.94L254.22 24.0934H243.594Z" fill="#6DF2CC"/>
<path opacity="0.45" d="M289.671 24.0934L278.398 46.405H289.024L300.297 24.0934H289.671Z" fill="#6DF2CC"/>
<path opacity="0.45" d="M274.314 24.0934L263.035 46.405H273.661L284.94 24.0934H274.314Z" fill="#6DF2CC"/>
<g clip-path="url(#clip0_329_2652)">
<path d="M1340.9 715.6H1352.68V683.744H1340.9V715.6Z" fill="#6DF2CC"/>
<path d="M1362.22 715.6H1374V683.744H1362.22V715.6Z" fill="#6DF2CC"/>
<path opacity="0.8" d="M1319.93 715.6H1331.7V683.744H1319.93V715.6Z" fill="#6DF2CC"/>
<path opacity="0.6" d="M1298.95 715.6H1310.73V683.744H1298.95V715.6Z" fill="#6DF2CC"/>
<path opacity="0.4" d="M1277.98 715.6H1289.76V683.744H1277.98V715.6Z" fill="#6DF2CC"/>
<path opacity="0.2" d="M1257 715.6H1268.78V683.744H1257V715.6Z" fill="#6DF2CC"/>
<path d="M1362.22 624.841H1374V592.985H1362.22V624.841Z" fill="#6DF2CC"/>
<path opacity="0.8" d="M1341.25 624.841H1353.03V592.985H1341.25V624.841Z" fill="#6DF2CC"/>
<path opacity="0.6" d="M1320.28 624.841H1332.06V592.985H1320.28V624.841Z" fill="#6DF2CC"/>
<path opacity="0.4" d="M1299.31 624.841H1311.09V592.985H1299.31V624.841Z" fill="#6DF2CC"/>
<path opacity="0.2" d="M1278.32 624.841H1290.1V592.985H1278.32V624.841Z" fill="#6DF2CC"/>
<path d="M1362.22 670.215H1374V638.359H1362.22V670.215Z" fill="#6DF2CC"/>
<path opacity="0.6" d="M1341.25 670.215H1353.03V638.359H1341.25V670.215Z" fill="#6DF2CC"/>
<path opacity="0.3" d="M1320.28 670.215H1332.06V638.359H1320.28V670.215Z" fill="#6DF2CC"/>
<path opacity="0.15" d="M1299.31 670.215H1311.09V638.359H1299.31V670.215Z" fill="#6DF2CC"/>
<path d="M1362.22 579.456H1374V547.6H1362.22V579.456Z" fill="#6DF2CC"/>
<path opacity="0.45" d="M1341.25 579.456H1353.03V547.6H1341.25V579.456Z" fill="#6DF2CC"/>
<path opacity="0.15" d="M1320.28 579.456H1332.06V547.6H1320.28V579.456Z" fill="#6DF2CC"/>
</g>
<path d="M57.2053 652.6H51.0027H44.8V658.803V665.005V671.236H51.0027V665.005V658.803H57.2053H63.4362V652.6H57.2053Z" fill="#6DF2CC"/>
<path d="M96.3948 652.6H102.597H108.8V658.803V665.005V671.236H102.597V665.005V658.803H96.3948H90.1639V652.6H96.3948Z" fill="#6DF2CC"/>
<path d="M96.3948 716.6H102.597H108.8V710.397V704.195V697.964H102.597V704.195V710.397H96.3948H90.1639V716.6H96.3948Z" fill="#6DF2CC"/>
<path d="M57.2053 716.6H51.0027H44.8V710.397V704.195V697.964H51.0027V704.195V710.397H57.2053H63.4362V716.6H57.2053Z" fill="#6DF2CC"/>
<defs>
<filter id="filter0_d_329_2652" x="54.4828" y="11.69" width="316.024" height="47.6901" filterUnits="userSpaceOnUse" color-interpolation-filters="sRGB">
<feFlood flood-opacity="0" result="BackgroundImageFix"/>
<feColorMatrix in="SourceAlpha" type="matrix" values="0 0 0 0 0 0 0 0 0 0 0 0 0 0 0 0 0 0 127 0" result="hardAlpha"/>
<feOffset/>
<feGaussianBlur stdDeviation="4.1685"/>
<feColorMatrix type="matrix" values="0 0 0 0 0.403922 0 0 0 0 0.905882 0 0 0 0 0.545098 0 0 0 0.45 0"/>
<feBlend mode="normal" in2="BackgroundImageFix" result="effect1_dropShadow_329_2652"/>
<feBlend mode="normal" in="SourceGraphic" in2="effect1_dropShadow_329_2652" result="shape"/>
</filter>
<clipPath id="clip0_329_2652">
<rect width="117" height="168" fill="white" transform="translate(1257 547.6)"/>
</clipPath>
</defs>
</svg>
