<svg width="484" height="726" viewBox="0 0 484 726" fill="none" xmlns="http://www.w3.org/2000/svg">
<path fill-rule="evenodd" clip-rule="evenodd" d="M0 0H484V726H0V0ZM27 94.0177H237.049V357.726H27V94.0177ZM457.188 94.0177H247.139V357.726H457.188V94.0177ZM27 368.274H237.049V631.982H27V368.274ZM457.188 368.274H247.139V631.982H457.188V368.274Z" fill="white"/>
<path d="M219.117 668V669.376H220.493V674.88H221.869V676.256H220.493V683.136H219.117V685.888H221.869V687.264H220.493V694.143H219.117V695.519H225.997V694.143H224.621V687.264H225.997V685.888H223.245V683.136H224.621V676.256H225.997V674.88H224.621V669.376H225.997V668H219.117Z" fill="#160E26"/>
<path d="M266.439 680.384H263.687V681.76H262.311V683.136H260.935V684.512H266.439V683.136H267.815V681.76H269.191V679.008H270.567V674.88H271.943V673.504H270.567V670.752H271.943V669.376H270.567V668H256.807V669.376H258.183V670.752H266.439V673.504H258.183V674.88H256.807V676.256H266.439V680.384Z" fill="#160E26"/>
<path d="M236.042 691.391V687.264H237.418V685.888H236.042V683.136H234.666V681.76H236.042V674.88H237.418V672.128H236.042V669.376H237.418V668H230.538V669.376H231.914V672.128H233.29V674.88H231.914V681.76H230.538V683.136H231.914V685.888H233.29V687.264H231.914V695.519H240.17V691.391H236.042Z" fill="#160E26"/>
<path d="M242.922 668V672.128H244.298V674.88H242.922V679.008H237.418V680.384H238.794V683.136H242.922V685.888H244.298V687.264H242.922V695.519H247.05V687.264H248.426V685.888H247.05V680.384H245.674V679.008H247.05V674.88H248.426V672.128H247.05V669.376H248.426V668H242.922Z" fill="#160E26"/>
<path d="M280.198 669.376H281.574V668H276.071V672.128H277.446V674.88H273.319V677.632H277.446V679.008H276.071V683.136H280.198V679.008H281.574V677.632H280.198V674.88H281.574V672.128H280.198V669.376Z" fill="#160E26"/>
<path d="M280.198 691.392H276.071V690.016H277.447V688.64H276.071V685.888H273.319V684.512H270.567V687.264H267.815V688.64H266.439V690.016H263.687V692.767H262.311V695.519H266.439V694.143H267.815V692.767H269.191V691.392H267.815V690.016H271.943V691.392H274.695V692.767H276.071L276.071 694.143H277.447V695.519H281.575V692.767H280.199L280.198 691.392Z" fill="#160E26"/>
<path d="M249.802 668V672.128H251.178V674.88H249.802V685.888H251.178V687.264H249.802V695.519H253.93V687.264H255.306V685.888H253.93V680.384H252.554V679.008H253.93V674.88H255.306V672.128H253.93V669.376H255.306V668H249.802Z" fill="#160E26"/>
<path d="M215.296 685.888V684.512V683.136H216.672V674.88H215.296V672.128H213.92V669.376H212.544V668H208.416V669.376H207.073V672.128H205.697V674.88H207.072V676.256H204.321V683.136H202.945V685.888H205.697V687.263H204.321V694.143H202.945V695.519H209.824V694.143H208.448V687.264H209.824V685.888H207.073V683.136H208.448V681.76H212.544V683.136H211.168V685.888H213.92V687.264H212.544V694.143H211.168V695.519H218.048V694.143H216.672V687.264H218.048V685.888H215.296ZM208.448 680.384V677.632H209.824V674.88H208.448V672.128H209.824V669.376H211.168V672.128H212.544V674.88H213.92V676.256H212.544V680.384H208.448Z" fill="#160E26"/>
<path d="M164.457 33H163.253H162.05H160.847H159.643H158.44H157.237V34.1286V35.2572H156.033V36.3858V37.5144V38.643H157.237V39.7716H156.033V40.9002V42.0288V43.1574V44.286V45.4146H154.83V46.5432V47.6718H156.033H157.237V48.8004H156.033V49.929V51.0576V52.1862V53.3148H157.237V54.4434V55.572H158.44H159.643H160.847H162.05H163.253H164.457V54.4434H165.66V53.3148V52.1862V51.0576H164.457V52.1862H163.253V53.3148V54.4434H162.05H160.847V53.3148V52.1862H159.643V51.0576V49.929V48.8004H160.847V47.6718H159.643H158.44V46.5432V45.4146H159.643H160.847H162.05H163.253V44.286H164.457V43.1574H163.253H162.05H160.847H159.643V42.0288V40.9002V39.7716H160.847V38.643H159.643V37.5144V36.3858H160.847V35.2572V34.1286H162.05H163.253V35.2572V36.3858H164.457V37.5144H165.66V36.3858V35.2572V34.1286H164.457V33Z" fill="#9E63E6"/>
<path d="M175.287 33H174.083H172.88H171.677H170.473H169.27H168.067V34.1286H169.27H170.473H171.677H172.88V35.2572V36.3858V37.5144V38.643H174.083V39.7716H172.88V40.9002V42.0288V43.1574V44.286V45.4146H171.677V46.5432V47.6718H172.88H174.083V48.8004H172.88V49.929V51.0576V52.1862V53.3148V54.4434H171.677H170.473V53.3148V52.1862H169.27V51.0576V49.929V48.8004H168.067H166.863V49.929V51.0576V52.1862H168.067V53.3148V54.4434H169.27V55.572H170.473H171.677H172.88H174.083V54.4434H175.287V53.3148H176.49V52.1862V51.0576V49.929V48.8004H177.693V47.6718H176.49H175.287V46.5432V45.4146H176.49V44.286V43.1574V42.0288V40.9002V39.7716H177.693V38.643H176.49V37.5144V36.3858V35.2572V34.1286H177.693V33H176.49H175.287Z" fill="#9E63E6"/>
<path d="M189.727 33H188.523H187.32H186.117V34.1286H187.32V35.2572V36.3858V37.5144V38.643H188.523V39.7716H187.32V40.9002V42.0288V43.1574V44.286V45.4146H186.117V46.5432V47.6718H187.32H188.523V48.8004H187.32V49.929V51.0576V52.1862V53.3148V54.4434H188.523H189.727V53.3148H190.93V52.1862V51.0576V49.929V48.8004H192.133V47.6718H190.93H189.727V46.5432V45.4146H190.93V44.286V43.1574V42.0288V40.9002V39.7716H192.133V38.643H190.93V37.5144V36.3858V35.2572V34.1286H192.133V33H190.93H189.727Z" fill="#9E63E6"/>
<path d="M213.793 33H212.59H211.387H210.183V34.1286H211.387V35.2572V36.3858V37.5144V38.643H212.59V39.7716H211.387V40.9002V42.0288V43.1574V44.286V45.4146H210.183V46.5432V47.6718H211.387H212.59V48.8004H211.387V49.929V51.0576V52.1862V53.3148V54.4434H210.183V55.572H211.387H212.59H213.793H214.997H216.2V54.4434H214.997V53.3148V52.1862V51.0576V49.929V48.8004H216.2V47.6718H214.997H213.793V46.5432V45.4146H214.997V44.286V43.1574V42.0288V40.9002V39.7716H216.2V38.643H214.997V37.5144V36.3858V35.2572V34.1286H216.2V33H214.997H213.793Z" fill="#9E63E6"/>
<path d="M239.064 34.1286H240.267V33H239.064H237.86H236.657V34.1286H237.86H239.064Z" fill="#9E63E6"/>
<path d="M277.57 33H276.367H275.164H273.96H272.757H271.554H270.35V34.1286V35.2572H269.147V36.3858V37.5144V38.643H270.35V39.7716H269.147V40.9002V42.0288V43.1574V44.286V45.4146H267.944V46.5432V47.6718H269.147H270.35V48.8004H269.147V49.929V51.0576V52.1862V53.3148H270.35V54.4434V55.572H271.554H272.757H273.96H275.164H276.367H277.57V54.4434H278.774V53.3148V52.1862V51.0576H277.57V52.1862H276.367V53.3148V54.4434H275.164H273.96V53.3148V52.1862H272.757V51.0576V49.929V48.8004H273.96V47.6718H272.757H271.554V46.5432V45.4146H272.757H273.96H275.164H276.367V44.286H277.57V43.1574H276.367H275.164H273.96H272.757V42.0288V40.9002V39.7716H273.96V38.643H272.757V37.5144V36.3858H273.96V35.2572V34.1286H275.164H276.367V35.2572V36.3858H277.57V37.5144H278.774V36.3858V35.2572V34.1286H277.57V33Z" fill="#9E63E6"/>
<path d="M337.737 34.1286V33H336.534H335.33H334.127H332.924H331.72H330.517V34.1286V35.2572H329.314V36.3858V37.5144V38.643H330.517V39.7716H329.314V40.9002V42.0288V43.1574V44.286V45.4146H328.11V46.5432V47.6718H329.314H330.517V48.8004H329.314V49.929V51.0576V52.1862V53.3148H330.517V54.4434V55.572H331.72H332.924H334.127H335.33H336.534H337.737V54.4434H338.94V53.3148V52.1862V51.0576H337.737V52.1862H336.534V53.3148V54.4434H335.33H334.127V53.3148V52.1862H332.924V51.0576V49.929V48.8004H334.127V47.6718H332.924H331.72V46.5432V45.4146H332.924H334.127H335.33H336.534V44.286H337.737V43.1574H336.534H335.33H334.127H332.924V42.0288V40.9002V39.7716H334.127V38.643H332.924V37.5144V36.3858H334.127V35.2572V34.1286H335.33H336.534V35.2572V36.3858H337.737V37.5144H338.94V36.3858V35.2572V34.1286H337.737Z" fill="#9E63E6"/>
<path d="M267.944 37.5144V36.3858V35.2572V34.1286H266.74V33H265.537H264.334H263.13H261.927H260.724H259.52V34.1286V35.2572H258.317V36.3858V37.5144V38.643H259.52V39.7716H258.317V40.9002V42.0288V43.1574H257.114V44.286V45.4146V46.5432V47.6718H258.317H259.52V48.8004H258.317V49.929V51.0576V52.1862V53.3148V54.4434H257.114V55.572H258.317H259.52H260.724H261.927H263.13H264.334V54.4434H263.13H261.927V53.3148V52.1862V51.0576V49.929V48.8004H263.13V47.6718H261.927H260.724V46.5432V45.4146H261.927H263.13H264.334H265.537V44.286H266.74V43.1574H265.537H264.334H263.13H261.927V42.0288V40.9002V39.7716H263.13V38.643H261.927V37.5144V36.3858H263.13V35.2572V34.1286H264.334H265.537V35.2572V36.3858H266.74V37.5144H267.944Z" fill="#9E63E6"/>
<path d="M231.844 38.643V37.5144V36.3858H230.64V35.2572V34.1286H229.437V33H228.234H227.03H225.827H224.624V34.1286H223.42V35.2572H222.217V36.3858V37.5144H221.014V38.643H222.217V39.7716H221.014V40.9002V42.0288V43.1574V44.286V45.4146H219.81V46.5432V47.6718H221.014H222.217V48.8004H221.014V49.929V51.0576H222.217V52.1862V53.3148H223.42V54.4434H224.624V55.572H225.827H227.03H228.234H229.437V54.4434H230.64V53.3148V52.1862H231.844V51.0576V49.929V48.8004H230.64H229.437V49.929V51.0576V52.1862H228.234V53.3148V54.4434H227.03H225.827V53.3148V52.1862H224.624V51.0576V49.929V48.8004H225.827V47.6718H224.624H223.42V46.5432V45.4146H224.624V44.286V43.1574V42.0288V40.9002V39.7716H225.827V38.643H224.624V37.5144V36.3858H225.827V35.2572V34.1286H227.03H228.234V35.2572V36.3858H229.437V37.5144V38.643H230.64V39.7716H231.844H233.047V38.643H231.844Z" fill="#9E63E6"/>
<path d="M328.11 38.643V37.5144V36.3858H326.907V35.2572V34.1286H325.704V33H324.5H323.297H322.094H320.89V34.1286H319.687V35.2572H318.484V36.3858V37.5144H317.28V38.643H318.484V39.7716H317.28V40.9002V42.0288V43.1574V44.286V45.4146H316.077V46.5432V47.6718H314.874V46.5432V45.4146H316.077V44.286V43.1574V42.0288V40.9002V39.7716H317.28V38.643H316.077V37.5144V36.3858V35.2572V34.1286H314.874V33H313.67V34.1286H312.467V35.2572V36.3858V37.5144V38.643H313.67V39.7716H312.467V40.9002V42.0288V43.1574V44.286V45.4146H311.264V46.5432H310.06V47.6718H311.264H312.467V48.8004H311.264V49.929V51.0576H312.467V52.1862V53.3148V54.4434H313.67V55.572H314.874V54.4434H316.077V53.3148V52.1862V51.0576V49.929V48.8004H317.28V47.6718H318.484V48.8004H317.28V49.929V51.0576H318.484V52.1862V53.3148H319.687V54.4434H320.89V55.572H322.094H323.297H324.5H325.704V54.4434H326.907V53.3148V52.1862H328.11V51.0576V49.929V48.8004H326.907H325.704V49.929V51.0576V52.1862H324.5V53.3148V54.4434H323.297H322.094V53.3148V52.1862H320.89V51.0576V49.929V48.8004H322.094V47.6718H320.89H319.687V46.5432V45.4146H320.89V44.286V43.1574V42.0288V40.9002V39.7716H322.094V38.643H320.89V37.5144V36.3858H322.094V35.2572V34.1286H323.297H324.5V35.2572V36.3858H325.704V37.5144V38.643H326.907V39.7716H328.11H329.314V38.643H328.11Z" fill="#9E63E6"/>
<path d="M249.894 44.286V45.4146H251.097V44.286V43.1574V42.0288H249.894V43.1574V44.286Z" fill="#9E63E6"/>
<path d="M310.06 44.286V45.4146H311.264V44.286V43.1574V42.0288H310.06V43.1574V44.286Z" fill="#9E63E6"/>
<path d="M249.894 45.4147H248.69V46.5433H249.894V45.4147Z" fill="#9E63E6"/>
<path d="M310.06 45.4147H308.857V46.5433H310.06V45.4147Z" fill="#9E63E6"/>
<path d="M152.423 47.6718V46.5432V45.4146H153.627V44.286V43.1574V42.0288V40.9002V39.7716H154.83V38.643H153.627V37.5144V36.3858V35.2572V34.1286H154.83V33H153.627H152.423H151.22H150.017H148.813H147.61H146.407H145.203V34.1286H146.407H147.61H148.813H150.017V35.2572V36.3858V37.5144V38.643H151.22V39.7716H150.017V40.9002V42.0288V43.1574V44.286V45.4146H148.813V46.5432V47.6718H150.017H151.22V48.8004H150.017V49.929V51.0576V52.1862V53.3148V54.4434H148.813H147.61V53.3148V52.1862H146.407V51.0576V49.929V48.8004H145.203H144V49.929V51.0576V52.1862H145.203V53.3148V54.4434H146.407V55.572H147.61H148.813H150.017H151.22V54.4434H152.423V53.3148H153.627V52.1862V51.0576V49.929V48.8004H154.83V47.6718H153.627H152.423Z" fill="#9E63E6"/>
<path d="M206.573 47.6718V45.4146H207.777V38.643H206.573V36.3858H205.37V34.1286H204.167V33H200.557V34.1286H199.353V36.3858H198.15V38.643H199.353V39.7716H196.947V45.4146H195.743V47.6718H198.15V48.8004H196.947V54.4434H195.743V55.572H201.76V54.4434H200.557V48.8004H201.76V47.6718H199.353V45.4146H200.557V44.286H204.167V45.4146H202.963V47.6718H205.37V48.8004H204.167V54.4434H202.963V55.572H208.98V54.4434H207.777V48.8004H208.98V47.6718H206.573ZM202.963 43.1574H200.557V39.7716H201.76V38.643H200.557V36.3858H201.76V34.1286H202.963V36.3858H204.167V38.643H205.37V39.7716H204.167V43.1574H202.963Z" fill="#9E63E6"/>
<path d="M247.487 47.6718V46.5432V45.4146H248.69V44.286V43.1574V42.0288H249.893V40.9002V39.7716H251.097V38.643H249.893V37.5144H248.69V36.3858V35.2572V34.1286H247.487V33H246.283V34.1286H245.08V35.2572V36.3858V37.5144V38.643H246.283V39.7716H245.08V40.9002V42.0288V43.1574V44.286V45.4146H243.877V46.5432V47.6718H242.673V46.5432V45.4146H243.877V44.286V43.1574V42.0288V40.9002V39.7716H245.08V38.643H243.877V37.5144V36.3858H242.673V35.2572V34.1286H241.47H240.267V35.2572V36.3858V37.5144V38.643H241.47V39.7716H240.267V40.9002V42.0288V43.1574V44.286V45.4146H239.063V46.5432V47.6718H240.267H241.47V48.8004H240.267V49.929V51.0576V52.1862V53.3148V54.4434H241.47H242.673V53.3148H243.877V52.1862V51.0576V49.929V48.8004H245.08V47.6718H246.283V48.8004H245.08V49.929V51.0576V52.1862V53.3148V54.4434H246.283V55.572H247.487V54.4434H248.69V53.3148V52.1862V51.0576V49.929V48.8004H249.893V47.6718H248.69H247.487Z" fill="#9E63E6"/>
<path d="M254.707 47.6718V46.5432V45.4146H255.91V44.286V43.1574V42.0288V40.9002V39.7716H257.114V38.643H255.91V37.5144V36.3858V35.2572V34.1286H254.707V33H253.504V34.1286H252.3V35.2572V36.3858V37.5144V38.643H253.504V39.7716H252.3V40.9002V42.0288V43.1574V44.286V45.4146H251.097V46.5432H249.894V47.6718H251.097H252.3V48.8004H251.097V49.929V51.0576H252.3V52.1862V53.3148V54.4434H253.504V55.572H254.707V54.4434H255.91V53.3148V52.1862V51.0576V49.929V48.8004H257.114V47.6718H255.91H254.707Z" fill="#9E63E6"/>
<path d="M290.807 47.6718V46.5432H289.604V43.1574H290.807V42.0288H292.01V39.7716H293.214V38.643H292.01V35.2572H290.807V34.1286H289.604V33H282.384V34.1286H281.18V38.643H282.384V39.7716H281.18V45.4146H279.977V47.6718H282.384V48.8004H281.18V54.4434H279.977V55.572H285.994V54.4434H284.79V48.8004H285.994V47.6718H283.587V45.4146H285.994V46.5432H287.197V47.6718H289.604V48.8004H288.4V54.4434H287.197V55.572H293.214V54.4434H292.01V48.8004H293.214V47.6718H290.807ZM287.197 34.1286V35.2572H288.4V36.3858H289.604V38.643H290.807V39.7716H289.604V40.9002H288.4V42.0288H287.197V43.1574H284.79V39.7716H285.994V38.643H284.79V35.2572H285.994V34.1286H287.197Z" fill="#9E63E6"/>
<path d="M307.654 47.6718V46.5432V45.4146H308.857V44.286V43.1574V42.0288H310.06V40.9002V39.7716H311.264V38.643H310.06V37.5144H308.857V36.3858V35.2572V34.1286H307.654V33H306.45V34.1286H305.247V35.2572V36.3858V37.5144V38.643H306.45V39.7716H305.247V40.9002V42.0288V43.1574V44.286V45.4146H304.044V46.5432V47.6718H305.247H306.45V48.8004H305.247V49.929V51.0576V52.1862V53.3148V54.4434H306.45V55.572H307.654V54.4434H308.857V53.3148V52.1862V51.0576V49.929V48.8004H310.06V47.6718H308.857H307.654Z" fill="#9E63E6"/>
<path d="M302.84 52.1862H301.637V53.3148V54.4434H300.434H299.23V53.3148V52.1862H298.027V51.0576V49.929V48.8004H299.23V47.6718H298.027H296.824V46.5432V45.4146H298.027H299.23H300.434H301.637V44.286H302.84V43.1574H301.637H300.434H299.23H298.027V42.0288V40.9002V39.7716H299.23V38.643H298.027V37.5144V36.3858H299.23V35.2572V34.1286H300.434H301.637V35.2572V36.3858H302.84V37.5144H304.044V36.3858V35.2572V34.1286H302.84V33H301.637H300.434H299.23H298.027H296.824H295.62V34.1286V35.2572H294.417V36.3858V37.5144V38.643H295.62V39.7716H294.417V40.9002V42.0288V43.1574V44.286V45.4146H293.214V46.5432V47.6718H294.417H295.62V48.8004H294.417V49.929V51.0576V52.1862V53.3148H295.62V54.4434V55.572H296.824H298.027H299.23H300.434H301.637H302.84V54.4434H304.044V53.3148V52.1862V51.0576H302.84V52.1862Z" fill="#9E63E6"/>
<path d="M183.71 52.1862V51.0576V49.929V48.8004H184.913V47.6718H183.71H182.507V46.5432V45.4146H183.71V44.286V43.1574V42.0288V40.9002V39.7716H184.913V38.643H183.71V37.5144V36.3858V35.2572V34.1286H184.913V33H183.71H182.507H181.303H180.1H178.897V34.1286H180.1V35.2572V36.3858V37.5144V38.643H181.303V39.7716H180.1V40.9002V42.0288V43.1574V44.286V45.4146H178.897V46.5432V47.6718H180.1H181.303V48.8004H180.1V49.929V51.0576V52.1862V53.3148H181.303V54.4434H182.507H183.71V53.3148V52.1862Z" fill="#9E63E6"/>
<path d="M236.657 52.1863V51.0577V49.9291V48.8005H237.86V47.6719H236.657H235.454V46.5433V45.4147H236.657V44.2861V43.1575V42.0289V40.9003V39.7717H237.86V38.6431H236.657V37.5145V36.3859V35.2573V34.1287H235.454H234.25V35.2573V36.3859H233.047V37.5145V38.6431H234.25V39.7717H233.047V40.9003V42.0289V43.1575V44.2861V45.4147H231.844V46.5433V47.6719H233.047H234.25V48.8005H233.047V49.9291V51.0577V52.1863V53.3149H234.25V54.4435H235.454H236.657V53.3149V52.1863Z" fill="#9E63E6"/>
<path d="M184.913 54.4435H183.71V55.5721H184.913H186.117H187.32V54.4435H186.117H184.913Z" fill="#9E63E6"/>
<path d="M237.86 54.4435H236.657V55.5721H237.86H239.064H240.267V54.4435H239.064H237.86Z" fill="#9E63E6"/>
<path d="M165.312 33H164.108H162.905H161.702H160.498H159.295H158.092V34.1286V35.2572H156.888V36.3858V37.5144V38.643H158.092V39.7716H156.888V40.9002V42.0288V43.1574V44.286V45.4146H155.685V46.5432V47.6718H156.888H158.092V48.8004H156.888V49.929V51.0576V52.1862V53.3148H158.092V54.4434V55.572H159.295H160.498H161.702H162.905H164.108H165.312V54.4434H166.515V53.3148V52.1862V51.0576H165.312V52.1862H164.108V53.3148V54.4434H162.905H161.702V53.3148V52.1862H160.498V51.0576V49.929V48.8004H161.702V47.6718H160.498H159.295V46.5432V45.4146H160.498H161.702H162.905H164.108V44.286H165.312V43.1574H164.108H162.905H161.702H160.498V42.0288V40.9002V39.7716H161.702V38.643H160.498V37.5144V36.3858H161.702V35.2572V34.1286H162.905H164.108V35.2572V36.3858H165.312V37.5144H166.515V36.3858V35.2572V34.1286H165.312V33Z" fill="#63E679"/>
<path d="M176.142 33H174.938H173.735H172.532H171.328H170.125H168.922V34.1286H170.125H171.328H172.532H173.735V35.2572V36.3858V37.5144V38.643H174.938V39.7716H173.735V40.9002V42.0288V43.1574V44.286V45.4146H172.532V46.5432V47.6718H173.735H174.938V48.8004H173.735V49.929V51.0576V52.1862V53.3148V54.4434H172.532H171.328V53.3148V52.1862H170.125V51.0576V49.929V48.8004H168.922H167.718V49.929V51.0576V52.1862H168.922V53.3148V54.4434H170.125V55.572H171.328H172.532H173.735H174.938V54.4434H176.142V53.3148H177.345V52.1862V51.0576V49.929V48.8004H178.548V47.6718H177.345H176.142V46.5432V45.4146H177.345V44.286V43.1574V42.0288V40.9002V39.7716H178.548V38.643H177.345V37.5144V36.3858V35.2572V34.1286H178.548V33H177.345H176.142Z" fill="#63E679"/>
<path d="M190.582 33H189.378H188.175H186.972V34.1286H188.175V35.2572V36.3858V37.5144V38.643H189.378V39.7716H188.175V40.9002V42.0288V43.1574V44.286V45.4146H186.972V46.5432V47.6718H188.175H189.378V48.8004H188.175V49.929V51.0576V52.1862V53.3148V54.4434H189.378H190.582V53.3148H191.785V52.1862V51.0576V49.929V48.8004H192.988V47.6718H191.785H190.582V46.5432V45.4146H191.785V44.286V43.1574V42.0288V40.9002V39.7716H192.988V38.643H191.785V37.5144V36.3858V35.2572V34.1286H192.988V33H191.785H190.582Z" fill="#63E679"/>
<path d="M214.648 33H213.445H212.242H211.038V34.1286H212.242V35.2572V36.3858V37.5144V38.643H213.445V39.7716H212.242V40.9002V42.0288V43.1574V44.286V45.4146H211.038V46.5432V47.6718H212.242H213.445V48.8004H212.242V49.929V51.0576V52.1862V53.3148V54.4434H211.038V55.572H212.242H213.445H214.648H215.852H217.055V54.4434H215.852V53.3148V52.1862V51.0576V49.929V48.8004H217.055V47.6718H215.852H214.648V46.5432V45.4146H215.852V44.286V43.1574V42.0288V40.9002V39.7716H217.055V38.643H215.852V37.5144V36.3858V35.2572V34.1286H217.055V33H215.852H214.648Z" fill="#63E679"/>
<path d="M239.919 34.1286H241.122V33H239.919H238.715H237.512V34.1286H238.715H239.919Z" fill="#63E679"/>
<path d="M278.425 33H277.222H276.019H274.815H273.612H272.409H271.205V34.1286V35.2572H270.002V36.3858V37.5144V38.643H271.205V39.7716H270.002V40.9002V42.0288V43.1574V44.286V45.4146H268.799V46.5432V47.6718H270.002H271.205V48.8004H270.002V49.929V51.0576V52.1862V53.3148H271.205V54.4434V55.572H272.409H273.612H274.815H276.019H277.222H278.425V54.4434H279.629V53.3148V52.1862V51.0576H278.425V52.1862H277.222V53.3148V54.4434H276.019H274.815V53.3148V52.1862H273.612V51.0576V49.929V48.8004H274.815V47.6718H273.612H272.409V46.5432V45.4146H273.612H274.815H276.019H277.222V44.286H278.425V43.1574H277.222H276.019H274.815H273.612V42.0288V40.9002V39.7716H274.815V38.643H273.612V37.5144V36.3858H274.815V35.2572V34.1286H276.019H277.222V35.2572V36.3858H278.425V37.5144H279.629V36.3858V35.2572V34.1286H278.425V33Z" fill="#63E679"/>
<path d="M338.592 34.1286V33H337.389H336.185H334.982H333.779H332.575H331.372V34.1286V35.2572H330.169V36.3858V37.5144V38.643H331.372V39.7716H330.169V40.9002V42.0288V43.1574V44.286V45.4146H328.965V46.5432V47.6718H330.169H331.372V48.8004H330.169V49.929V51.0576V52.1862V53.3148H331.372V54.4434V55.572H332.575H333.779H334.982H336.185H337.389H338.592V54.4434H339.795V53.3148V52.1862V51.0576H338.592V52.1862H337.389V53.3148V54.4434H336.185H334.982V53.3148V52.1862H333.779V51.0576V49.929V48.8004H334.982V47.6718H333.779H332.575V46.5432V45.4146H333.779H334.982H336.185H337.389V44.286H338.592V43.1574H337.389H336.185H334.982H333.779V42.0288V40.9002V39.7716H334.982V38.643H333.779V37.5144V36.3858H334.982V35.2572V34.1286H336.185H337.389V35.2572V36.3858H338.592V37.5144H339.795V36.3858V35.2572V34.1286H338.592Z" fill="#63E679"/>
<path d="M268.799 37.5144V36.3858V35.2572V34.1286H267.595V33H266.392H265.189H263.985H262.782H261.579H260.375V34.1286V35.2572H259.172V36.3858V37.5144V38.643H260.375V39.7716H259.172V40.9002V42.0288V43.1574H257.969V44.286V45.4146V46.5432V47.6718H259.172H260.375V48.8004H259.172V49.929V51.0576V52.1862V53.3148V54.4434H257.969V55.572H259.172H260.375H261.579H262.782H263.985H265.189V54.4434H263.985H262.782V53.3148V52.1862V51.0576V49.929V48.8004H263.985V47.6718H262.782H261.579V46.5432V45.4146H262.782H263.985H265.189H266.392V44.286H267.595V43.1574H266.392H265.189H263.985H262.782V42.0288V40.9002V39.7716H263.985V38.643H262.782V37.5144V36.3858H263.985V35.2572V34.1286H265.189H266.392V35.2572V36.3858H267.595V37.5144H268.799Z" fill="#63E679"/>
<path d="M232.699 38.643V37.5144V36.3858H231.495V35.2572V34.1286H230.292V33H229.089H227.885H226.682H225.479V34.1286H224.275V35.2572H223.072V36.3858V37.5144H221.868V38.643H223.072V39.7716H221.868V40.9002V42.0288V43.1574V44.286V45.4146H220.665V46.5432V47.6718H221.868H223.072V48.8004H221.868V49.929V51.0576H223.072V52.1862V53.3148H224.275V54.4434H225.479V55.572H226.682H227.885H229.089H230.292V54.4434H231.495V53.3148V52.1862H232.699V51.0576V49.929V48.8004H231.495H230.292V49.929V51.0576V52.1862H229.089V53.3148V54.4434H227.885H226.682V53.3148V52.1862H225.479V51.0576V49.929V48.8004H226.682V47.6718H225.479H224.275V46.5432V45.4146H225.479V44.286V43.1574V42.0288V40.9002V39.7716H226.682V38.643H225.479V37.5144V36.3858H226.682V35.2572V34.1286H227.885H229.089V35.2572V36.3858H230.292V37.5144V38.643H231.495V39.7716H232.699H233.902V38.643H232.699Z" fill="#63E679"/>
<path d="M328.965 38.643V37.5144V36.3858H327.762V35.2572V34.1286H326.559V33H325.355H324.152H322.949H321.745V34.1286H320.542V35.2572H319.339V36.3858V37.5144H318.135V38.643H319.339V39.7716H318.135V40.9002V42.0288V43.1574V44.286V45.4146H316.932V46.5432V47.6718H315.729V46.5432V45.4146H316.932V44.286V43.1574V42.0288V40.9002V39.7716H318.135V38.643H316.932V37.5144V36.3858V35.2572V34.1286H315.729V33H314.525V34.1286H313.322V35.2572V36.3858V37.5144V38.643H314.525V39.7716H313.322V40.9002V42.0288V43.1574V44.286V45.4146H312.119V46.5432H310.915V47.6718H312.119H313.322V48.8004H312.119V49.929V51.0576H313.322V52.1862V53.3148V54.4434H314.525V55.572H315.729V54.4434H316.932V53.3148V52.1862V51.0576V49.929V48.8004H318.135V47.6718H319.339V48.8004H318.135V49.929V51.0576H319.339V52.1862V53.3148H320.542V54.4434H321.745V55.572H322.949H324.152H325.355H326.559V54.4434H327.762V53.3148V52.1862H328.965V51.0576V49.929V48.8004H327.762H326.559V49.929V51.0576V52.1862H325.355V53.3148V54.4434H324.152H322.949V53.3148V52.1862H321.745V51.0576V49.929V48.8004H322.949V47.6718H321.745H320.542V46.5432V45.4146H321.745V44.286V43.1574V42.0288V40.9002V39.7716H322.949V38.643H321.745V37.5144V36.3858H322.949V35.2572V34.1286H324.152H325.355V35.2572V36.3858H326.559V37.5144V38.643H327.762V39.7716H328.965H330.169V38.643H328.965Z" fill="#63E679"/>
<path d="M250.749 44.286V45.4146H251.952V44.286V43.1574V42.0288H250.749V43.1574V44.286Z" fill="#63E679"/>
<path d="M310.915 44.286V45.4146H312.119V44.286V43.1574V42.0288H310.915V43.1574V44.286Z" fill="#63E679"/>
<path d="M250.749 45.4147H249.545V46.5433H250.749V45.4147Z" fill="#63E679"/>
<path d="M310.915 45.4147H309.712V46.5433H310.915V45.4147Z" fill="#63E679"/>
<path d="M153.278 47.6718V46.5432V45.4146H154.482V44.286V43.1574V42.0288V40.9002V39.7716H155.685V38.643H154.482V37.5144V36.3858V35.2572V34.1286H155.685V33H154.482H153.278H152.075H150.872H149.668H148.465H147.262H146.058V34.1286H147.262H148.465H149.668H150.872V35.2572V36.3858V37.5144V38.643H152.075V39.7716H150.872V40.9002V42.0288V43.1574V44.286V45.4146H149.668V46.5432V47.6718H150.872H152.075V48.8004H150.872V49.929V51.0576V52.1862V53.3148V54.4434H149.668H148.465V53.3148V52.1862H147.262V51.0576V49.929V48.8004H146.058H144.855V49.929V51.0576V52.1862H146.058V53.3148V54.4434H147.262V55.572H148.465H149.668H150.872H152.075V54.4434H153.278V53.3148H154.482V52.1862V51.0576V49.929V48.8004H155.685V47.6718H154.482H153.278Z" fill="#63E679"/>
<path d="M207.428 47.6718V45.4146H208.632V38.643H207.428V36.3858H206.225V34.1286H205.022V33H201.412V34.1286H200.208V36.3858H199.005V38.643H200.208V39.7716H197.802V45.4146H196.598V47.6718H199.005V48.8004H197.802V54.4434H196.598V55.572H202.615V54.4434H201.412V48.8004H202.615V47.6718H200.208V45.4146H201.412V44.286H205.022V45.4146H203.818V47.6718H206.225V48.8004H205.022V54.4434H203.818V55.572H209.835V54.4434H208.632V48.8004H209.835V47.6718H207.428ZM203.818 43.1574H201.412V39.7716H202.615V38.643H201.412V36.3858H202.615V34.1286H203.818V36.3858H205.022V38.643H206.225V39.7716H205.022V43.1574H203.818Z" fill="#63E679"/>
<path d="M248.342 47.6718V46.5432V45.4146H249.545V44.286V43.1574V42.0288H250.748V40.9002V39.7716H251.952V38.643H250.748V37.5144H249.545V36.3858V35.2572V34.1286H248.342V33H247.138V34.1286H245.935V35.2572V36.3858V37.5144V38.643H247.138V39.7716H245.935V40.9002V42.0288V43.1574V44.286V45.4146H244.732V46.5432V47.6718H243.528V46.5432V45.4146H244.732V44.286V43.1574V42.0288V40.9002V39.7716H245.935V38.643H244.732V37.5144V36.3858H243.528V35.2572V34.1286H242.325H241.122V35.2572V36.3858V37.5144V38.643H242.325V39.7716H241.122V40.9002V42.0288V43.1574V44.286V45.4146H239.918V46.5432V47.6718H241.122H242.325V48.8004H241.122V49.929V51.0576V52.1862V53.3148V54.4434H242.325H243.528V53.3148H244.732V52.1862V51.0576V49.929V48.8004H245.935V47.6718H247.138V48.8004H245.935V49.929V51.0576V52.1862V53.3148V54.4434H247.138V55.572H248.342V54.4434H249.545V53.3148V52.1862V51.0576V49.929V48.8004H250.748V47.6718H249.545H248.342Z" fill="#63E679"/>
<path d="M255.562 47.6718V46.5432V45.4146H256.765V44.286V43.1574V42.0288V40.9002V39.7716H257.969V38.643H256.765V37.5144V36.3858V35.2572V34.1286H255.562V33H254.359V34.1286H253.155V35.2572V36.3858V37.5144V38.643H254.359V39.7716H253.155V40.9002V42.0288V43.1574V44.286V45.4146H251.952V46.5432H250.749V47.6718H251.952H253.155V48.8004H251.952V49.929V51.0576H253.155V52.1862V53.3148V54.4434H254.359V55.572H255.562V54.4434H256.765V53.3148V52.1862V51.0576V49.929V48.8004H257.969V47.6718H256.765H255.562Z" fill="#63E679"/>
<path d="M291.662 47.6718V46.5432H290.459V43.1574H291.662V42.0288H292.865V39.7716H294.069V38.643H292.865V35.2572H291.662V34.1286H290.459V33H283.239V34.1286H282.035V38.643H283.239V39.7716H282.035V45.4146H280.832V47.6718H283.239V48.8004H282.035V54.4434H280.832V55.572H286.849V54.4434H285.645V48.8004H286.849V47.6718H284.442V45.4146H286.849V46.5432H288.052V47.6718H290.459V48.8004H289.255V54.4434H288.052V55.572H294.069V54.4434H292.865V48.8004H294.069V47.6718H291.662ZM288.052 34.1286V35.2572H289.255V36.3858H290.459V38.643H291.662V39.7716H290.459V40.9002H289.255V42.0288H288.052V43.1574H285.645V39.7716H286.849V38.643H285.645V35.2572H286.849V34.1286H288.052Z" fill="#63E679"/>
<path d="M308.509 47.6718V46.5432V45.4146H309.712V44.286V43.1574V42.0288H310.915V40.9002V39.7716H312.119V38.643H310.915V37.5144H309.712V36.3858V35.2572V34.1286H308.509V33H307.305V34.1286H306.102V35.2572V36.3858V37.5144V38.643H307.305V39.7716H306.102V40.9002V42.0288V43.1574V44.286V45.4146H304.899V46.5432V47.6718H306.102H307.305V48.8004H306.102V49.929V51.0576V52.1862V53.3148V54.4434H307.305V55.572H308.509V54.4434H309.712V53.3148V52.1862V51.0576V49.929V48.8004H310.915V47.6718H309.712H308.509Z" fill="#63E679"/>
<path d="M303.695 52.1862H302.492V53.3148V54.4434H301.289H300.085V53.3148V52.1862H298.882V51.0576V49.929V48.8004H300.085V47.6718H298.882H297.679V46.5432V45.4146H298.882H300.085H301.289H302.492V44.286H303.695V43.1574H302.492H301.289H300.085H298.882V42.0288V40.9002V39.7716H300.085V38.643H298.882V37.5144V36.3858H300.085V35.2572V34.1286H301.289H302.492V35.2572V36.3858H303.695V37.5144H304.899V36.3858V35.2572V34.1286H303.695V33H302.492H301.289H300.085H298.882H297.679H296.475V34.1286V35.2572H295.272V36.3858V37.5144V38.643H296.475V39.7716H295.272V40.9002V42.0288V43.1574V44.286V45.4146H294.069V46.5432V47.6718H295.272H296.475V48.8004H295.272V49.929V51.0576V52.1862V53.3148H296.475V54.4434V55.572H297.679H298.882H300.085H301.289H302.492H303.695V54.4434H304.899V53.3148V52.1862V51.0576H303.695V52.1862Z" fill="#63E679"/>
<path d="M184.565 52.1862V51.0576V49.929V48.8004H185.768V47.6718H184.565H183.362V46.5432V45.4146H184.565V44.286V43.1574V42.0288V40.9002V39.7716H185.768V38.643H184.565V37.5144V36.3858V35.2572V34.1286H185.768V33H184.565H183.362H182.158H180.955H179.752V34.1286H180.955V35.2572V36.3858V37.5144V38.643H182.158V39.7716H180.955V40.9002V42.0288V43.1574V44.286V45.4146H179.752V46.5432V47.6718H180.955H182.158V48.8004H180.955V49.929V51.0576V52.1862V53.3148H182.158V54.4434H183.362H184.565V53.3148V52.1862Z" fill="#63E679"/>
<path d="M237.512 52.1863V51.0577V49.9291V48.8005H238.715V47.6719H237.512H236.308V46.5433V45.4147H237.512V44.2861V43.1575V42.0289V40.9003V39.7717H238.715V38.6431H237.512V37.5145V36.3859V35.2573V34.1287H236.308H235.105V35.2573V36.3859H233.902V37.5145V38.6431H235.105V39.7717H233.902V40.9003V42.0289V43.1575V44.2861V45.4147H232.698V46.5433V47.6719H233.902H235.105V48.8005H233.902V49.9291V51.0577V52.1863V53.3149H235.105V54.4435H236.308H237.512V53.3149V52.1863Z" fill="#63E679"/>
<path d="M185.768 54.4435H184.565V55.5721H185.768H186.972H188.175V54.4435H186.972H185.768Z" fill="#63E679"/>
<path d="M238.715 54.4435H237.512V55.5721H238.715H239.919H241.122V54.4435H239.919H238.715Z" fill="#63E679"/>
<path d="M164.97 33H163.766H162.563H161.36H160.156H158.953H157.75V34.1286V35.2572H156.546V36.3858V37.5144V38.643H157.75V39.7716H156.546V40.9002V42.0288V43.1574V44.286V45.4146H155.343V46.5432V47.6718H156.546H157.75V48.8004H156.546V49.929V51.0576V52.1862V53.3148H157.75V54.4434V55.572H158.953H160.156H161.36H162.563H163.766H164.97V54.4434H166.173V53.3148V52.1862V51.0576H164.97V52.1862H163.766V53.3148V54.4434H162.563H161.36V53.3148V52.1862H160.156V51.0576V49.929V48.8004H161.36V47.6718H160.156H158.953V46.5432V45.4146H160.156H161.36H162.563H163.766V44.286H164.97V43.1574H163.766H162.563H161.36H160.156V42.0288V40.9002V39.7716H161.36V38.643H160.156V37.5144V36.3858H161.36V35.2572V34.1286H162.563H163.766V35.2572V36.3858H164.97V37.5144H166.173V36.3858V35.2572V34.1286H164.97V33Z" fill="#160E26"/>
<path d="M175.8 33H174.596H173.393H172.19H170.986H169.783H168.58V34.1286H169.783H170.986H172.19H173.393V35.2572V36.3858V37.5144V38.643H174.596V39.7716H173.393V40.9002V42.0288V43.1574V44.286V45.4146H172.19V46.5432V47.6718H173.393H174.596V48.8004H173.393V49.929V51.0576V52.1862V53.3148V54.4434H172.19H170.986V53.3148V52.1862H169.783V51.0576V49.929V48.8004H168.58H167.376V49.929V51.0576V52.1862H168.58V53.3148V54.4434H169.783V55.572H170.986H172.19H173.393H174.596V54.4434H175.8V53.3148H177.003V52.1862V51.0576V49.929V48.8004H178.206V47.6718H177.003H175.8V46.5432V45.4146H177.003V44.286V43.1574V42.0288V40.9002V39.7716H178.206V38.643H177.003V37.5144V36.3858V35.2572V34.1286H178.206V33H177.003H175.8Z" fill="#160E26"/>
<path d="M190.24 33H189.036H187.833H186.63V34.1286H187.833V35.2572V36.3858V37.5144V38.643H189.036V39.7716H187.833V40.9002V42.0288V43.1574V44.286V45.4146H186.63V46.5432V47.6718H187.833H189.036V48.8004H187.833V49.929V51.0576V52.1862V53.3148V54.4434H189.036H190.24V53.3148H191.443V52.1862V51.0576V49.929V48.8004H192.646V47.6718H191.443H190.24V46.5432V45.4146H191.443V44.286V43.1574V42.0288V40.9002V39.7716H192.646V38.643H191.443V37.5144V36.3858V35.2572V34.1286H192.646V33H191.443H190.24Z" fill="#160E26"/>
<path d="M214.306 33H213.103H211.9H210.696V34.1286H211.9V35.2572V36.3858V37.5144V38.643H213.103V39.7716H211.9V40.9002V42.0288V43.1574V44.286V45.4146H210.696V46.5432V47.6718H211.9H213.103V48.8004H211.9V49.929V51.0576V52.1862V53.3148V54.4434H210.696V55.572H211.9H213.103H214.306H215.51H216.713V54.4434H215.51V53.3148V52.1862V51.0576V49.929V48.8004H216.713V47.6718H215.51H214.306V46.5432V45.4146H215.51V44.286V43.1574V42.0288V40.9002V39.7716H216.713V38.643H215.51V37.5144V36.3858V35.2572V34.1286H216.713V33H215.51H214.306Z" fill="#160E26"/>
<path d="M239.576 34.1286H240.78V33H239.576H238.373H237.17V34.1286H238.373H239.576Z" fill="#160E26"/>
<path d="M278.083 33H276.88H275.677H274.473H273.27H272.067H270.863V34.1286V35.2572H269.66V36.3858V37.5144V38.643H270.863V39.7716H269.66V40.9002V42.0288V43.1574V44.286V45.4146H268.457V46.5432V47.6718H269.66H270.863V48.8004H269.66V49.929V51.0576V52.1862V53.3148H270.863V54.4434V55.572H272.067H273.27H274.473H275.677H276.88H278.083V54.4434H279.287V53.3148V52.1862V51.0576H278.083V52.1862H276.88V53.3148V54.4434H275.677H274.473V53.3148V52.1862H273.27V51.0576V49.929V48.8004H274.473V47.6718H273.27H272.067V46.5432V45.4146H273.27H274.473H275.677H276.88V44.286H278.083V43.1574H276.88H275.677H274.473H273.27V42.0288V40.9002V39.7716H274.473V38.643H273.27V37.5144V36.3858H274.473V35.2572V34.1286H275.677H276.88V35.2572V36.3858H278.083V37.5144H279.287V36.3858V35.2572V34.1286H278.083V33Z" fill="#160E26"/>
<path d="M338.25 34.1286V33H337.047H335.843H334.64H333.437H332.233H331.03V34.1286V35.2572H329.827V36.3858V37.5144V38.643H331.03V39.7716H329.827V40.9002V42.0288V43.1574V44.286V45.4146H328.623V46.5432V47.6718H329.827H331.03V48.8004H329.827V49.929V51.0576V52.1862V53.3148H331.03V54.4434V55.572H332.233H333.437H334.64H335.843H337.047H338.25V54.4434H339.453V53.3148V52.1862V51.0576H338.25V52.1862H337.047V53.3148V54.4434H335.843H334.64V53.3148V52.1862H333.437V51.0576V49.929V48.8004H334.64V47.6718H333.437H332.233V46.5432V45.4146H333.437H334.64H335.843H337.047V44.286H338.25V43.1574H337.047H335.843H334.64H333.437V42.0288V40.9002V39.7716H334.64V38.643H333.437V37.5144V36.3858H334.64V35.2572V34.1286H335.843H337.047V35.2572V36.3858H338.25V37.5144H339.453V36.3858V35.2572V34.1286H338.25Z" fill="#160E26"/>
<path d="M268.456 37.5144V36.3858V35.2572V34.1286H267.253V33H266.05H264.846H263.643H262.44H261.236H260.033V34.1286V35.2572H258.83V36.3858V37.5144V38.643H260.033V39.7716H258.83V40.9002V42.0288V43.1574H257.626V44.286V45.4146V46.5432V47.6718H258.83H260.033V48.8004H258.83V49.929V51.0576V52.1862V53.3148V54.4434H257.626V55.572H258.83H260.033H261.236H262.44H263.643H264.846V54.4434H263.643H262.44V53.3148V52.1862V51.0576V49.929V48.8004H263.643V47.6718H262.44H261.236V46.5432V45.4146H262.44H263.643H264.846H266.05V44.286H267.253V43.1574H266.05H264.846H263.643H262.44V42.0288V40.9002V39.7716H263.643V38.643H262.44V37.5144V36.3858H263.643V35.2572V34.1286H264.846H266.05V35.2572V36.3858H267.253V37.5144H268.456Z" fill="#160E26"/>
<path d="M232.356 38.643V37.5144V36.3858H231.153V35.2572V34.1286H229.95V33H228.746H227.543H226.34H225.136V34.1286H223.933V35.2572H222.73V36.3858V37.5144H221.526V38.643H222.73V39.7716H221.526V40.9002V42.0288V43.1574V44.286V45.4146H220.323V46.5432V47.6718H221.526H222.73V48.8004H221.526V49.929V51.0576H222.73V52.1862V53.3148H223.933V54.4434H225.136V55.572H226.34H227.543H228.746H229.95V54.4434H231.153V53.3148V52.1862H232.356V51.0576V49.929V48.8004H231.153H229.95V49.929V51.0576V52.1862H228.746V53.3148V54.4434H227.543H226.34V53.3148V52.1862H225.136V51.0576V49.929V48.8004H226.34V47.6718H225.136H223.933V46.5432V45.4146H225.136V44.286V43.1574V42.0288V40.9002V39.7716H226.34V38.643H225.136V37.5144V36.3858H226.34V35.2572V34.1286H227.543H228.746V35.2572V36.3858H229.95V37.5144V38.643H231.153V39.7716H232.356H233.56V38.643H232.356Z" fill="#160E26"/>
<path d="M328.623 38.643V37.5144V36.3858H327.42V35.2572V34.1286H326.217V33H325.013H323.81H322.607H321.403V34.1286H320.2V35.2572H318.997V36.3858V37.5144H317.793V38.643H318.997V39.7716H317.793V40.9002V42.0288V43.1574V44.286V45.4146H316.59V46.5432V47.6718H315.387V46.5432V45.4146H316.59V44.286V43.1574V42.0288V40.9002V39.7716H317.793V38.643H316.59V37.5144V36.3858V35.2572V34.1286H315.387V33H314.183V34.1286H312.98V35.2572V36.3858V37.5144V38.643H314.183V39.7716H312.98V40.9002V42.0288V43.1574V44.286V45.4146H311.777V46.5432H310.573V47.6718H311.777H312.98V48.8004H311.777V49.929V51.0576H312.98V52.1862V53.3148V54.4434H314.183V55.572H315.387V54.4434H316.59V53.3148V52.1862V51.0576V49.929V48.8004H317.793V47.6718H318.997V48.8004H317.793V49.929V51.0576H318.997V52.1862V53.3148H320.2V54.4434H321.403V55.572H322.607H323.81H325.013H326.217V54.4434H327.42V53.3148V52.1862H328.623V51.0576V49.929V48.8004H327.42H326.217V49.929V51.0576V52.1862H325.013V53.3148V54.4434H323.81H322.607V53.3148V52.1862H321.403V51.0576V49.929V48.8004H322.607V47.6718H321.403H320.2V46.5432V45.4146H321.403V44.286V43.1574V42.0288V40.9002V39.7716H322.607V38.643H321.403V37.5144V36.3858H322.607V35.2572V34.1286H323.81H325.013V35.2572V36.3858H326.217V37.5144V38.643H327.42V39.7716H328.623H329.827V38.643H328.623Z" fill="#160E26"/>
<path d="M250.406 44.286V45.4146H251.61V44.286V43.1574V42.0288H250.406V43.1574V44.286Z" fill="#160E26"/>
<path d="M310.573 44.286V45.4146H311.777V44.286V43.1574V42.0288H310.573V43.1574V44.286Z" fill="#160E26"/>
<path d="M250.406 45.4147H249.203V46.5433H250.406V45.4147Z" fill="#160E26"/>
<path d="M310.573 45.4147H309.37V46.5433H310.573V45.4147Z" fill="#160E26"/>
<path d="M152.936 47.6718V46.5432V45.4146H154.14V44.286V43.1574V42.0288V40.9002V39.7716H155.343V38.643H154.14V37.5144V36.3858V35.2572V34.1286H155.343V33H154.14H152.936H151.733H150.53H149.326H148.123H146.92H145.716V34.1286H146.92H148.123H149.326H150.53V35.2572V36.3858V37.5144V38.643H151.733V39.7716H150.53V40.9002V42.0288V43.1574V44.286V45.4146H149.326V46.5432V47.6718H150.53H151.733V48.8004H150.53V49.929V51.0576V52.1862V53.3148V54.4434H149.326H148.123V53.3148V52.1862H146.92V51.0576V49.929V48.8004H145.716H144.513V49.929V51.0576V52.1862H145.716V53.3148V54.4434H146.92V55.572H148.123H149.326H150.53H151.733V54.4434H152.936V53.3148H154.14V52.1862V51.0576V49.929V48.8004H155.343V47.6718H154.14H152.936Z" fill="#160E26"/>
<path d="M207.086 47.6718V45.4146H208.29V38.643H207.086V36.3858H205.883V34.1286H204.68V33H201.07V34.1286H199.866V36.3858H198.663V38.643H199.866V39.7716H197.46V45.4146H196.256V47.6718H198.663V48.8004H197.46V54.4434H196.256V55.572H202.273V54.4434H201.07V48.8004H202.273V47.6718H199.866V45.4146H201.07V44.286H204.68V45.4146H203.476V47.6718H205.883V48.8004H204.68V54.4434H203.476V55.572H209.493V54.4434H208.29V48.8004H209.493V47.6718H207.086ZM203.476 43.1574H201.07V39.7716H202.273V38.643H201.07V36.3858H202.273V34.1286H203.476V36.3858H204.68V38.643H205.883V39.7716H204.68V43.1574H203.476Z" fill="#160E26"/>
<path d="M248 47.6718V46.5432V45.4146H249.203V44.286V43.1574V42.0288H250.406V40.9002V39.7716H251.61V38.643H250.406V37.5144H249.203V36.3858V35.2572V34.1286H248V33H246.796V34.1286H245.593V35.2572V36.3858V37.5144V38.643H246.796V39.7716H245.593V40.9002V42.0288V43.1574V44.286V45.4146H244.39V46.5432V47.6718H243.186V46.5432V45.4146H244.39V44.286V43.1574V42.0288V40.9002V39.7716H245.593V38.643H244.39V37.5144V36.3858H243.186V35.2572V34.1286H241.983H240.78V35.2572V36.3858V37.5144V38.643H241.983V39.7716H240.78V40.9002V42.0288V43.1574V44.286V45.4146H239.576V46.5432V47.6718H240.78H241.983V48.8004H240.78V49.929V51.0576V52.1862V53.3148V54.4434H241.983H243.186V53.3148H244.39V52.1862V51.0576V49.929V48.8004H245.593V47.6718H246.796V48.8004H245.593V49.929V51.0576V52.1862V53.3148V54.4434H246.796V55.572H248V54.4434H249.203V53.3148V52.1862V51.0576V49.929V48.8004H250.406V47.6718H249.203H248Z" fill="#160E26"/>
<path d="M255.22 47.6718V46.5432V45.4146H256.423V44.286V43.1574V42.0288V40.9002V39.7716H257.627V38.643H256.423V37.5144V36.3858V35.2572V34.1286H255.22V33H254.017V34.1286H252.813V35.2572V36.3858V37.5144V38.643H254.017V39.7716H252.813V40.9002V42.0288V43.1574V44.286V45.4146H251.61V46.5432H250.406V47.6718H251.61H252.813V48.8004H251.61V49.929V51.0576H252.813V52.1862V53.3148V54.4434H254.017V55.572H255.22V54.4434H256.423V53.3148V52.1862V51.0576V49.929V48.8004H257.627V47.6718H256.423H255.22Z" fill="#160E26"/>
<path d="M291.32 47.6718V46.5432H290.117V43.1574H291.32V42.0288H292.523V39.7716H293.727V38.643H292.523V35.2572H291.32V34.1286H290.117V33H282.897V34.1286H281.693V38.643H282.897V39.7716H281.693V45.4146H280.49V47.6718H282.897V48.8004H281.693V54.4434H280.49V55.572H286.507V54.4434H285.303V48.8004H286.507V47.6718H284.1V45.4146H286.507V46.5432H287.71V47.6718H290.117V48.8004H288.913V54.4434H287.71V55.572H293.727V54.4434H292.523V48.8004H293.727V47.6718H291.32ZM287.71 34.1286V35.2572H288.913V36.3858H290.117V38.643H291.32V39.7716H290.117V40.9002H288.913V42.0288H287.71V43.1574H285.303V39.7716H286.507V38.643H285.303V35.2572H286.507V34.1286H287.71Z" fill="#160E26"/>
<path d="M308.167 47.6718V46.5432V45.4146H309.37V44.286V43.1574V42.0288H310.573V40.9002V39.7716H311.777V38.643H310.573V37.5144H309.37V36.3858V35.2572V34.1286H308.167V33H306.963V34.1286H305.76V35.2572V36.3858V37.5144V38.643H306.963V39.7716H305.76V40.9002V42.0288V43.1574V44.286V45.4146H304.557V46.5432V47.6718H305.76H306.963V48.8004H305.76V49.929V51.0576V52.1862V53.3148V54.4434H306.963V55.572H308.167V54.4434H309.37V53.3148V52.1862V51.0576V49.929V48.8004H310.573V47.6718H309.37H308.167Z" fill="#160E26"/>
<path d="M303.353 52.1862H302.15V53.3148V54.4434H300.947H299.743V53.3148V52.1862H298.54V51.0576V49.929V48.8004H299.743V47.6718H298.54H297.337V46.5432V45.4146H298.54H299.743H300.947H302.15V44.286H303.353V43.1574H302.15H300.947H299.743H298.54V42.0288V40.9002V39.7716H299.743V38.643H298.54V37.5144V36.3858H299.743V35.2572V34.1286H300.947H302.15V35.2572V36.3858H303.353V37.5144H304.557V36.3858V35.2572V34.1286H303.353V33H302.15H300.947H299.743H298.54H297.337H296.133V34.1286V35.2572H294.93V36.3858V37.5144V38.643H296.133V39.7716H294.93V40.9002V42.0288V43.1574V44.286V45.4146H293.727V46.5432V47.6718H294.93H296.133V48.8004H294.93V49.929V51.0576V52.1862V53.3148H296.133V54.4434V55.572H297.337H298.54H299.743H300.947H302.15H303.353V54.4434H304.557V53.3148V52.1862V51.0576H303.353V52.1862Z" fill="#160E26"/>
<path d="M184.223 52.1862V51.0576V49.929V48.8004H185.426V47.6718H184.223H183.02V46.5432V45.4146H184.223V44.286V43.1574V42.0288V40.9002V39.7716H185.426V38.643H184.223V37.5144V36.3858V35.2572V34.1286H185.426V33H184.223H183.02H181.816H180.613H179.41V34.1286H180.613V35.2572V36.3858V37.5144V38.643H181.816V39.7716H180.613V40.9002V42.0288V43.1574V44.286V45.4146H179.41V46.5432V47.6718H180.613H181.816V48.8004H180.613V49.929V51.0576V52.1862V53.3148H181.816V54.4434H183.02H184.223V53.3148V52.1862Z" fill="#160E26"/>
<path d="M237.17 52.1863V51.0577V49.9291V48.8005H238.373V47.6719H237.17H235.966V46.5433V45.4147H237.17V44.2861V43.1575V42.0289V40.9003V39.7717H238.373V38.6431H237.17V37.5145V36.3859V35.2573V34.1287H235.966H234.763V35.2573V36.3859H233.56V37.5145V38.6431H234.763V39.7717H233.56V40.9003V42.0289V43.1575V44.2861V45.4147H232.356V46.5433V47.6719H233.56H234.763V48.8005H233.56V49.9291V51.0577V52.1863V53.3149H234.763V54.4435H235.966H237.17V53.3149V52.1863Z" fill="#160E26"/>
<path d="M185.426 54.4435H184.223V55.5721H185.426H186.63H187.833V54.4435H186.63H185.426Z" fill="#160E26"/>
<path d="M238.373 54.4435H237.17V55.5721H238.373H239.576H240.78V54.4435H239.576H238.373Z" fill="#160E26"/>
<path d="M186.295 67.625H187.17V65H185.42V66.75H183.67V65H184.545V64.125H188.045V65H188.92V67.625H188.045V68.5H187.17V69.375H186.295V70.25H185.42V71.125H188.92V72H183.67V70.25H184.545V69.375H185.42V68.5H186.295V67.625ZM191.545 64.125H195.045V65H195.92V71.125H195.045V72H191.545V71.125H190.67V65H191.545V64.125ZM193.295 68.5V70.25H192.42V71.125H194.17V67.625H193.295V65.875H194.17V65H192.42V68.5H193.295ZM200.295 67.625H201.17V65H199.42V66.75H197.67V65H198.545V64.125H202.045V65H202.92V67.625H202.045V68.5H201.17V69.375H200.295V70.25H199.42V71.125H202.92V72H197.67V70.25H198.545V69.375H199.42V68.5H200.295V67.625ZM205.545 64.125H207.295V68.5H206.42V69.375H208.17V65.875H209.92V69.375H210.795V70.25H209.92V72H208.17V70.25H204.67V68.5H205.545V64.125ZM216.045 72H213.42V70.25H216.045V72ZM219.545 64.125H223.045V65H223.92V71.125H223.045V72H219.545V71.125H218.67V65H219.545V64.125ZM221.295 68.5V70.25H220.42V71.125H222.17V67.625H221.295V65.875H222.17V65H220.42V68.5H221.295ZM226.545 64.125H228.295V68.5H227.42V69.375H229.17V65.875H230.92V69.375H231.795V70.25H230.92V72H229.17V70.25H225.67V68.5H226.545V64.125ZM237.045 72H234.42V70.25H237.045V72ZM242.295 64.125H244.045V72H242.295V66.75H239.67V65.875H241.42V65H242.295V64.125ZM249.295 67.625H250.17V65H248.42V66.75H246.67V65H247.545V64.125H251.045V65H251.92V67.625H251.045V68.5H250.17V69.375H249.295V70.25H248.42V71.125H251.92V72H246.67V70.25H247.545V69.375H248.42V68.5H249.295V67.625ZM265.92 68.5H260.67V67.625H265.92V68.5ZM275.545 64.125H279.045V65H279.92V71.125H279.045V72H275.545V71.125H274.67V65H275.545V64.125ZM277.295 68.5V70.25H276.42V71.125H278.17V67.625H277.295V65.875H278.17V65H276.42V68.5H277.295ZM282.545 64.125H284.295V68.5H283.42V69.375H285.17V65.875H286.92V69.375H287.795V70.25H286.92V72H285.17V70.25H281.67V68.5H282.545V64.125ZM293.045 72H290.42V70.25H293.045V72ZM298.295 64.125H300.045V72H298.295V66.75H295.67V65.875H297.42V65H298.295V64.125ZM304.42 71.125H306.17V68.5H304.42V67.625H306.17V65H304.42V66.75H302.67V65H303.545V64.125H307.045V65H307.92V67.625H307.045V68.5H307.92V71.125H307.045V72H303.545V71.125H302.67V69.375H304.42V71.125Z" fill="#160E26"/>
</svg>
