<svg width="140" height="60" viewBox="0 0 140 60" fill="none" xmlns="http://www.w3.org/2000/svg">
<path d="M43.7725 28V29.5571H45.3295V35.7855H46.8867V37.3426H45.3295V45.1281H43.7725V48.2423H46.8867V49.7994H45.3295V57.5849H43.7725V59.142H51.558V57.5849H50.0009V49.7994H51.558V48.2423H48.4437V45.1281H50.0009V37.3426H51.558V35.7855H50.0009V29.5571H51.558V28H43.7725Z" fill="white"/>
<path d="M97.3236 42.0139H94.2094V43.571H92.6522V45.1281H91.0952V46.6852H97.3236V45.1281H98.8807V43.571H100.438V40.4568H101.995V35.7855H103.552V34.2284H101.995V31.1142H103.552V29.5571H101.995V28H86.4238V29.5571H87.981V31.1142H97.3236V34.2284H87.981V35.7855H86.4238V37.3426H97.3236V42.0139Z" fill="white"/>
<path d="M62.9257 54.4707V49.7994H64.4828V48.2423H62.9257V45.1281H61.3686V43.571H62.9257V35.7855H64.4828V32.6713H62.9257V29.5571H64.4828V28H56.6973V29.5571H58.2543V32.6713H59.8115V35.7855H58.2543V43.571H56.6973V45.1281H58.2543V48.2423H59.8115V49.7994H58.2543V59.142H67.597V54.4707H62.9257Z" fill="white"/>
<path d="M70.7108 28V32.6713H72.2678V35.7855H70.7108V40.4568H64.4824V42.0139H66.0395V45.1281H70.7108V48.2423H72.2678V49.7994H70.7108V59.142H75.3821V49.7994H76.9391V48.2423H75.3821V42.0139H73.825V40.4568H75.3821V35.7855H76.9391V32.6713H75.3821V29.5571H76.9391V28H70.7108Z" fill="white"/>
<path d="M112.895 29.5571H114.452V28H108.224V32.6713H109.781V35.7855H105.109V38.8997H109.781V40.4568H108.224V45.1281H112.895V40.4568H114.452V38.8997H112.895V35.7855H114.452V32.6713H112.895V29.5571Z" fill="white"/>
<path d="M112.895 54.4708H108.223V52.9137H109.78V51.3566H108.223V48.2424H105.109V46.6853H101.995V49.7994H98.8807V51.3566H97.3236V52.9137H94.2094V56.0279H92.6523V59.1421H97.3236V57.5849H98.8808V56.0279H100.438V54.4708H98.8808V52.9137H103.552V54.4708H106.666V56.0279H108.223L108.223 57.5849H109.781V59.1421H114.452V56.0279H112.895L112.895 54.4708Z" fill="white"/>
<path d="M78.4961 28V32.6713H80.0532V35.7855H78.4961V48.2423H80.0532V49.7994H78.4961V59.142H83.1674V49.7994H84.7245V48.2423H83.1674V42.0139H81.6103V40.4568H83.1674V35.7855H84.7245V32.6713H83.1674V29.5571H84.7245V28H78.4961Z" fill="white"/>
<path d="M39.4479 48.2423V46.6853V45.1281H41.0051V35.7855H39.4479V32.6713H37.8908V29.5571H36.3337V28H31.6624V29.5571H30.1421V32.6713H28.5849V35.7855H30.142V37.3426H27.0278V45.128H25.4707V48.2422H28.5849V49.7993H27.0278V57.5848H25.4707V59.1419H33.2562V57.5848H31.6991V49.7994H33.2563V48.2423H30.1421V45.1281H31.6991V43.571H36.3337V45.1281H34.7766V48.2423H37.8908V49.7994H36.3337V57.5849H34.7766V59.142H42.5621V57.5849H41.0051V49.7994H42.5621V48.2423H39.4479ZM31.6991 42.0139V38.8997H33.2563V35.7855H31.6991V32.6713H33.2563V29.5571H34.7766V32.6713H36.3337V35.7855H37.8908V37.3426H36.3337V42.0139H31.6991Z" fill="white"/>
<path d="M14.6909 0H13.8267H12.9625H12.0983H11.2341H10.3699H9.50574V0.8V1.6H8.64154V2.4V3.2V4H9.50574V4.8H8.64154V5.6V6.4V7.2V8V8.8H7.77734V9.6V10.4H8.64154H9.50574V11.2H8.64154V12V12.8V13.6V14.4H9.50574V15.2V16H10.3699H11.2341H12.0983H12.9625H13.8267H14.6909V15.2H15.5551V14.4V13.6V12.8H14.6909V13.6H13.8267V14.4V15.2H12.9625H12.0983V14.4V13.6H11.2341V12.8V12V11.2H12.0983V10.4H11.2341H10.3699V9.6V8.8H11.2341H12.0983H12.9625H13.8267V8H14.6909V7.2H13.8267H12.9625H12.0983H11.2341V6.4V5.6V4.8H12.0983V4H11.2341V3.2V2.4H12.0983V1.6V0.8H12.9625H13.8267V1.6V2.4H14.6909V3.2H15.5551V2.4V1.6V0.8H14.6909V0Z" fill="#6DF2CC"/>
<path d="M22.4693 0H21.6051H20.7409H19.8767H19.0125H18.1483H17.2841V0.8H18.1483H19.0125H19.8767H20.7409V1.6V2.4V3.2V4H21.6051V4.8H20.7409V5.6V6.4V7.2V8V8.8H19.8767V9.6V10.4H20.7409H21.6051V11.2H20.7409V12V12.8V13.6V14.4V15.2H19.8767H19.0125V14.4V13.6H18.1483V12.8V12V11.2H17.2841H16.4199V12V12.8V13.6H17.2841V14.4V15.2H18.1483V16H19.0125H19.8767H20.7409H21.6051V15.2H22.4693V14.4H23.3335V13.6V12.8V12V11.2H24.1977V10.4H23.3335H22.4693V9.6V8.8H23.3335V8V7.2V6.4V5.6V4.8H24.1977V4H23.3335V3.2V2.4V1.6V0.8H24.1977V0H23.3335H22.4693Z" fill="#6DF2CC"/>
<path d="M32.8397 0H31.9755H31.1113H30.2471V0.8H31.1113V1.6V2.4V3.2V4H31.9755V4.8H31.1113V5.6V6.4V7.2V8V8.8H30.2471V9.6V10.4H31.1113H31.9755V11.2H31.1113V12V12.8V13.6V14.4V15.2H31.9755H32.8397V14.4H33.7039V13.6V12.8V12V11.2H34.5681V10.4H33.7039H32.8397V9.6V8.8H33.7039V8V7.2V6.4V5.6V4.8H34.5681V4H33.7039V3.2V2.4V1.6V0.8H34.5681V0H33.7039H32.8397Z" fill="#6DF2CC"/>
<path d="M50.1238 0H49.2596H48.3954H47.5312V0.8H48.3954V1.6V2.4V3.2V4H49.2596V4.8H48.3954V5.6V6.4V7.2V8V8.8H47.5312V9.6V10.4H48.3954H49.2596V11.2H48.3954V12V12.8V13.6V14.4V15.2H47.5312V16H48.3954H49.2596H50.1238H50.988H51.8522V15.2H50.988V14.4V13.6V12.8V12V11.2H51.8522V10.4H50.988H50.1238V9.6V8.8H50.988V8V7.2V6.4V5.6V4.8H51.8522V4H50.988V3.2V2.4V1.6V0.8H51.8522V0H50.988H50.1238Z" fill="#6DF2CC"/>
<path d="M68.2714 0.8H69.1356V0H68.2714H67.4072H66.543V0.8H67.4072H68.2714Z" fill="#6DF2CC"/>
<path d="M95.9263 0H95.0621H94.1979H93.3337H92.4695H91.6053H90.7411V0.8V1.6H89.8769V2.4V3.2V4H90.7411V4.8H89.8769V5.6V6.4V7.2V8V8.8H89.0127V9.6V10.4H89.8769H90.7411V11.2H89.8769V12V12.8V13.6V14.4H90.7411V15.2V16H91.6053H92.4695H93.3337H94.1979H95.0621H95.9263V15.2H96.7905V14.4V13.6V12.8H95.9263V13.6H95.0621V14.4V15.2H94.1979H93.3337V14.4V13.6H92.4695V12.8V12V11.2H93.3337V10.4H92.4695H91.6053V9.6V8.8H92.4695H93.3337H94.1979H95.0621V8H95.9263V7.2H95.0621H94.1979H93.3337H92.4695V6.4V5.6V4.8H93.3337V4H92.4695V3.2V2.4H93.3337V1.6V0.8H94.1979H95.0621V1.6V2.4H95.9263V3.2H96.7905V2.4V1.6V0.8H95.9263V0Z" fill="#6DF2CC"/>
<path d="M139.136 0.8V0H138.272H137.408H136.544H135.679H134.815H133.951V0.8V1.6H133.087V2.4V3.2V4H133.951V4.8H133.087V5.6V6.4V7.2V8V8.8H132.223V9.6V10.4H133.087H133.951V11.2H133.087V12V12.8V13.6V14.4H133.951V15.2V16H134.815H135.679H136.544H137.408H138.272H139.136V15.2H140V14.4V13.6V12.8H139.136V13.6H138.272V14.4V15.2H137.408H136.544V14.4V13.6H135.679V12.8V12V11.2H136.544V10.4H135.679H134.815V9.6V8.8H135.679H136.544H137.408H138.272V8H139.136V7.2H138.272H137.408H136.544H135.679V6.4V5.6V4.8H136.544V4H135.679V3.2V2.4H136.544V1.6V0.8H137.408H138.272V1.6V2.4H139.136V3.2H140V2.4V1.6V0.8H139.136Z" fill="#6DF2CC"/>
<path d="M89.0122 3.2V2.4V1.6V0.8H88.148V0H87.2838H86.4196H85.5554H84.6912H83.827H82.9628V0.8V1.6H82.0986V2.4V3.2V4H82.9628V4.8H82.0986V5.6V6.4V7.2H81.2344V8V8.8V9.6V10.4H82.0986H82.9628V11.2H82.0986V12V12.8V13.6V14.4V15.2H81.2344V16H82.0986H82.9628H83.827H84.6912H85.5554H86.4196V15.2H85.5554H84.6912V14.4V13.6V12.8V12V11.2H85.5554V10.4H84.6912H83.827V9.6V8.8H84.6912H85.5554H86.4196H87.2838V8H88.148V7.2H87.2838H86.4196H85.5554H84.6912V6.4V5.6V4.8H85.5554V4H84.6912V3.2V2.4H85.5554V1.6V0.8H86.4196H87.2838V1.6V2.4H88.148V3.2H89.0122Z" fill="#6DF2CC"/>
<path d="M63.0863 4V3.2V2.4H62.2221V1.6V0.8H61.3579V0H60.4937H59.6295H58.7653H57.9011V0.8H57.0369V1.6H56.1727V2.4V3.2H55.3085V4H56.1727V4.8H55.3085V5.6V6.4V7.2V8V8.8H54.4443V9.6V10.4H55.3085H56.1727V11.2H55.3085V12V12.8H56.1727V13.6V14.4H57.0369V15.2H57.9011V16H58.7653H59.6295H60.4937H61.3579V15.2H62.2221V14.4V13.6H63.0863V12.8V12V11.2H62.2221H61.3579V12V12.8V13.6H60.4937V14.4V15.2H59.6295H58.7653V14.4V13.6H57.9011V12.8V12V11.2H58.7653V10.4H57.9011H57.0369V9.6V8.8H57.9011V8V7.2V6.4V5.6V4.8H58.7653V4H57.9011V3.2V2.4H58.7653V1.6V0.8H59.6295H60.4937V1.6V2.4H61.3579V3.2V4H62.2221V4.8H63.0863H63.9505V4H63.0863Z" fill="#6DF2CC"/>
<path d="M132.222 4V3.2V2.4H131.358V1.6V0.8H130.493V0H129.629H128.765H127.901H127.037V0.8H126.172V1.6H125.308V2.4V3.2H124.444V4H125.308V4.8H124.444V5.6V6.4V7.2V8V8.8H123.58V9.6V10.4H122.716V9.6V8.8H123.58V8V7.2V6.4V5.6V4.8H124.444V4H123.58V3.2V2.4V1.6V0.8H122.716V0H121.851V0.8H120.987V1.6V2.4V3.2V4H121.851V4.8H120.987V5.6V6.4V7.2V8V8.8H120.123V9.6H119.259V10.4H120.123H120.987V11.2H120.123V12V12.8H120.987V13.6V14.4V15.2H121.851V16H122.716V15.2H123.58V14.4V13.6V12.8V12V11.2H124.444V10.4H125.308V11.2H124.444V12V12.8H125.308V13.6V14.4H126.172V15.2H127.037V16H127.901H128.765H129.629H130.493V15.2H131.358V14.4V13.6H132.222V12.8V12V11.2H131.358H130.493V12V12.8V13.6H129.629V14.4V15.2H128.765H127.901V14.4V13.6H127.037V12.8V12V11.2H127.901V10.4H127.037H126.172V9.6V8.8H127.037V8V7.2V6.4V5.6V4.8H127.901V4H127.037V3.2V2.4H127.901V1.6V0.8H128.765H129.629V1.6V2.4H130.493V3.2V4H131.358V4.8H132.222H133.086V4H132.222Z" fill="#6DF2CC"/>
<path d="M76.0498 8.00002V8.80002H76.914V8.00002V7.20002V6.40002H76.0498V7.20002V8.00002Z" fill="#6DF2CC"/>
<path d="M119.259 8.00002V8.80002H120.123V8.00002V7.20002V6.40002H119.259V7.20002V8.00002Z" fill="#6DF2CC"/>
<path d="M76.0497 8.80005H75.1855V9.60005H76.0497V8.80005Z" fill="#6DF2CC"/>
<path d="M119.26 8.80005H118.396V9.60005H119.26V8.80005Z" fill="#6DF2CC"/>
<path d="M6.04938 10.4V9.6V8.8H6.91358V8V7.2V6.4V5.6V4.8H7.77778V4H6.91358V3.2V2.4V1.6V0.8H7.77778V0H6.91358H6.04938H5.18518H4.32099H3.45679H2.59259H1.72839H0.864197V0.8H1.72839H2.59259H3.45679H4.32099V1.6V2.4V3.2V4H5.18518V4.8H4.32099V5.6V6.4V7.2V8V8.8H3.45679V9.6V10.4H4.32099H5.18518V11.2H4.32099V12V12.8V13.6V14.4V15.2H3.45679H2.59259V14.4V13.6H1.72839V12.8V12V11.2H0.864197H0V12V12.8V13.6H0.864197V14.4V15.2H1.72839V16H2.59259H3.45679H4.32099H5.18518V15.2H6.04938V14.4H6.91358V13.6V12.8V12V11.2H7.77778V10.4H6.91358H6.04938Z" fill="#6DF2CC"/>
<path d="M44.9379 10.4V8.8H45.8021V4H44.9379V2.4H44.0737V0.8H43.2095V0H40.6169V0.8H39.7527V2.4H38.8886V4H39.7527V4.8H38.0244V8.8H37.1602V10.4H38.8886V11.2H38.0244V15.2H37.1602V16H41.4811V15.2H40.6169V11.2H41.4811V10.4H39.7527V8.8H40.6169V8H43.2095V8.8H42.3453V10.4H44.0737V11.2H43.2095V15.2H42.3453V16H46.6663V15.2H45.8021V11.2H46.6663V10.4H44.9379ZM42.3453 7.2H40.6169V4.8H41.4811V4H40.6169V2.4H41.4811V0.8H42.3453V2.4H43.2095V4H44.0737V4.8H43.2095V7.2H42.3453Z" fill="#6DF2CC"/>
<path d="M74.3209 10.4V9.6V8.8H75.1851V8V7.2V6.4H76.0493V5.6V4.8H76.9135V4H76.0493V3.2H75.1851V2.4V1.6V0.8H74.3209V0H73.4567V0.8H72.5925V1.6V2.4V3.2V4H73.4567V4.8H72.5925V5.6V6.4V7.2V8V8.8H71.7283V9.6V10.4H70.8641V9.6V8.8H71.7283V8V7.2V6.4V5.6V4.8H72.5925V4H71.7283V3.2V2.4H70.8641V1.6V0.8H69.9999H69.1357V1.6V2.4V3.2V4H69.9999V4.8H69.1357V5.6V6.4V7.2V8V8.8H68.2715V9.6V10.4H69.1357H69.9999V11.2H69.1357V12V12.8V13.6V14.4V15.2H69.9999H70.8641V14.4H71.7283V13.6V12.8V12V11.2H72.5925V10.4H73.4567V11.2H72.5925V12V12.8V13.6V14.4V15.2H73.4567V16H74.3209V15.2H75.1851V14.4V13.6V12.8V12V11.2H76.0493V10.4H75.1851H74.3209Z" fill="#6DF2CC"/>
<path d="M79.5066 10.4V9.6V8.8H80.3708V8V7.2V6.4V5.6V4.8H81.235V4H80.3708V3.2V2.4V1.6V0.8H79.5066V0H78.6424V0.8H77.7782V1.6V2.4V3.2V4H78.6424V4.8H77.7782V5.6V6.4V7.2V8V8.8H76.914V9.6H76.0498V10.4H76.914H77.7782V11.2H76.914V12V12.8H77.7782V13.6V14.4V15.2H78.6424V16H79.5066V15.2H80.3708V14.4V13.6V12.8V12V11.2H81.235V10.4H80.3708H79.5066Z" fill="#6DF2CC"/>
<path d="M105.432 10.4V9.6H104.568V7.2H105.432V6.4H106.296V4.8H107.16V4H106.296V1.6H105.432V0.8H104.568V0H99.3827V0.8H98.5185V4H99.3827V4.8H98.5185V8.8H97.6543V10.4H99.3827V11.2H98.5185V15.2H97.6543V16H101.975V15.2H101.111V11.2H101.975V10.4H100.247V8.8H101.975V9.6H102.839V10.4H104.568V11.2H103.704V15.2H102.839V16H107.16V15.2H106.296V11.2H107.16V10.4H105.432ZM102.839 0.8V1.6H103.704V2.4H104.568V4H105.432V4.8H104.568V5.6H103.704V6.4H102.839V7.2H101.111V4.8H101.975V4H101.111V1.6H101.975V0.8H102.839Z" fill="#6DF2CC"/>
<path d="M117.531 10.4V9.6V8.8H118.395V8V7.2V6.4H119.259V5.6V4.8H120.124V4H119.259V3.2H118.395V2.4V1.6V0.8H117.531V0H116.667V0.8H115.803V1.6V2.4V3.2V4H116.667V4.8H115.803V5.6V6.4V7.2V8V8.8H114.938V9.6V10.4H115.803H116.667V11.2H115.803V12V12.8V13.6V14.4V15.2H116.667V16H117.531V15.2H118.395V14.4V13.6V12.8V12V11.2H119.259V10.4H118.395H117.531Z" fill="#6DF2CC"/>
<path d="M114.074 13.6H113.21V14.4V15.2H112.345H111.481V14.4V13.6H110.617V12.8V12V11.2H111.481V10.4H110.617H109.753V9.6V8.8H110.617H111.481H112.345H113.21V8H114.074V7.2H113.21H112.345H111.481H110.617V6.4V5.6V4.8H111.481V4H110.617V3.2V2.4H111.481V1.6V0.8H112.345H113.21V1.6V2.4H114.074V3.2H114.938V2.4V1.6V0.8H114.074V0H113.21H112.345H111.481H110.617H109.753H108.889V0.8V1.6H108.024V2.4V3.2V4H108.889V4.8H108.024V5.6V6.4V7.2V8V8.8H107.16V9.6V10.4H108.024H108.889V11.2H108.024V12V12.8V13.6V14.4H108.889V15.2V16H109.753H110.617H111.481H112.345H113.21H114.074V15.2H114.938V14.4V13.6V12.8H114.074V13.6Z" fill="#6DF2CC"/>
<path d="M28.5183 13.6V12.8V12V11.2H29.3825V10.4H28.5183H27.6541V9.6V8.8H28.5183V8V7.2V6.4V5.6V4.8H29.3825V4H28.5183V3.2V2.4V1.6V0.8H29.3825V0H28.5183H27.6541H26.7899H25.9257H25.0615V0.8H25.9257V1.6V2.4V3.2V4H26.7899V4.8H25.9257V5.6V6.4V7.2V8V8.8H25.0615V9.6V10.4H25.9257H26.7899V11.2H25.9257V12V12.8V13.6V14.4H26.7899V15.2H27.6541H28.5183V14.4V13.6Z" fill="#6DF2CC"/>
<path d="M66.5427 13.6V12.8V12V11.2H67.4069V10.4H66.5427H65.6785V9.60005V8.80005H66.5427V8.00005V7.20005V6.40005V5.60005V4.80005H67.4069V4.00005H66.5427V3.20005V2.40005V1.60005V0.800049H65.6785H64.8143V1.60005V2.40005H63.9501V3.20005V4.00005H64.8143V4.80005H63.9501V5.60005V6.40005V7.20005V8.00005V8.80005H63.0859V9.60005V10.4H63.9501H64.8143V11.2H63.9501V12V12.8V13.6V14.4H64.8143V15.2H65.6785H66.5427V14.4V13.6Z" fill="#6DF2CC"/>
<path d="M29.3828 15.2H28.5186V16H29.3828H30.2469H31.1111V15.2H30.2469H29.3828Z" fill="#6DF2CC"/>
<path d="M67.4072 15.2H66.543V16H67.4072H68.2714H69.1356V15.2H68.2714H67.4072Z" fill="#6DF2CC"/>
</svg>
