<svg width="304" height="36" viewBox="0 0 304 36" fill="none" xmlns="http://www.w3.org/2000/svg">
<path d="M31.741 0H29.8739H28.0068H26.1397H24.2726H22.4054H20.5383V1.75116V3.50232H18.6712V5.25348V7.00465V8.75581H20.5383V10.507H18.6712V12.2581V14.0093V15.7605V17.5116V19.2628H16.8041V21.0139V22.7651H18.6712H20.5383V24.5163H18.6712V26.2674V28.0186V29.7697V31.5209H20.5383V33.2721V35.0232H22.4054H24.2726H26.1397H28.0068H29.8739H31.741V33.2721H33.6082V31.5209V29.7697V28.0186H31.741V29.7697H29.8739V31.5209V33.2721H28.0068H26.1397V31.5209V29.7697H24.2726V28.0186V26.2674V24.5163H26.1397V22.7651H24.2726H22.4054V21.0139V19.2628H24.2726H26.1397H28.0068H29.8739V17.5116H31.741V15.7605H29.8739H28.0068H26.1397H24.2726V14.0093V12.2581V10.507H26.1397V8.75581H24.2726V7.00465V5.25348H26.1397V3.50232V1.75116H28.0068H29.8739V3.50232V5.25348H31.741V7.00465H33.6082V5.25348V3.50232V1.75116H31.741V0Z" fill="#9E63E6"/>
<path d="M48.5451 0H46.678H44.8109H42.9437H41.0766H39.2095H37.3424V1.75116H39.2095H41.0766H42.9437H44.8109V3.50232V5.25348V7.00465V8.75581H46.678V10.507H44.8109V12.2581V14.0093V15.7605V17.5116V19.2628H42.9437V21.0139V22.7651H44.8109H46.678V24.5163H44.8109V26.2674V28.0186V29.7697V31.5209V33.2721H42.9437H41.0766V31.5209V29.7697H39.2095V28.0186V26.2674V24.5163H37.3424H35.4753V26.2674V28.0186V29.7697H37.3424V31.5209V33.2721H39.2095V35.0232H41.0766H42.9437H44.8109H46.678V33.2721H48.5451V31.5209H50.4122V29.7697V28.0186V26.2674V24.5163H52.2793V22.7651H50.4122H48.5451V21.0139V19.2628H50.4122V17.5116V15.7605V14.0093V12.2581V10.507H52.2793V8.75581H50.4122V7.00465V5.25348V3.50232V1.75116H52.2793V0H50.4122H48.5451Z" fill="#9E63E6"/>
<path d="M70.9505 0H69.0834H67.2163H65.3492V1.75116H67.2163V3.50232V5.25348V7.00465V8.75581H69.0834V10.507H67.2163V12.2581V14.0093V15.7605V17.5116V19.2628H65.3492V21.0139V22.7651H67.2163H69.0834V24.5163H67.2163V26.2674V28.0186V29.7697V31.5209V33.2721H69.0834H70.9505V31.5209H72.8177V29.7697V28.0186V26.2674V24.5163H74.6848V22.7651H72.8177H70.9505V21.0139V19.2628H72.8177V17.5116V15.7605V14.0093V12.2581V10.507H74.6848V8.75581H72.8177V7.00465V5.25348V3.50232V1.75116H74.6848V0H72.8177H70.9505Z" fill="#9E63E6"/>
<path d="M108.293 0H106.426H104.559H102.692V1.75116H104.559V3.50232V5.25348V7.00465V8.75581H106.426V10.507H104.559V12.2581V14.0093V15.7605V17.5116V19.2628H102.692V21.0139V22.7651H104.559H106.426V24.5163H104.559V26.2674V28.0186V29.7697V31.5209V33.2721H102.692V35.0232H104.559H106.426H108.293H110.16H112.027V33.2721H110.16V31.5209V29.7697V28.0186V26.2674V24.5163H112.027V22.7651H110.16H108.293V21.0139V19.2628H110.16V17.5116V15.7605V14.0093V12.2581V10.507H112.027V8.75581H110.16V7.00465V5.25348V3.50232V1.75116H112.027V0H110.16H108.293Z" fill="#9E63E6"/>
<path d="M147.502 1.75116H149.37V0H147.502H145.635H143.768V1.75116H145.635H147.502Z" fill="#9E63E6"/>
<path d="M207.25 0H205.383H203.516H201.649H199.782H197.915H196.048V1.75116V3.50232H194.18V5.25348V7.00465V8.75581H196.048V10.507H194.18V12.2581V14.0093V15.7605V17.5116V19.2628H192.313V21.0139V22.7651H194.18H196.048V24.5163H194.18V26.2674V28.0186V29.7697V31.5209H196.048V33.2721V35.0232H197.915H199.782H201.649H203.516H205.383H207.25V33.2721H209.117V31.5209V29.7697V28.0186H207.25V29.7697H205.383V31.5209V33.2721H203.516H201.649V31.5209V29.7697H199.782V28.0186V26.2674V24.5163H201.649V22.7651H199.782H197.915V21.0139V19.2628H199.782H201.649H203.516H205.383V17.5116H207.25V15.7605H205.383H203.516H201.649H199.782V14.0093V12.2581V10.507H201.649V8.75581H199.782V7.00465V5.25348H201.649V3.50232V1.75116H203.516H205.383V3.50232V5.25348H207.25V7.00465H209.117V5.25348V3.50232V1.75116H207.25V0Z" fill="#9E63E6"/>
<path d="M300.606 1.75116V0H298.739H296.872H295.005H293.138H291.271H289.404V1.75116V3.50232H287.536V5.25348V7.00465V8.75581H289.404V10.507H287.536V12.2581V14.0093V15.7605V17.5116V19.2628H285.669V21.0139V22.7651H287.536H289.404V24.5163H287.536V26.2674V28.0186V29.7697V31.5209H289.404V33.2721V35.0232H291.271H293.138H295.005H296.872H298.739H300.606V33.2721H302.473V31.5209V29.7697V28.0186H300.606V29.7697H298.739V31.5209V33.2721H296.872H295.005V31.5209V29.7697H293.138V28.0186V26.2674V24.5163H295.005V22.7651H293.138H291.271V21.0139V19.2628H293.138H295.005H296.872H298.739V17.5116H300.606V15.7605H298.739H296.872H295.005H293.138V14.0093V12.2581V10.507H295.005V8.75581H293.138V7.00465V5.25348H295.005V3.50232V1.75116H296.872H298.739V3.50232V5.25348H300.606V7.00465H302.473V5.25348V3.50232V1.75116H300.606Z" fill="#9E63E6"/>
<path d="M192.313 7.00465V5.25348V3.50232V1.75116H190.446V0H188.579H186.712H184.845H182.978H181.111H179.243V1.75116V3.50232H177.376V5.25348V7.00465V8.75581H179.243V10.507H177.376V12.2581V14.0093V15.7605H175.509V17.5116V19.2628V21.0139V22.7651H177.376H179.243V24.5163H177.376V26.2674V28.0186V29.7697V31.5209V33.2721H175.509V35.0232H177.376H179.243H181.111H182.978H184.845H186.712V33.2721H184.845H182.978V31.5209V29.7697V28.0186V26.2674V24.5163H184.845V22.7651H182.978H181.111V21.0139V19.2628H182.978H184.845H186.712H188.579V17.5116H190.446V15.7605H188.579H186.712H184.845H182.978V14.0093V12.2581V10.507H184.845V8.75581H182.978V7.00465V5.25348H184.845V3.50232V1.75116H186.712H188.579V3.50232V5.25348H190.446V7.00465H192.313Z" fill="#9E63E6"/>
<path d="M136.3 8.75581V7.00465V5.25348H134.433V3.50232V1.75116H132.565V0H130.698H128.831H126.964H125.097V1.75116H123.23V3.50232H121.363V5.25348V7.00465H119.496V8.75581H121.363V10.507H119.496V12.2581V14.0093V15.7605V17.5116V19.2628H117.629V21.0139V22.7651H119.496H121.363V24.5163H119.496V26.2674V28.0186H121.363V29.7697V31.5209H123.23V33.2721H125.097V35.0232H126.964H128.831H130.698H132.565V33.2721H134.433V31.5209V29.7697H136.3V28.0186V26.2674V24.5163H134.433H132.565V26.2674V28.0186V29.7697H130.698V31.5209V33.2721H128.831H126.964V31.5209V29.7697H125.097V28.0186V26.2674V24.5163H126.964V22.7651H125.097H123.23V21.0139V19.2628H125.097V17.5116V15.7605V14.0093V12.2581V10.507H126.964V8.75581H125.097V7.00465V5.25348H126.964V3.50232V1.75116H128.831H130.698V3.50232V5.25348H132.565V7.00465V8.75581H134.433V10.507H136.3H138.167V8.75581H136.3Z" fill="#9E63E6"/>
<path d="M285.669 8.75581V7.00465V5.25348H283.802V3.50232V1.75116H281.935V0H280.068H278.201H276.334H274.467V1.75116H272.599V3.50232H270.732V5.25348V7.00465H268.865V8.75581H270.732V10.507H268.865V12.2581V14.0093V15.7605V17.5116V19.2628H266.998V21.0139V22.7651H265.131V21.0139V19.2628H266.998V17.5116V15.7605V14.0093V12.2581V10.507H268.865V8.75581H266.998V7.00465V5.25348V3.50232V1.75116H265.131V0H263.264V1.75116H261.397V3.50232V5.25348V7.00465V8.75581H263.264V10.507H261.397V12.2581V14.0093V15.7605V17.5116V19.2628H259.53V21.0139H257.662V22.7651H259.53H261.397V24.5163H259.53V26.2674V28.0186H261.397V29.7697V31.5209V33.2721H263.264V35.0232H265.131V33.2721H266.998V31.5209V29.7697V28.0186V26.2674V24.5163H268.865V22.7651H270.732V24.5163H268.865V26.2674V28.0186H270.732V29.7697V31.5209H272.599V33.2721H274.467V35.0232H276.334H278.201H280.068H281.935V33.2721H283.802V31.5209V29.7697H285.669V28.0186V26.2674V24.5163H283.802H281.935V26.2674V28.0186V29.7697H280.068V31.5209V33.2721H278.201H276.334V31.5209V29.7697H274.467V28.0186V26.2674V24.5163H276.334V22.7651H274.467H272.599V21.0139V19.2628H274.467V17.5116V15.7605V14.0093V12.2581V10.507H276.334V8.75581H274.467V7.00465V5.25348H276.334V3.50232V1.75116H278.201H280.068V3.50232V5.25348H281.935V7.00465V8.75581H283.802V10.507H285.669H287.536V8.75581H285.669Z" fill="#9E63E6"/>
<path d="M164.306 17.5116V19.2628H166.174V17.5116V15.7604V14.0093H164.306V15.7604V17.5116Z" fill="#9E63E6"/>
<path d="M257.662 17.5116V19.2628H259.53V17.5116V15.7604V14.0093H257.662V15.7604V17.5116Z" fill="#9E63E6"/>
<path d="M164.307 19.2628H162.439V21.014H164.307V19.2628Z" fill="#9E63E6"/>
<path d="M257.662 19.2628H255.795V21.014H257.662V19.2628Z" fill="#9E63E6"/>
<path d="M13.0698 22.7651V21.0139V19.2628H14.937V17.5116V15.7605V14.0093V12.2581V10.507H16.8041V8.75581H14.937V7.00465V5.25348V3.50232V1.75116H16.8041V0H14.937H13.0698H11.2027H9.3356H7.46848H5.60136H3.73424H1.86712V1.75116H3.73424H5.60136H7.46848H9.3356V3.50232V5.25348V7.00465V8.75581H11.2027V10.507H9.3356V12.2581V14.0093V15.7605V17.5116V19.2628H7.46848V21.0139V22.7651H9.3356H11.2027V24.5163H9.3356V26.2674V28.0186V29.7697V31.5209V33.2721H7.46848H5.60136V31.5209V29.7697H3.73424V28.0186V26.2674V24.5163H1.86712H0V26.2674V28.0186V29.7697H1.86712V31.5209V33.2721H3.73424V35.0232H5.60136H7.46848H9.3356H11.2027V33.2721H13.0698V31.5209H14.937V29.7697V28.0186V26.2674V24.5163H16.8041V22.7651H14.937H13.0698Z" fill="#9E63E6"/>
<path d="M97.0902 22.7651V19.2628H98.9573V8.75581H97.0902V5.25348H95.2231V1.75116H93.356V0H87.7546V1.75116H85.8875V5.25348H84.0204V8.75581H85.8875V10.507H82.1533V19.2628H80.2861V22.7651H84.0204V24.5163H82.1533V33.2721H80.2861V35.0232H89.6217V33.2721H87.7546V24.5163H89.6217V22.7651H85.8875V19.2628H87.7546V17.5116H93.356V19.2628H91.4888V22.7651H95.2231V24.5163H93.356V33.2721H91.4888V35.0232H100.824V33.2721H98.9573V24.5163H100.824V22.7651H97.0902ZM91.4888 15.7605H87.7546V10.507H89.6217V8.75581H87.7546V5.25348H89.6217V1.75116H91.4888V5.25348H93.356V8.75581H95.2231V10.507H93.356V15.7605H91.4888Z" fill="#9E63E6"/>
<path d="M160.572 22.7651V21.0139V19.2628H162.439V17.5116V15.7605V14.0093H164.306V12.2581V10.507H166.174V8.75581H164.306V7.00465H162.439V5.25348V3.50232V1.75116H160.572V0H158.705V1.75116H156.838V3.50232V5.25348V7.00465V8.75581H158.705V10.507H156.838V12.2581V14.0093V15.7605V17.5116V19.2628H154.971V21.0139V22.7651H153.104V21.0139V19.2628H154.971V17.5116V15.7605V14.0093V12.2581V10.507H156.838V8.75581H154.971V7.00465V5.25348H153.104V3.50232V1.75116H151.237H149.37V3.50232V5.25348V7.00465V8.75581H151.237V10.507H149.37V12.2581V14.0093V15.7605V17.5116V19.2628H147.502V21.0139V22.7651H149.37H151.237V24.5163H149.37V26.2674V28.0186V29.7697V31.5209V33.2721H151.237H153.104V31.5209H154.971V29.7697V28.0186V26.2674V24.5163H156.838V22.7651H158.705V24.5163H156.838V26.2674V28.0186V29.7697V31.5209V33.2721H158.705V35.0232H160.572V33.2721H162.439V31.5209V29.7697V28.0186V26.2674V24.5163H164.306V22.7651H162.439H160.572Z" fill="#9E63E6"/>
<path d="M171.775 22.7651V21.0139V19.2628H173.642V17.5116V15.7605V14.0093V12.2581V10.507H175.509V8.75581H173.642V7.00465V5.25348V3.50232V1.75116H171.775V0H169.908V1.75116H168.041V3.50232V5.25348V7.00465V8.75581H169.908V10.507H168.041V12.2581V14.0093V15.7605V17.5116V19.2628H166.174V21.0139H164.306V22.7651H166.174H168.041V24.5163H166.174V26.2674V28.0186H168.041V29.7697V31.5209V33.2721H169.908V35.0232H171.775V33.2721H173.642V31.5209V29.7697V28.0186V26.2674V24.5163H175.509V22.7651H173.642H171.775Z" fill="#9E63E6"/>
<path d="M227.789 22.7651V21.0139H225.921V15.7605H227.789V14.0093H229.656V10.507H231.523V8.75581H229.656V3.50232H227.789V1.75116H225.921V0H214.719V1.75116H212.852V8.75581H214.719V10.507H212.852V19.2628H210.984V22.7651H214.719V24.5163H212.852V33.2721H210.984V35.0232H220.32V33.2721H218.453V24.5163H220.32V22.7651H216.586V19.2628H220.32V21.0139H222.187V22.7651H225.921V24.5163H224.054V33.2721H222.187V35.0232H231.523V33.2721H229.656V24.5163H231.523V22.7651H227.789ZM222.187 1.75116V3.50232H224.054V5.25348H225.921V8.75581H227.789V10.507H225.921V12.2581H224.054V14.0093H222.187V15.7605H218.453V10.507H220.32V8.75581H218.453V3.50232H220.32V1.75116H222.187Z" fill="#9E63E6"/>
<path d="M253.928 22.7651V21.0139V19.2628H255.795V17.5116V15.7605V14.0093H257.663V12.2581V10.507H259.53V8.75581H257.663V7.00465H255.795V5.25348V3.50232V1.75116H253.928V0H252.061V1.75116H250.194V3.50232V5.25348V7.00465V8.75581H252.061V10.507H250.194V12.2581V14.0093V15.7605V17.5116V19.2628H248.327V21.0139V22.7651H250.194H252.061V24.5163H250.194V26.2674V28.0186V29.7697V31.5209V33.2721H252.061V35.0232H253.928V33.2721H255.795V31.5209V29.7697V28.0186V26.2674V24.5163H257.663V22.7651H255.795H253.928Z" fill="#9E63E6"/>
<path d="M246.46 29.7697H244.593V31.5209V33.2721H242.726H240.858V31.5209V29.7697H238.991V28.0186V26.2674V24.5163H240.858V22.7651H238.991H237.124V21.0139V19.2628H238.991H240.858H242.726H244.593V17.5116H246.46V15.7605H244.593H242.726H240.858H238.991V14.0093V12.2581V10.507H240.858V8.75581H238.991V7.00465V5.25348H240.858V3.50232V1.75116H242.726H244.593V3.50232V5.25348H246.46V7.00465H248.327V5.25348V3.50232V1.75116H246.46V0H244.593H242.726H240.858H238.991H237.124H235.257V1.75116V3.50232H233.39V5.25348V7.00465V8.75581H235.257V10.507H233.39V12.2581V14.0093V15.7605V17.5116V19.2628H231.523V21.0139V22.7651H233.39H235.257V24.5163H233.39V26.2674V28.0186V29.7697V31.5209H235.257V33.2721V35.0232H237.124H238.991H240.858H242.726H244.593H246.46V33.2721H248.327V31.5209V29.7697V28.0186H246.46V29.7697Z" fill="#9E63E6"/>
<path d="M61.6149 29.7697V28.0186V26.2674V24.5163H63.482V22.7651H61.6149H59.7478V21.0139V19.2628H61.6149V17.5116V15.7605V14.0093V12.2581V10.507H63.482V8.75581H61.6149V7.00465V5.25348V3.50232V1.75116H63.482V0H61.6149H59.7478H57.8807H56.0136H54.1465V1.75116H56.0136V3.50232V5.25348V7.00465V8.75581H57.8807V10.507H56.0136V12.2581V14.0093V15.7605V17.5116V19.2628H54.1465V21.0139V22.7651H56.0136H57.8807V24.5163H56.0136V26.2674V28.0186V29.7697V31.5209H57.8807V33.2721H59.7478H61.6149V31.5209V29.7697Z" fill="#9E63E6"/>
<path d="M143.768 29.7698V28.0186V26.2675V24.5163H145.635V22.7652H143.768H141.901V21.014V19.2628H143.768V17.5117V15.7605V14.0094V12.2582V10.507H145.635V8.75587H143.768V7.00471V5.25354V3.50238V1.75122H141.901H140.034V3.50238V5.25354H138.167V7.00471V8.75587H140.034V10.507H138.167V12.2582V14.0094V15.7605V17.5117V19.2628H136.3V21.014V22.7652H138.167H140.034V24.5163H138.167V26.2675V28.0186V29.7698V31.521H140.034V33.2721H141.901H143.768V31.521V29.7698Z" fill="#9E63E6"/>
<path d="M63.482 33.2721H61.6149V35.0233H63.482H65.3492H67.2163V33.2721H65.3492H63.482Z" fill="#9E63E6"/>
<path d="M145.635 33.2721H143.768V35.0233H145.635H147.502H149.37V33.2721H147.502H145.635Z" fill="#9E63E6"/>
<path d="M33.0677 0H31.2006H29.3335H27.4663H25.5992H23.7321H21.865V1.75116V3.50232H19.9979V5.25348V7.00465V8.75581H21.865V10.507H19.9979V12.2581V14.0093V15.7605V17.5116V19.2628H18.1307V21.0139V22.7651H19.9979H21.865V24.5163H19.9979V26.2674V28.0186V29.7697V31.5209H21.865V33.2721V35.0232H23.7321H25.5992H27.4663H29.3335H31.2006H33.0677V33.2721H34.9348V31.5209V29.7697V28.0186H33.0677V29.7697H31.2006V31.5209V33.2721H29.3335H27.4663V31.5209V29.7697H25.5992V28.0186V26.2674V24.5163H27.4663V22.7651H25.5992H23.7321V21.0139V19.2628H25.5992H27.4663H29.3335H31.2006V17.5116H33.0677V15.7605H31.2006H29.3335H27.4663H25.5992V14.0093V12.2581V10.507H27.4663V8.75581H25.5992V7.00465V5.25348H27.4663V3.50232V1.75116H29.3335H31.2006V3.50232V5.25348H33.0677V7.00465H34.9348V5.25348V3.50232V1.75116H33.0677V0Z" fill="#63E679"/>
<path d="M49.8718 0H48.0047H46.1375H44.2704H42.4033H40.5362H38.6691V1.75116H40.5362H42.4033H44.2704H46.1375V3.50232V5.25348V7.00465V8.75581H48.0047V10.507H46.1375V12.2581V14.0093V15.7605V17.5116V19.2628H44.2704V21.0139V22.7651H46.1375H48.0047V24.5163H46.1375V26.2674V28.0186V29.7697V31.5209V33.2721H44.2704H42.4033V31.5209V29.7697H40.5362V28.0186V26.2674V24.5163H38.6691H36.8019V26.2674V28.0186V29.7697H38.6691V31.5209V33.2721H40.5362V35.0232H42.4033H44.2704H46.1375H48.0047V33.2721H49.8718V31.5209H51.7389V29.7697V28.0186V26.2674V24.5163H53.606V22.7651H51.7389H49.8718V21.0139V19.2628H51.7389V17.5116V15.7605V14.0093V12.2581V10.507H53.606V8.75581H51.7389V7.00465V5.25348V3.50232V1.75116H53.606V0H51.7389H49.8718Z" fill="#63E679"/>
<path d="M72.2772 0H70.4101H68.543H66.6758V1.75116H68.543V3.50232V5.25348V7.00465V8.75581H70.4101V10.507H68.543V12.2581V14.0093V15.7605V17.5116V19.2628H66.6758V21.0139V22.7651H68.543H70.4101V24.5163H68.543V26.2674V28.0186V29.7697V31.5209V33.2721H70.4101H72.2772V31.5209H74.1443V29.7697V28.0186V26.2674V24.5163H76.0114V22.7651H74.1443H72.2772V21.0139V19.2628H74.1443V17.5116V15.7605V14.0093V12.2581V10.507H76.0114V8.75581H74.1443V7.00465V5.25348V3.50232V1.75116H76.0114V0H74.1443H72.2772Z" fill="#63E679"/>
<path d="M109.62 0H107.752H105.885H104.018V1.75116H105.885V3.50232V5.25348V7.00465V8.75581H107.752V10.507H105.885V12.2581V14.0093V15.7605V17.5116V19.2628H104.018V21.0139V22.7651H105.885H107.752V24.5163H105.885V26.2674V28.0186V29.7697V31.5209V33.2721H104.018V35.0232H105.885H107.752H109.62H111.487H113.354V33.2721H111.487V31.5209V29.7697V28.0186V26.2674V24.5163H113.354V22.7651H111.487H109.62V21.0139V19.2628H111.487V17.5116V15.7605V14.0093V12.2581V10.507H113.354V8.75581H111.487V7.00465V5.25348V3.50232V1.75116H113.354V0H111.487H109.62Z" fill="#63E679"/>
<path d="M148.829 1.75116H150.696V0H148.829H146.962H145.095V1.75116H146.962H148.829Z" fill="#63E679"/>
<path d="M208.577 0H206.71H204.843H202.976H201.108H199.241H197.374V1.75116V3.50232H195.507V5.25348V7.00465V8.75581H197.374V10.507H195.507V12.2581V14.0093V15.7605V17.5116V19.2628H193.64V21.0139V22.7651H195.507H197.374V24.5163H195.507V26.2674V28.0186V29.7697V31.5209H197.374V33.2721V35.0232H199.241H201.108H202.976H204.843H206.71H208.577V33.2721H210.444V31.5209V29.7697V28.0186H208.577V29.7697H206.71V31.5209V33.2721H204.843H202.976V31.5209V29.7697H201.108V28.0186V26.2674V24.5163H202.976V22.7651H201.108H199.241V21.0139V19.2628H201.108H202.976H204.843H206.71V17.5116H208.577V15.7605H206.71H204.843H202.976H201.108V14.0093V12.2581V10.507H202.976V8.75581H201.108V7.00465V5.25348H202.976V3.50232V1.75116H204.843H206.71V3.50232V5.25348H208.577V7.00465H210.444V5.25348V3.50232V1.75116H208.577V0Z" fill="#63E679"/>
<path d="M301.933 1.75116V0H300.066H298.199H296.332H294.464H292.597H290.73V1.75116V3.50232H288.863V5.25348V7.00465V8.75581H290.73V10.507H288.863V12.2581V14.0093V15.7605V17.5116V19.2628H286.996V21.0139V22.7651H288.863H290.73V24.5163H288.863V26.2674V28.0186V29.7697V31.5209H290.73V33.2721V35.0232H292.597H294.464H296.332H298.199H300.066H301.933V33.2721H303.8V31.5209V29.7697V28.0186H301.933V29.7697H300.066V31.5209V33.2721H298.199H296.332V31.5209V29.7697H294.464V28.0186V26.2674V24.5163H296.332V22.7651H294.464H292.597V21.0139V19.2628H294.464H296.332H298.199H300.066V17.5116H301.933V15.7605H300.066H298.199H296.332H294.464V14.0093V12.2581V10.507H296.332V8.75581H294.464V7.00465V5.25348H296.332V3.50232V1.75116H298.199H300.066V3.50232V5.25348H301.933V7.00465H303.8V5.25348V3.50232V1.75116H301.933Z" fill="#63E679"/>
<path d="M193.64 7.00465V5.25348V3.50232V1.75116H191.773V0H189.906H188.039H186.171H184.304H182.437H180.57V1.75116V3.50232H178.703V5.25348V7.00465V8.75581H180.57V10.507H178.703V12.2581V14.0093V15.7605H176.836V17.5116V19.2628V21.0139V22.7651H178.703H180.57V24.5163H178.703V26.2674V28.0186V29.7697V31.5209V33.2721H176.836V35.0232H178.703H180.57H182.437H184.304H186.171H188.039V33.2721H186.171H184.304V31.5209V29.7697V28.0186V26.2674V24.5163H186.171V22.7651H184.304H182.437V21.0139V19.2628H184.304H186.171H188.039H189.906V17.5116H191.773V15.7605H189.906H188.039H186.171H184.304V14.0093V12.2581V10.507H186.171V8.75581H184.304V7.00465V5.25348H186.171V3.50232V1.75116H188.039H189.906V3.50232V5.25348H191.773V7.00465H193.64Z" fill="#63E679"/>
<path d="M137.626 8.75581V7.00465V5.25348H135.759V3.50232V1.75116H133.892V0H132.025H130.158H128.291H126.424V1.75116H124.557V3.50232H122.689V5.25348V7.00465H120.822V8.75581H122.689V10.507H120.822V12.2581V14.0093V15.7605V17.5116V19.2628H118.955V21.0139V22.7651H120.822H122.689V24.5163H120.822V26.2674V28.0186H122.689V29.7697V31.5209H124.557V33.2721H126.424V35.0232H128.291H130.158H132.025H133.892V33.2721H135.759V31.5209V29.7697H137.626V28.0186V26.2674V24.5163H135.759H133.892V26.2674V28.0186V29.7697H132.025V31.5209V33.2721H130.158H128.291V31.5209V29.7697H126.424V28.0186V26.2674V24.5163H128.291V22.7651H126.424H124.557V21.0139V19.2628H126.424V17.5116V15.7605V14.0093V12.2581V10.507H128.291V8.75581H126.424V7.00465V5.25348H128.291V3.50232V1.75116H130.158H132.025V3.50232V5.25348H133.892V7.00465V8.75581H135.759V10.507H137.626H139.494V8.75581H137.626Z" fill="#63E679"/>
<path d="M286.996 8.75581V7.00465V5.25348H285.129V3.50232V1.75116H283.262V0H281.395H279.527H277.66H275.793V1.75116H273.926V3.50232H272.059V5.25348V7.00465H270.192V8.75581H272.059V10.507H270.192V12.2581V14.0093V15.7605V17.5116V19.2628H268.325V21.0139V22.7651H266.458V21.0139V19.2628H268.325V17.5116V15.7605V14.0093V12.2581V10.507H270.192V8.75581H268.325V7.00465V5.25348V3.50232V1.75116H266.458V0H264.59V1.75116H262.723V3.50232V5.25348V7.00465V8.75581H264.59V10.507H262.723V12.2581V14.0093V15.7605V17.5116V19.2628H260.856V21.0139H258.989V22.7651H260.856H262.723V24.5163H260.856V26.2674V28.0186H262.723V29.7697V31.5209V33.2721H264.59V35.0232H266.458V33.2721H268.325V31.5209V29.7697V28.0186V26.2674V24.5163H270.192V22.7651H272.059V24.5163H270.192V26.2674V28.0186H272.059V29.7697V31.5209H273.926V33.2721H275.793V35.0232H277.66H279.527H281.395H283.262V33.2721H285.129V31.5209V29.7697H286.996V28.0186V26.2674V24.5163H285.129H283.262V26.2674V28.0186V29.7697H281.395V31.5209V33.2721H279.527H277.66V31.5209V29.7697H275.793V28.0186V26.2674V24.5163H277.66V22.7651H275.793H273.926V21.0139V19.2628H275.793V17.5116V15.7605V14.0093V12.2581V10.507H277.66V8.75581H275.793V7.00465V5.25348H277.66V3.50232V1.75116H279.527H281.395V3.50232V5.25348H283.262V7.00465V8.75581H285.129V10.507H286.996H288.863V8.75581H286.996Z" fill="#63E679"/>
<path d="M165.633 17.5116V19.2628H167.5V17.5116V15.7604V14.0093H165.633V15.7604V17.5116Z" fill="#63E679"/>
<path d="M258.989 17.5116V19.2628H260.856V17.5116V15.7604V14.0093H258.989V15.7604V17.5116Z" fill="#63E679"/>
<path d="M165.633 19.2628H163.766V21.014H165.633V19.2628Z" fill="#63E679"/>
<path d="M258.989 19.2628H257.122V21.014H258.989V19.2628Z" fill="#63E679"/>
<path d="M14.3965 22.7651V21.0139V19.2628H16.2636V17.5116V15.7605V14.0093V12.2581V10.507H18.1307V8.75581H16.2636V7.00465V5.25348V3.50232V1.75116H18.1307V0H16.2636H14.3965H12.5294H10.6623H8.79515H6.92803H5.06091H3.19379V1.75116H5.06091H6.92803H8.79515H10.6623V3.50232V5.25348V7.00465V8.75581H12.5294V10.507H10.6623V12.2581V14.0093V15.7605V17.5116V19.2628H8.79515V21.0139V22.7651H10.6623H12.5294V24.5163H10.6623V26.2674V28.0186V29.7697V31.5209V33.2721H8.79515H6.92803V31.5209V29.7697H5.06091V28.0186V26.2674V24.5163H3.19379H1.32668V26.2674V28.0186V29.7697H3.19379V31.5209V33.2721H5.06091V35.0232H6.92803H8.79515H10.6623H12.5294V33.2721H14.3965V31.5209H16.2636V29.7697V28.0186V26.2674V24.5163H18.1307V22.7651H16.2636H14.3965Z" fill="#63E679"/>
<path d="M98.4169 22.7651V19.2628H100.284V8.75581H98.4169V5.25348H96.5498V1.75116H94.6827V0H89.0813V1.75116H87.2142V5.25348H85.3471V8.75581H87.2142V10.507H83.4799V19.2628H81.6128V22.7651H85.3471V24.5163H83.4799V33.2721H81.6128V35.0232H90.9484V33.2721H89.0813V24.5163H90.9484V22.7651H87.2142V19.2628H89.0813V17.5116H94.6827V19.2628H92.8155V22.7651H96.5498V24.5163H94.6827V33.2721H92.8155V35.0232H102.151V33.2721H100.284V24.5163H102.151V22.7651H98.4169ZM92.8155 15.7605H89.0813V10.507H90.9484V8.75581H89.0813V5.25348H90.9484V1.75116H92.8155V5.25348H94.6827V8.75581H96.5498V10.507H94.6827V15.7605H92.8155Z" fill="#63E679"/>
<path d="M161.899 22.7651V21.0139V19.2628H163.766V17.5116V15.7605V14.0093H165.633V12.2581V10.507H167.5V8.75581H165.633V7.00465H163.766V5.25348V3.50232V1.75116H161.899V0H160.032V1.75116H158.165V3.50232V5.25348V7.00465V8.75581H160.032V10.507H158.165V12.2581V14.0093V15.7605V17.5116V19.2628H156.298V21.0139V22.7651H154.43V21.0139V19.2628H156.298V17.5116V15.7605V14.0093V12.2581V10.507H158.165V8.75581H156.298V7.00465V5.25348H154.43V3.50232V1.75116H152.563H150.696V3.50232V5.25348V7.00465V8.75581H152.563V10.507H150.696V12.2581V14.0093V15.7605V17.5116V19.2628H148.829V21.0139V22.7651H150.696H152.563V24.5163H150.696V26.2674V28.0186V29.7697V31.5209V33.2721H152.563H154.43V31.5209H156.298V29.7697V28.0186V26.2674V24.5163H158.165V22.7651H160.032V24.5163H158.165V26.2674V28.0186V29.7697V31.5209V33.2721H160.032V35.0232H161.899V33.2721H163.766V31.5209V29.7697V28.0186V26.2674V24.5163H165.633V22.7651H163.766H161.899Z" fill="#63E679"/>
<path d="M173.102 22.7651V21.0139V19.2628H174.969V17.5116V15.7605V14.0093V12.2581V10.507H176.836V8.75581H174.969V7.00465V5.25348V3.50232V1.75116H173.102V0H171.235V1.75116H169.367V3.50232V5.25348V7.00465V8.75581H171.235V10.507H169.367V12.2581V14.0093V15.7605V17.5116V19.2628H167.5V21.0139H165.633V22.7651H167.5H169.367V24.5163H167.5V26.2674V28.0186H169.367V29.7697V31.5209V33.2721H171.235V35.0232H173.102V33.2721H174.969V31.5209V29.7697V28.0186V26.2674V24.5163H176.836V22.7651H174.969H173.102Z" fill="#63E679"/>
<path d="M229.115 22.7651V21.0139H227.248V15.7605H229.115V14.0093H230.982V10.507H232.849V8.75581H230.982V3.50232H229.115V1.75116H227.248V0H216.045V1.75116H214.178V8.75581H216.045V10.507H214.178V19.2628H212.311V22.7651H216.045V24.5163H214.178V33.2721H212.311V35.0232H221.647V33.2721H219.78V24.5163H221.647V22.7651H217.913V19.2628H221.647V21.0139H223.514V22.7651H227.248V24.5163H225.381V33.2721H223.514V35.0232H232.849V33.2721H230.982V24.5163H232.849V22.7651H229.115ZM223.514 1.75116V3.50232H225.381V5.25348H227.248V8.75581H229.115V10.507H227.248V12.2581H225.381V14.0093H223.514V15.7605H219.78V10.507H221.647V8.75581H219.78V3.50232H221.647V1.75116H223.514Z" fill="#63E679"/>
<path d="M255.255 22.7651V21.0139V19.2628H257.122V17.5116V15.7605V14.0093H258.989V12.2581V10.507H260.856V8.75581H258.989V7.00465H257.122V5.25348V3.50232V1.75116H255.255V0H253.388V1.75116H251.521V3.50232V5.25348V7.00465V8.75581H253.388V10.507H251.521V12.2581V14.0093V15.7605V17.5116V19.2628H249.654V21.0139V22.7651H251.521H253.388V24.5163H251.521V26.2674V28.0186V29.7697V31.5209V33.2721H253.388V35.0232H255.255V33.2721H257.122V31.5209V29.7697V28.0186V26.2674V24.5163H258.989V22.7651H257.122H255.255Z" fill="#63E679"/>
<path d="M247.786 29.7697H245.919V31.5209V33.2721H244.052H242.185V31.5209V29.7697H240.318V28.0186V26.2674V24.5163H242.185V22.7651H240.318H238.451V21.0139V19.2628H240.318H242.185H244.052H245.919V17.5116H247.786V15.7605H245.919H244.052H242.185H240.318V14.0093V12.2581V10.507H242.185V8.75581H240.318V7.00465V5.25348H242.185V3.50232V1.75116H244.052H245.919V3.50232V5.25348H247.786V7.00465H249.654V5.25348V3.50232V1.75116H247.786V0H245.919H244.052H242.185H240.318H238.451H236.584V1.75116V3.50232H234.717V5.25348V7.00465V8.75581H236.584V10.507H234.717V12.2581V14.0093V15.7605V17.5116V19.2628H232.849V21.0139V22.7651H234.717H236.584V24.5163H234.717V26.2674V28.0186V29.7697V31.5209H236.584V33.2721V35.0232H238.451H240.318H242.185H244.052H245.919H247.786V33.2721H249.654V31.5209V29.7697V28.0186H247.786V29.7697Z" fill="#63E679"/>
<path d="M62.9416 29.7697V28.0186V26.2674V24.5163H64.8087V22.7651H62.9416H61.0745V21.0139V19.2628H62.9416V17.5116V15.7605V14.0093V12.2581V10.507H64.8087V8.75581H62.9416V7.00465V5.25348V3.50232V1.75116H64.8087V0H62.9416H61.0745H59.2074H57.3402H55.4731V1.75116H57.3402V3.50232V5.25348V7.00465V8.75581H59.2074V10.507H57.3402V12.2581V14.0093V15.7605V17.5116V19.2628H55.4731V21.0139V22.7651H57.3402H59.2074V24.5163H57.3402V26.2674V28.0186V29.7697V31.5209H59.2074V33.2721H61.0745H62.9416V31.5209V29.7697Z" fill="#63E679"/>
<path d="M145.095 29.7698V28.0186V26.2675V24.5163H146.962V22.7652H145.095H143.228V21.014V19.2628H145.095V17.5117V15.7605V14.0094V12.2582V10.507H146.962V8.75587H145.095V7.00471V5.25354V3.50238V1.75122H143.228H141.361V3.50238V5.25354H139.493V7.00471V8.75587H141.361V10.507H139.493V12.2582V14.0094V15.7605V17.5117V19.2628H137.626V21.014V22.7652H139.493H141.361V24.5163H139.493V26.2675V28.0186V29.7698V31.521H141.361V33.2721H143.228H145.095V31.521V29.7698Z" fill="#63E679"/>
<path d="M64.8087 33.2721H62.9416V35.0233H64.8087H66.6758H68.543V33.2721H66.6758H64.8087Z" fill="#63E679"/>
<path d="M146.962 33.2721H145.095V35.0233H146.962H148.829H150.696V33.2721H148.829H146.962Z" fill="#63E679"/>
<path d="M32.5369 0H30.6698H28.8027H26.9356H25.0685H23.2013H21.3342V1.75116V3.50232H19.4671V5.25348V7.00465V8.75581H21.3342V10.507H19.4671V12.2581V14.0093V15.7605V17.5116V19.2628H17.6V21.0139V22.7651H19.4671H21.3342V24.5163H19.4671V26.2674V28.0186V29.7697V31.5209H21.3342V33.2721V35.0232H23.2013H25.0685H26.9356H28.8027H30.6698H32.5369V33.2721H34.404V31.5209V29.7697V28.0186H32.5369V29.7697H30.6698V31.5209V33.2721H28.8027H26.9356V31.5209V29.7697H25.0685V28.0186V26.2674V24.5163H26.9356V22.7651H25.0685H23.2013V21.0139V19.2628H25.0685H26.9356H28.8027H30.6698V17.5116H32.5369V15.7605H30.6698H28.8027H26.9356H25.0685V14.0093V12.2581V10.507H26.9356V8.75581H25.0685V7.00465V5.25348H26.9356V3.50232V1.75116H28.8027H30.6698V3.50232V5.25348H32.5369V7.00465H34.404V5.25348V3.50232V1.75116H32.5369V0Z" fill="#6DF2CC"/>
<path d="M49.341 0H47.4739H45.6068H43.7396H41.8725H40.0054H38.1383V1.75116H40.0054H41.8725H43.7396H45.6068V3.50232V5.25348V7.00465V8.75581H47.4739V10.507H45.6068V12.2581V14.0093V15.7605V17.5116V19.2628H43.7396V21.0139V22.7651H45.6068H47.4739V24.5163H45.6068V26.2674V28.0186V29.7697V31.5209V33.2721H43.7396H41.8725V31.5209V29.7697H40.0054V28.0186V26.2674V24.5163H38.1383H36.2712V26.2674V28.0186V29.7697H38.1383V31.5209V33.2721H40.0054V35.0232H41.8725H43.7396H45.6068H47.4739V33.2721H49.341V31.5209H51.2081V29.7697V28.0186V26.2674V24.5163H53.0752V22.7651H51.2081H49.341V21.0139V19.2628H51.2081V17.5116V15.7605V14.0093V12.2581V10.507H53.0752V8.75581H51.2081V7.00465V5.25348V3.50232V1.75116H53.0752V0H51.2081H49.341Z" fill="#6DF2CC"/>
<path d="M71.7464 0H69.8793H68.0122H66.1451V1.75116H68.0122V3.50232V5.25348V7.00465V8.75581H69.8793V10.507H68.0122V12.2581V14.0093V15.7605V17.5116V19.2628H66.1451V21.0139V22.7651H68.0122H69.8793V24.5163H68.0122V26.2674V28.0186V29.7697V31.5209V33.2721H69.8793H71.7464V31.5209H73.6136V29.7697V28.0186V26.2674V24.5163H75.4807V22.7651H73.6136H71.7464V21.0139V19.2628H73.6136V17.5116V15.7605V14.0093V12.2581V10.507H75.4807V8.75581H73.6136V7.00465V5.25348V3.50232V1.75116H75.4807V0H73.6136H71.7464Z" fill="#6DF2CC"/>
<path d="M109.089 0H107.222H105.355H103.487V1.75116H105.355V3.50232V5.25348V7.00465V8.75581H107.222V10.507H105.355V12.2581V14.0093V15.7605V17.5116V19.2628H103.487V21.0139V22.7651H105.355H107.222V24.5163H105.355V26.2674V28.0186V29.7697V31.5209V33.2721H103.487V35.0232H105.355H107.222H109.089H110.956H112.823V33.2721H110.956V31.5209V29.7697V28.0186V26.2674V24.5163H112.823V22.7651H110.956H109.089V21.0139V19.2628H110.956V17.5116V15.7605V14.0093V12.2581V10.507H112.823V8.75581H110.956V7.00465V5.25348V3.50232V1.75116H112.823V0H110.956H109.089Z" fill="#6DF2CC"/>
<path d="M148.298 1.75116H150.165V0H148.298H146.431H144.564V1.75116H146.431H148.298Z" fill="#6DF2CC"/>
<path d="M208.046 0H206.179H204.312H202.445H200.578H198.711H196.843V1.75116V3.50232H194.976V5.25348V7.00465V8.75581H196.843V10.507H194.976V12.2581V14.0093V15.7605V17.5116V19.2628H193.109V21.0139V22.7651H194.976H196.843V24.5163H194.976V26.2674V28.0186V29.7697V31.5209H196.843V33.2721V35.0232H198.711H200.578H202.445H204.312H206.179H208.046V33.2721H209.913V31.5209V29.7697V28.0186H208.046V29.7697H206.179V31.5209V33.2721H204.312H202.445V31.5209V29.7697H200.578V28.0186V26.2674V24.5163H202.445V22.7651H200.578H198.711V21.0139V19.2628H200.578H202.445H204.312H206.179V17.5116H208.046V15.7605H206.179H204.312H202.445H200.578V14.0093V12.2581V10.507H202.445V8.75581H200.578V7.00465V5.25348H202.445V3.50232V1.75116H204.312H206.179V3.50232V5.25348H208.046V7.00465H209.913V5.25348V3.50232V1.75116H208.046V0Z" fill="#6DF2CC"/>
<path d="M301.402 1.75116V0H299.535H297.668H295.801H293.934H292.067H290.199V1.75116V3.50232H288.332V5.25348V7.00465V8.75581H290.199V10.507H288.332V12.2581V14.0093V15.7605V17.5116V19.2628H286.465V21.0139V22.7651H288.332H290.199V24.5163H288.332V26.2674V28.0186V29.7697V31.5209H290.199V33.2721V35.0232H292.067H293.934H295.801H297.668H299.535H301.402V33.2721H303.269V31.5209V29.7697V28.0186H301.402V29.7697H299.535V31.5209V33.2721H297.668H295.801V31.5209V29.7697H293.934V28.0186V26.2674V24.5163H295.801V22.7651H293.934H292.067V21.0139V19.2628H293.934H295.801H297.668H299.535V17.5116H301.402V15.7605H299.535H297.668H295.801H293.934V14.0093V12.2581V10.507H295.801V8.75581H293.934V7.00465V5.25348H295.801V3.50232V1.75116H297.668H299.535V3.50232V5.25348H301.402V7.00465H303.269V5.25348V3.50232V1.75116H301.402Z" fill="#6DF2CC"/>
<path d="M193.109 7.00465V5.25348V3.50232V1.75116H191.242V0H189.375H187.508H185.641H183.774H181.906H180.039V1.75116V3.50232H178.172V5.25348V7.00465V8.75581H180.039V10.507H178.172V12.2581V14.0093V15.7605H176.305V17.5116V19.2628V21.0139V22.7651H178.172H180.039V24.5163H178.172V26.2674V28.0186V29.7697V31.5209V33.2721H176.305V35.0232H178.172H180.039H181.906H183.774H185.641H187.508V33.2721H185.641H183.774V31.5209V29.7697V28.0186V26.2674V24.5163H185.641V22.7651H183.774H181.906V21.0139V19.2628H183.774H185.641H187.508H189.375V17.5116H191.242V15.7605H189.375H187.508H185.641H183.774V14.0093V12.2581V10.507H185.641V8.75581H183.774V7.00465V5.25348H185.641V3.50232V1.75116H187.508H189.375V3.50232V5.25348H191.242V7.00465H193.109Z" fill="#6DF2CC"/>
<path d="M137.096 8.75581V7.00465V5.25348H135.228V3.50232V1.75116H133.361V0H131.494H129.627H127.76H125.893V1.75116H124.026V3.50232H122.159V5.25348V7.00465H120.292V8.75581H122.159V10.507H120.292V12.2581V14.0093V15.7605V17.5116V19.2628H118.424V21.0139V22.7651H120.292H122.159V24.5163H120.292V26.2674V28.0186H122.159V29.7697V31.5209H124.026V33.2721H125.893V35.0232H127.76H129.627H131.494H133.361V33.2721H135.228V31.5209V29.7697H137.096V28.0186V26.2674V24.5163H135.228H133.361V26.2674V28.0186V29.7697H131.494V31.5209V33.2721H129.627H127.76V31.5209V29.7697H125.893V28.0186V26.2674V24.5163H127.76V22.7651H125.893H124.026V21.0139V19.2628H125.893V17.5116V15.7605V14.0093V12.2581V10.507H127.76V8.75581H125.893V7.00465V5.25348H127.76V3.50232V1.75116H129.627H131.494V3.50232V5.25348H133.361V7.00465V8.75581H135.228V10.507H137.096H138.963V8.75581H137.096Z" fill="#6DF2CC"/>
<path d="M286.465 8.75581V7.00465V5.25348H284.598V3.50232V1.75116H282.731V0H280.864H278.997H277.13H275.262V1.75116H273.395V3.50232H271.528V5.25348V7.00465H269.661V8.75581H271.528V10.507H269.661V12.2581V14.0093V15.7605V17.5116V19.2628H267.794V21.0139V22.7651H265.927V21.0139V19.2628H267.794V17.5116V15.7605V14.0093V12.2581V10.507H269.661V8.75581H267.794V7.00465V5.25348V3.50232V1.75116H265.927V0H264.06V1.75116H262.193V3.50232V5.25348V7.00465V8.75581H264.06V10.507H262.193V12.2581V14.0093V15.7605V17.5116V19.2628H260.325V21.0139H258.458V22.7651H260.325H262.193V24.5163H260.325V26.2674V28.0186H262.193V29.7697V31.5209V33.2721H264.06V35.0232H265.927V33.2721H267.794V31.5209V29.7697V28.0186V26.2674V24.5163H269.661V22.7651H271.528V24.5163H269.661V26.2674V28.0186H271.528V29.7697V31.5209H273.395V33.2721H275.262V35.0232H277.13H278.997H280.864H282.731V33.2721H284.598V31.5209V29.7697H286.465V28.0186V26.2674V24.5163H284.598H282.731V26.2674V28.0186V29.7697H280.864V31.5209V33.2721H278.997H277.13V31.5209V29.7697H275.262V28.0186V26.2674V24.5163H277.13V22.7651H275.262H273.395V21.0139V19.2628H275.262V17.5116V15.7605V14.0093V12.2581V10.507H277.13V8.75581H275.262V7.00465V5.25348H277.13V3.50232V1.75116H278.997H280.864V3.50232V5.25348H282.731V7.00465V8.75581H284.598V10.507H286.465H288.332V8.75581H286.465Z" fill="#6DF2CC"/>
<path d="M165.102 17.5116V19.2628H166.97V17.5116V15.7604V14.0093H165.102V15.7604V17.5116Z" fill="#6DF2CC"/>
<path d="M258.458 17.5116V19.2628H260.325V17.5116V15.7604V14.0093H258.458V15.7604V17.5116Z" fill="#6DF2CC"/>
<path d="M165.102 19.2628H163.235V21.014H165.102V19.2628Z" fill="#6DF2CC"/>
<path d="M258.458 19.2628H256.591V21.014H258.458V19.2628Z" fill="#6DF2CC"/>
<path d="M13.8657 22.7651V21.0139V19.2628H15.7329V17.5116V15.7605V14.0093V12.2581V10.507H17.6V8.75581H15.7329V7.00465V5.25348V3.50232V1.75116H17.6V0H15.7329H13.8657H11.9986H10.1315H8.26438H6.39726H4.53014H2.66303V1.75116H4.53014H6.39726H8.26438H10.1315V3.50232V5.25348V7.00465V8.75581H11.9986V10.507H10.1315V12.2581V14.0093V15.7605V17.5116V19.2628H8.26438V21.0139V22.7651H10.1315H11.9986V24.5163H10.1315V26.2674V28.0186V29.7697V31.5209V33.2721H8.26438H6.39726V31.5209V29.7697H4.53014V28.0186V26.2674V24.5163H2.66303H0.795906V26.2674V28.0186V29.7697H2.66303V31.5209V33.2721H4.53014V35.0232H6.39726H8.26438H10.1315H11.9986V33.2721H13.8657V31.5209H15.7329V29.7697V28.0186V26.2674V24.5163H17.6V22.7651H15.7329H13.8657Z" fill="#6DF2CC"/>
<path d="M97.8861 22.7651V19.2628H99.7532V8.75581H97.8861V5.25348H96.019V1.75116H94.1519V0H88.5505V1.75116H86.6834V5.25348H84.8163V8.75581H86.6834V10.507H82.9492V19.2628H81.082V22.7651H84.8163V24.5163H82.9492V33.2721H81.082V35.0232H90.4176V33.2721H88.5505V24.5163H90.4176V22.7651H86.6834V19.2628H88.5505V17.5116H94.1519V19.2628H92.2847V22.7651H96.019V24.5163H94.1519V33.2721H92.2847V35.0232H101.62V33.2721H99.7532V24.5163H101.62V22.7651H97.8861ZM92.2847 15.7605H88.5505V10.507H90.4176V8.75581H88.5505V5.25348H90.4176V1.75116H92.2847V5.25348H94.1519V8.75581H96.019V10.507H94.1519V15.7605H92.2847Z" fill="#6DF2CC"/>
<path d="M161.368 22.7651V21.0139V19.2628H163.235V17.5116V15.7605V14.0093H165.102V12.2581V10.507H166.97V8.75581H165.102V7.00465H163.235V5.25348V3.50232V1.75116H161.368V0H159.501V1.75116H157.634V3.50232V5.25348V7.00465V8.75581H159.501V10.507H157.634V12.2581V14.0093V15.7605V17.5116V19.2628H155.767V21.0139V22.7651H153.9V21.0139V19.2628H155.767V17.5116V15.7605V14.0093V12.2581V10.507H157.634V8.75581H155.767V7.00465V5.25348H153.9V3.50232V1.75116H152.033H150.165V3.50232V5.25348V7.00465V8.75581H152.033V10.507H150.165V12.2581V14.0093V15.7605V17.5116V19.2628H148.298V21.0139V22.7651H150.165H152.033V24.5163H150.165V26.2674V28.0186V29.7697V31.5209V33.2721H152.033H153.9V31.5209H155.767V29.7697V28.0186V26.2674V24.5163H157.634V22.7651H159.501V24.5163H157.634V26.2674V28.0186V29.7697V31.5209V33.2721H159.501V35.0232H161.368V33.2721H163.235V31.5209V29.7697V28.0186V26.2674V24.5163H165.102V22.7651H163.235H161.368Z" fill="#6DF2CC"/>
<path d="M172.571 22.7651V21.0139V19.2628H174.438V17.5116V15.7605V14.0093V12.2581V10.507H176.305V8.75581H174.438V7.00465V5.25348V3.50232V1.75116H172.571V0H170.704V1.75116H168.837V3.50232V5.25348V7.00465V8.75581H170.704V10.507H168.837V12.2581V14.0093V15.7605V17.5116V19.2628H166.97V21.0139H165.102V22.7651H166.97H168.837V24.5163H166.97V26.2674V28.0186H168.837V29.7697V31.5209V33.2721H170.704V35.0232H172.571V33.2721H174.438V31.5209V29.7697V28.0186V26.2674V24.5163H176.305V22.7651H174.438H172.571Z" fill="#6DF2CC"/>
<path d="M228.585 22.7651V21.0139H226.717V15.7605H228.585V14.0093H230.452V10.507H232.319V8.75581H230.452V3.50232H228.585V1.75116H226.717V0H215.515V1.75116H213.648V8.75581H215.515V10.507H213.648V19.2628H211.78V22.7651H215.515V24.5163H213.648V33.2721H211.78V35.0232H221.116V33.2721H219.249V24.5163H221.116V22.7651H217.382V19.2628H221.116V21.0139H222.983V22.7651H226.717V24.5163H224.85V33.2721H222.983V35.0232H232.319V33.2721H230.452V24.5163H232.319V22.7651H228.585ZM222.983 1.75116V3.50232H224.85V5.25348H226.717V8.75581H228.585V10.507H226.717V12.2581H224.85V14.0093H222.983V15.7605H219.249V10.507H221.116V8.75581H219.249V3.50232H221.116V1.75116H222.983Z" fill="#6DF2CC"/>
<path d="M254.724 22.7651V21.0139V19.2628H256.591V17.5116V15.7605V14.0093H258.458V12.2581V10.507H260.326V8.75581H258.458V7.00465H256.591V5.25348V3.50232V1.75116H254.724V0H252.857V1.75116H250.99V3.50232V5.25348V7.00465V8.75581H252.857V10.507H250.99V12.2581V14.0093V15.7605V17.5116V19.2628H249.123V21.0139V22.7651H250.99H252.857V24.5163H250.99V26.2674V28.0186V29.7697V31.5209V33.2721H252.857V35.0232H254.724V33.2721H256.591V31.5209V29.7697V28.0186V26.2674V24.5163H258.458V22.7651H256.591H254.724Z" fill="#6DF2CC"/>
<path d="M247.256 29.7697H245.389V31.5209V33.2721H243.521H241.654V31.5209V29.7697H239.787V28.0186V26.2674V24.5163H241.654V22.7651H239.787H237.92V21.0139V19.2628H239.787H241.654H243.521H245.389V17.5116H247.256V15.7605H245.389H243.521H241.654H239.787V14.0093V12.2581V10.507H241.654V8.75581H239.787V7.00465V5.25348H241.654V3.50232V1.75116H243.521H245.389V3.50232V5.25348H247.256V7.00465H249.123V5.25348V3.50232V1.75116H247.256V0H245.389H243.521H241.654H239.787H237.92H236.053V1.75116V3.50232H234.186V5.25348V7.00465V8.75581H236.053V10.507H234.186V12.2581V14.0093V15.7605V17.5116V19.2628H232.319V21.0139V22.7651H234.186H236.053V24.5163H234.186V26.2674V28.0186V29.7697V31.5209H236.053V33.2721V35.0232H237.92H239.787H241.654H243.521H245.389H247.256V33.2721H249.123V31.5209V29.7697V28.0186H247.256V29.7697Z" fill="#6DF2CC"/>
<path d="M62.4108 29.7697V28.0186V26.2674V24.5163H64.278V22.7651H62.4108H60.5437V21.0139V19.2628H62.4108V17.5116V15.7605V14.0093V12.2581V10.507H64.278V8.75581H62.4108V7.00465V5.25348V3.50232V1.75116H64.278V0H62.4108H60.5437H58.6766H56.8095H54.9424V1.75116H56.8095V3.50232V5.25348V7.00465V8.75581H58.6766V10.507H56.8095V12.2581V14.0093V15.7605V17.5116V19.2628H54.9424V21.0139V22.7651H56.8095H58.6766V24.5163H56.8095V26.2674V28.0186V29.7697V31.5209H58.6766V33.2721H60.5437H62.4108V31.5209V29.7697Z" fill="#6DF2CC"/>
<path d="M144.564 29.7698V28.0186V26.2675V24.5163H146.431V22.7652H144.564H142.697V21.014V19.2628H144.564V17.5117V15.7605V14.0094V12.2582V10.507H146.431V8.75587H144.564V7.00471V5.25354V3.50238V1.75122H142.697H140.83V3.50238V5.25354H138.963V7.00471V8.75587H140.83V10.507H138.963V12.2582V14.0094V15.7605V17.5117V19.2628H137.096V21.014V22.7652H138.963H140.83V24.5163H138.963V26.2675V28.0186V29.7698V31.521H140.83V33.2721H142.697H144.564V31.521V29.7698Z" fill="#6DF2CC"/>
<path d="M64.278 33.2721H62.4108V35.0233H64.278H66.1451H68.0122V33.2721H66.1451H64.278Z" fill="#6DF2CC"/>
<path d="M146.431 33.2721H144.564V35.0233H146.431H148.298H150.165V33.2721H148.298H146.431Z" fill="#6DF2CC"/>
</svg>
