<svg width="434" height="43" viewBox="0 0 434 43" fill="none" xmlns="http://www.w3.org/2000/svg">
<g clip-path="url(#clip0_181_1584)">
<path d="M182.924 41.8979C180.84 41.8979 179.157 40.3433 179.157 38.4146C179.157 29.8737 171.643 22.9071 162.403 22.9071C153.163 22.9071 145.649 29.854 145.649 38.4146C145.649 40.3433 143.965 41.8979 141.881 41.8979C139.798 41.8979 138.114 40.3433 138.114 38.4146C138.114 26.0165 149.017 15.9405 162.403 15.9405C175.789 15.9405 186.692 26.0165 186.692 38.4146C186.692 40.3433 185.008 41.8979 182.924 41.8979Z" fill="#9D0C0C"/>
<path d="M240.91 41.898C239.942 41.898 238.953 41.5634 238.216 40.8746L217.442 21.8838C215.948 20.5259 215.948 18.3021 217.442 16.9442C218.936 15.5863 221.357 15.5863 222.851 16.9442L240.931 33.4751L259.011 16.9442C260.505 15.5863 262.926 15.5863 264.42 16.9442C265.914 18.3021 265.914 20.5259 264.42 21.8838L243.646 40.8746C242.888 41.5634 241.92 41.898 240.952 41.898H240.91Z" fill="#9D0C0C"/>
<path d="M201.804 41.8979C199.678 41.8979 197.952 40.3432 197.952 38.4146V18.8728C197.952 16.9442 199.678 15.3895 201.804 15.3895C203.93 15.3895 205.655 16.9442 205.655 18.8728V38.4146C205.655 40.3432 203.93 41.8979 201.804 41.8979Z" fill="#9D0C0C"/>
<path d="M202.098 10.194C204.898 10.194 207.171 8.06865 207.171 5.45126C207.171 2.83387 204.898 0.708466 202.098 0.708466C199.299 0.708466 197.026 2.83387 197.026 5.45126C197.026 8.06865 199.299 10.194 202.098 10.194Z" fill="#9D0C0C"/>
<path d="M270.755 41.8389C273.555 41.8389 275.828 39.7135 275.828 37.0961C275.828 34.4787 273.555 32.3533 270.755 32.3533C267.956 32.3533 265.683 34.4787 265.683 37.0961C265.683 39.7135 267.956 41.8389 270.755 41.8389Z" fill="#9D0C0C"/>
<path d="M114.288 43C112.267 43 110.247 42.6261 108.311 41.8979C104.375 40.4023 101.302 37.5487 99.639 33.8883C97.9762 30.2279 97.9552 26.1739 99.5548 22.4741C101.154 18.7941 104.185 15.9011 108.079 14.3465C111.994 12.7918 116.309 12.7721 120.245 14.2677C124.18 15.7634 127.253 18.6169 128.916 22.2773C129.695 23.9895 128.832 25.9771 127.001 26.7053L108.374 34.0851C109.131 34.7346 110.015 35.2659 111.005 35.6398C113.151 36.4664 115.53 36.4467 117.656 35.6005C119.634 34.8133 121.234 33.3767 122.139 31.5661C122.981 29.8737 125.128 29.1652 126.917 29.9524C128.706 30.7396 129.484 32.7469 128.642 34.4394C126.98 37.7652 124.054 40.3826 120.455 41.8192C118.455 42.6064 116.372 43 114.267 43H114.288ZM110.899 20.5652C108.753 21.4114 107.09 22.9858 106.227 25.0128C105.827 25.9378 105.616 26.9021 105.595 27.8664L120.202 22.0806C119.445 21.4311 118.561 20.9195 117.571 20.5259C116.372 20.0535 113.804 19.4238 110.92 20.5652H110.899Z" fill="#9D0C0C"/>
<path d="M86.8631 15.8815C84.7584 15.8815 83.0535 17.4362 83.0535 19.3648C83.0535 27.9057 75.4554 34.8723 66.1103 34.8723C56.7652 34.8723 49.167 27.9254 49.167 19.3648C49.167 17.4362 47.4622 15.8815 45.3574 15.8815C43.2527 15.8815 41.5478 17.4362 41.5478 19.3648C41.5478 27.9057 33.9497 34.8723 24.6046 34.8723C15.2595 34.8723 7.6192 27.9057 7.6192 19.3648C7.6192 17.4362 5.91435 15.8815 3.8096 15.8815C1.70485 15.8815 0 17.4362 0 19.3648C0 31.7629 11.0289 41.8389 24.5835 41.8389C33.3182 41.8389 40.9795 37.6471 45.3364 31.3693C49.6932 37.6471 57.3756 41.8389 66.0892 41.8389C79.6438 41.8389 90.6727 31.7629 90.6727 19.3648C90.6727 17.4362 88.9679 15.8815 86.8631 15.8815Z" fill="#9D0C0C"/>
<path d="M296.433 4.13281C296.433 7.39963 294.055 9.99734 290.624 10.4106L290.624 8.75752C292.939 8.32457 294.413 6.63212 294.56 4.46737L292.497 4.46736L292.497 0.787274L296.433 0.787274L296.433 4.13281Z" fill="#9D0C0C"/>
<path d="M291.656 8.25103e-05L297.275 8.29697e-05L297.275 4.13281C297.275 7.8129 294.581 10.7255 290.729 11.1978L289.782 11.3159L289.782 8.10809L290.456 7.99001C292.034 7.69482 293.171 6.67148 293.571 5.25454L291.635 5.25454L291.635 8.25086e-05L291.656 8.25103e-05ZM295.591 1.57445L293.339 1.57445L293.339 3.68017L295.465 3.68017L295.402 4.5264C295.234 6.86827 293.718 8.71816 291.466 9.38727L291.466 9.46599C293.929 8.7772 295.591 6.71084 295.591 4.15249L295.591 1.59413L295.591 1.57445Z" fill="#9D0C0C"/>
<path d="M326.089 20.1716H323.963C323.816 17.2984 319.565 15.0746 314.05 15.0746C308.536 15.0746 304.747 17.2984 304.747 20.1716C304.747 23.0448 306.473 25.1702 315.145 26.1149C323.816 27.0595 326.805 29.6572 326.805 33.3963C326.805 38.2178 321.354 41.0517 314.429 41.0517C306.641 41.0517 302.495 37.6078 302.053 33.7702H304.221C304.516 36.2696 307.504 39.2412 314.576 39.2412C320.343 39.2412 324.679 36.8796 324.679 33.4751C324.679 30.4444 322.364 28.7913 313.924 27.8073C305.378 26.8233 302.6 24.2256 302.6 20.3487C302.6 16.0586 307.441 13.2641 314.176 13.2641C320.912 13.2641 325.9 16.3341 326.047 20.1519L326.089 20.1716Z" fill="#9D0C0C"/>
<path d="M314.45 41.8389C305.968 41.8389 301.716 37.8243 301.232 33.8686L301.127 33.0027H305L305.084 33.6915C305.379 36.0728 308.43 38.4737 314.597 38.4737C319.964 38.4737 323.858 36.3876 323.858 33.4947C323.858 31.1529 322.217 29.5982 313.84 28.6142C305.505 27.6499 301.779 25.1112 301.779 20.3684C301.779 15.6256 306.873 12.4966 314.197 12.4966C321.522 12.4966 326.742 15.7831 326.91 20.1519L326.952 20.9588H323.164L323.122 20.211C322.995 17.7707 319.017 15.8618 314.05 15.8618C309.083 15.8618 305.589 17.751 305.589 20.1716C305.589 22.2577 306.326 24.3634 315.25 25.3474C323.711 26.2723 327.668 28.8307 327.668 33.3963C327.668 38.4343 322.364 41.8389 314.45 41.8389ZM303.084 34.5574C303.926 37.3519 307.252 40.2645 314.45 40.2645C320.196 40.2645 325.984 38.1391 325.984 33.3963C325.984 30.9364 324.742 27.9648 315.06 26.9021C307.041 26.0362 303.905 24.1469 303.905 20.1716C303.905 16.8064 308.262 14.2874 314.05 14.2874C319.838 14.2874 323.9 16.4325 324.679 19.3844H325.121C324.342 16.2947 319.859 14.0709 314.218 14.0709C307.904 14.0709 303.484 16.6687 303.484 20.3684C303.484 23.0645 304.747 25.9771 314.05 27.0595C322.427 28.0435 325.542 29.795 325.542 33.5144C325.542 37.2339 320.933 40.0677 314.597 40.0677C307.925 40.0677 304.347 37.411 303.547 34.5968H303.084V34.5574Z" fill="#9D0C0C"/>
<path d="M364.017 41.0517C355.893 41.0517 349.873 35.0494 349.873 27.1579C349.873 19.2664 355.83 13.2641 363.87 13.2641C369.973 13.2641 374.941 16.9442 376.603 22.3364H374.436C372.92 18.0462 368.984 15.114 363.87 15.114C356.84 15.114 351.999 20.3094 351.999 27.1579C351.999 34.0064 356.84 39.2018 363.87 39.2018C369.026 39.2018 373.067 36.1712 374.478 31.881H376.646C375.088 37.3126 370.121 41.0517 364.017 41.0517Z" fill="#9D0C0C"/>
<path d="M364.017 41.8389C355.472 41.8389 349.031 35.5217 349.031 27.1579C349.031 18.7941 355.409 12.4769 363.87 12.4769C370.289 12.4769 375.593 16.2554 377.403 22.1199L377.719 23.1236H373.825L373.636 22.5922C372.183 18.4595 368.437 15.9012 363.87 15.9012C357.471 15.9012 352.841 20.6439 352.841 27.1579C352.841 33.6719 357.471 38.4147 363.87 38.4147C368.479 38.4147 372.331 35.7579 373.678 31.6449L373.867 31.0938H377.761L377.466 32.0778C375.783 37.903 370.394 41.8192 364.017 41.8192V41.8389ZM363.87 14.0709C356.377 14.0709 350.715 19.6993 350.715 27.1776C350.715 34.6558 356.44 40.2842 364.017 40.2842C369.321 40.2842 373.72 37.3323 375.509 32.6879H375.088C373.362 37.1552 369.026 40.0087 363.87 40.0087C356.503 40.0087 351.157 34.6165 351.157 27.1776C351.157 19.7387 356.503 14.3465 363.87 14.3465C368.984 14.3465 373.194 17.1016 375.025 21.5689H375.446C373.573 16.9835 369.153 14.0709 363.891 14.0709H363.87Z" fill="#9D0C0C"/>
<path d="M384.875 29.5785V13.9529H387.001V29.2636C387.001 35.7382 390.642 39.2215 396.388 39.2215C402.66 39.2215 407.543 33.2783 407.543 27.7483V13.9529H409.669V40.4023H407.543V33.8293C406.933 36.1909 402.955 41.0517 395.925 41.0517C389.463 41.0517 384.854 36.5254 384.854 29.5785H384.875Z" fill="#9D0C0C"/>
<path d="M395.946 41.8389C388.937 41.8389 384.033 36.8009 384.033 29.5785V13.146H387.843V29.2439C387.843 35.0691 390.958 38.4146 396.388 38.4146C402.302 38.4146 406.701 32.7666 406.701 27.7286V13.146H410.511V41.1698H406.701V36.9584C404.702 39.3789 401.04 41.8192 395.925 41.8192L395.946 41.8389ZM385.717 14.7204V29.5588C385.717 35.9547 389.821 40.2449 395.946 40.2449C402.071 40.2449 406.175 35.8563 406.743 33.6128V33.5735C404.702 37.1551 400.934 39.9693 396.388 39.9693C389.969 39.9693 386.138 35.9547 386.138 29.2243V14.7007H385.696L385.717 14.7204ZM408.406 39.5954H408.848V14.7204H408.406V39.5954Z" fill="#9D0C0C"/>
<path d="M433.158 15.7831H426.297V40.3826H424.171V15.7831H417.309V13.9332H424.171V5.70709H426.297V13.9332H433.158V15.7831Z" fill="#9D0C0C"/>
<path d="M427.139 41.1698H423.329V16.5702H416.467V13.146H423.329V4.91991H427.139V13.146H434V16.5702H427.139V41.1698ZM425.013 39.5954H425.455V14.9959H432.316V14.7204H425.455V6.49428H425.013V14.7204H418.151V14.9959H425.013V39.5954Z" fill="#9D0C0C"/>
</g>
<defs>
<clipPath id="clip0_181_1584">
<rect width="434" height="43" fill="white"/>
</clipPath>
</defs>
</svg>
