<svg width="360" height="588" viewBox="0 0 360 588" fill="none" xmlns="http://www.w3.org/2000/svg">
<g clip-path="url(#clip0_181_4215)">
<path d="M220.504 586.871C219.677 586.871 218.967 587.33 218.583 588H222.424C222.04 587.33 221.33 586.871 220.504 586.871Z" fill="#F2F2F2"/>
<path d="M96.6778 447.444C98.9826 447.444 100.845 445.563 100.845 443.234C100.845 440.906 98.9826 439.024 96.6778 439.024C94.3731 439.024 92.5107 440.906 92.5107 443.234C92.5107 445.563 94.3731 447.444 96.6778 447.444Z" fill="#F2F2F2"/>
<path d="M132.156 485.97C133.541 485.97 134.67 484.83 134.67 483.43C134.67 482.031 133.541 480.89 132.156 480.89C130.771 480.89 129.642 482.031 129.642 483.43C129.642 484.83 130.771 485.97 132.156 485.97Z" fill="#F2F2F2"/>
<path d="M157.17 472.411C159.126 472.411 160.709 470.812 160.709 468.836C160.709 466.86 159.126 465.261 157.17 465.261C155.215 465.261 153.632 466.86 153.632 468.836C153.632 470.812 155.215 472.411 157.17 472.411Z" fill="#F2F2F2"/>
<path d="M115.325 294.612C117.909 294.612 119.993 292.495 119.993 289.896C119.993 287.297 117.897 285.18 115.325 285.18C112.752 285.18 110.657 287.297 110.657 289.896C110.657 292.495 112.752 294.612 115.325 294.612Z" fill="#F2F2F2"/>
<path d="M127.594 427.911C129.77 427.911 131.528 426.135 131.528 423.936C131.528 421.737 129.77 419.961 127.594 419.961C125.417 419.961 123.659 421.737 123.659 423.936C123.659 426.135 125.417 427.911 127.594 427.911Z" fill="#F2F2F2"/>
<path d="M347.706 413.129C348.905 413.129 349.883 412.141 349.883 410.93C349.883 409.718 348.905 408.731 347.706 408.731C346.507 408.731 345.529 409.718 345.529 410.93C345.529 412.141 346.507 413.129 347.706 413.129Z" fill="#F2F2F2"/>
<path d="M121.447 257.379C122.547 257.379 123.438 256.479 123.438 255.368C123.438 254.258 122.547 253.357 121.447 253.357C120.348 253.357 119.457 254.258 119.457 255.368C119.457 256.479 120.348 257.379 121.447 257.379Z" fill="#F2F2F2"/>
<path d="M5.46661 414.81C5.46661 412.223 3.39469 410.13 0.833887 410.13C-1.72691 410.13 -3.79883 412.223 -3.79883 414.81C-3.79883 417.398 -1.72691 419.491 0.833887 419.491C3.39469 419.491 5.46661 417.398 5.46661 414.81Z" fill="#F2F2F2"/>
<path d="M111.006 473.822C111.006 471.223 108.923 469.118 106.35 469.118C103.778 469.118 101.694 471.223 101.694 473.822C101.694 476.421 103.778 478.526 106.35 478.526C108.923 478.526 111.006 476.421 111.006 473.822Z" fill="#F2F2F2"/>
<path d="M363.513 38.7492C363.513 37.7496 362.71 36.9382 361.72 36.9382C360.731 36.9382 359.928 37.7496 359.928 38.7492C359.928 39.7488 360.731 40.5602 361.72 40.5602C362.71 40.5602 363.513 39.7488 363.513 38.7492Z" fill="#F2F2F2"/>
<path d="M197.306 444.775C197.306 442.164 195.21 440.036 192.615 440.036C190.019 440.036 187.924 442.152 187.924 444.775C187.924 447.397 190.019 449.514 192.615 449.514C195.21 449.514 197.306 447.397 197.306 444.775Z" fill="#F2F2F2"/>
<path d="M278.972 28.9884C281.029 28.9884 282.697 27.3036 282.697 25.2252C282.697 23.1468 281.029 21.462 278.972 21.462C276.915 21.462 275.247 23.1468 275.247 25.2252C275.247 27.3036 276.915 28.9884 278.972 28.9884Z" fill="#F2F2F2"/>
<path d="M42.2837 119.423C43.9947 119.423 45.3915 118.023 45.3915 116.283C45.3915 114.542 44.0064 113.143 42.2837 113.143C40.5609 113.143 39.1758 114.542 39.1758 116.283C39.1758 118.023 40.5609 119.423 42.2837 119.423Z" fill="#F2F2F2"/>
<path d="M228.896 282.628C230.497 282.628 231.795 281.317 231.795 279.7C231.795 278.083 230.497 276.772 228.896 276.772C227.296 276.772 225.998 278.083 225.998 279.7C225.998 281.317 227.296 282.628 228.896 282.628Z" fill="#F2F2F2"/>
<path d="M239.57 55.7542C239.57 53.0494 237.393 50.8503 234.716 50.8503C232.039 50.8503 229.862 53.0494 229.862 55.7542C229.862 58.459 232.039 60.6581 234.716 60.6581C237.393 60.6581 239.57 58.459 239.57 55.7542Z" fill="#F2F2F2"/>
<path d="M75.4463 431.592C77.8441 431.592 79.7764 429.628 79.7764 427.217C79.7764 424.806 77.8325 422.843 75.4463 422.843C73.0601 422.843 71.1162 424.806 71.1162 427.217C71.1162 429.628 73.0601 431.592 75.4463 431.592Z" fill="#F2F2F2"/>
<path d="M241.572 114.719C239.256 114.719 237.382 116.612 237.382 118.952C237.382 121.293 239.256 123.186 241.572 123.186C243.889 123.186 245.763 121.293 245.763 118.952C245.763 116.612 243.889 114.719 241.572 114.719Z" fill="#F2F2F2"/>
<path d="M115.604 555.143C117.059 555.143 118.246 553.955 118.246 552.473C118.246 550.991 117.071 549.803 115.604 549.803C114.138 549.803 112.962 550.991 112.962 552.473C112.962 553.955 114.138 555.143 115.604 555.143Z" fill="#F2F2F2"/>
<path d="M297.199 261.178C297.199 259.167 295.581 257.544 293.603 257.544C291.624 257.544 290.006 259.179 290.006 261.178C290.006 263.177 291.624 264.812 293.603 264.812C295.581 264.812 297.199 263.177 297.199 261.178Z" fill="#F2F2F2"/>
<path d="M249.93 235.764C251.048 235.764 251.955 234.848 251.955 233.718C251.955 232.588 251.048 231.672 249.93 231.672C248.811 231.672 247.904 232.588 247.904 233.718C247.904 234.848 248.811 235.764 249.93 235.764Z" fill="#F2F2F2"/>
<path d="M316.068 57.3535C317.746 57.3535 319.106 55.9793 319.106 54.2842C319.106 52.589 317.746 51.2148 316.068 51.2148C314.39 51.2148 313.03 52.589 313.03 54.2842C313.03 55.9793 314.39 57.3535 316.068 57.3535Z" fill="#F2F2F2"/>
<path d="M279.821 79.133C279.821 78.0394 278.948 77.1574 277.866 77.1574C276.783 77.1574 275.91 78.0394 275.91 79.133C275.91 80.2267 276.783 81.1087 277.866 81.1087C278.948 81.1087 279.821 80.2267 279.821 79.133Z" fill="#F2F2F2"/>
<path d="M99.4365 100.842C99.4365 101.9 100.286 102.759 101.334 102.759C102.381 102.759 103.231 101.9 103.231 100.842C103.231 99.7836 102.381 98.9251 101.334 98.9251C100.286 98.9251 99.4365 99.7836 99.4365 100.842Z" fill="#F2F2F2"/>
<path d="M88.3663 376.144C89.3949 376.144 90.2287 375.301 90.2287 374.262C90.2287 373.223 89.3949 372.38 88.3663 372.38C87.3377 372.38 86.5039 373.223 86.5039 374.262C86.5039 375.301 87.3377 376.144 88.3663 376.144Z" fill="#F2F2F2"/>
<path d="M93.3256 353.082C94.4892 353.082 95.4324 352.129 95.4324 350.954C95.4324 349.778 94.4892 348.825 93.3256 348.825C92.162 348.825 91.2188 349.778 91.2188 350.954C91.2188 352.129 92.162 353.082 93.3256 353.082Z" fill="#F2F2F2"/>
<path d="M127.279 362.114C127.279 363.137 128.106 363.972 129.118 363.972C130.131 363.972 130.958 363.137 130.958 362.114C130.958 361.091 130.131 360.256 129.118 360.256C128.106 360.256 127.279 361.091 127.279 362.114Z" fill="#F2F2F2"/>
<path d="M18.7596 394.242C20.0516 394.242 21.0992 393.184 21.0992 391.878C21.0992 390.573 20.0516 389.515 18.7596 389.515C17.4675 389.515 16.4199 390.573 16.4199 391.878C16.4199 393.184 17.4675 394.242 18.7596 394.242Z" fill="#F2F2F2"/>
<path d="M17.7469 215.784C20.0749 215.784 21.9606 213.879 21.9606 211.527C21.9606 209.175 20.0749 207.27 17.7469 207.27C15.4189 207.27 13.5332 209.175 13.5332 211.527C13.5332 213.879 15.4189 215.784 17.7469 215.784Z" fill="#F2F2F2"/>
<path d="M161.699 154.526C164.224 154.526 166.273 152.457 166.273 149.905C166.273 147.353 164.224 145.283 161.699 145.283C159.173 145.283 157.124 147.353 157.124 149.905C157.124 152.457 159.173 154.526 161.699 154.526Z" fill="#F2F2F2"/>
<path d="M274.501 370.793C274.501 369.723 273.64 368.852 272.581 368.852C271.522 368.852 270.66 369.723 270.66 370.793C270.66 371.863 271.522 372.733 272.581 372.733C273.64 372.733 274.501 371.863 274.501 370.793Z" fill="#F2F2F2"/>
<path d="M272.348 502.481C272.348 500.2 270.521 498.354 268.262 498.354C266.004 498.354 264.177 500.2 264.177 502.481C264.177 504.763 266.004 506.609 268.262 506.609C270.521 506.609 272.348 504.763 272.348 502.481Z" fill="#F2F2F2"/>
<path d="M120.563 455.712C121.778 455.712 122.763 454.717 122.763 453.489C122.763 452.262 121.778 451.266 120.563 451.266C119.348 451.266 118.363 452.262 118.363 453.489C118.363 454.717 119.348 455.712 120.563 455.712Z" fill="#F2F2F2"/>
<path d="M80.1136 288.896C79.0194 288.896 78.1348 289.79 78.1348 290.895C78.1348 292.001 79.0194 292.895 80.1136 292.895C81.2077 292.895 82.0924 292.001 82.0924 290.895C82.0924 289.79 81.2077 288.896 80.1136 288.896Z" fill="#F2F2F2"/>
<path d="M293.591 195.087C296.187 195.087 298.294 192.958 298.294 190.336C298.294 187.713 296.187 185.585 293.591 185.585C290.995 185.585 288.889 187.713 288.889 190.336C288.889 192.958 290.995 195.087 293.591 195.087Z" fill="#F2F2F2"/>
<path d="M99.0992 509.079C101.368 509.079 103.208 507.22 103.208 504.927C103.208 502.635 101.368 500.776 99.0992 500.776C96.8299 500.776 94.9902 502.635 94.9902 504.927C94.9902 507.22 96.8299 509.079 99.0992 509.079Z" fill="#F2F2F2"/>
<path d="M33.4372 425.888C35.7708 425.888 37.6625 423.977 37.6625 421.619C37.6625 419.262 35.7708 417.351 33.4372 417.351C31.1037 417.351 29.2119 419.262 29.2119 421.619C29.2119 423.977 31.1037 425.888 33.4372 425.888Z" fill="#F2F2F2"/>
<path d="M228.768 526.907C230.259 526.907 231.468 525.685 231.468 524.179C231.468 522.672 230.259 521.45 228.768 521.45C227.276 521.45 226.067 522.672 226.067 524.179C226.067 525.685 227.276 526.907 228.768 526.907Z" fill="#F2F2F2"/>
<path d="M153.306 341.804C151.048 341.804 149.221 343.651 149.221 345.932C149.221 348.214 151.048 350.06 153.306 350.06C155.565 350.06 157.392 348.214 157.392 345.932C157.392 343.651 155.565 341.804 153.306 341.804Z" fill="#F2F2F2"/>
<path d="M66.9142 498.871C66.9142 496.707 65.1682 494.943 63.0264 494.943C60.8847 494.943 59.1387 496.707 59.1387 498.871C59.1387 501.035 60.8847 502.799 63.0264 502.799C65.1682 502.799 66.9142 501.035 66.9142 498.871Z" fill="#F2F2F2"/>
<path d="M65.8319 16.3582C64.2256 16.3582 62.9219 17.6753 62.9219 19.2982C62.9219 20.921 64.2256 22.2382 65.8319 22.2382C67.4382 22.2382 68.7419 20.921 68.7419 19.2982C68.7419 17.6753 67.4382 16.3582 65.8319 16.3582Z" fill="#F2F2F2"/>
<path d="M356.68 72.9943C358.326 72.9943 359.66 71.6464 359.66 69.9838C359.66 68.3211 358.326 66.9732 356.68 66.9732C355.034 66.9732 353.7 68.3211 353.7 69.9838C353.7 71.6464 355.034 72.9943 356.68 72.9943Z" fill="#F2F2F2"/>
<path d="M329.187 553.108C327.941 553.108 326.929 554.131 326.929 555.39C326.929 556.648 327.941 557.671 329.187 557.671C330.432 557.671 331.445 556.648 331.445 555.39C331.445 554.131 330.432 553.108 329.187 553.108Z" fill="#F2F2F2"/>
<path d="M70.5805 165.04C70.5805 163.77 69.5561 162.735 68.299 162.735C67.0419 162.735 66.0176 163.77 66.0176 165.04C66.0176 166.31 67.0419 167.345 68.299 167.345C69.5561 167.345 70.5805 166.31 70.5805 165.04Z" fill="#F2F2F2"/>
<path d="M199.436 340.828C198.26 340.828 197.306 341.793 197.306 342.98C197.306 344.168 198.26 345.133 199.436 345.133C200.611 345.133 201.566 344.168 201.566 342.98C201.566 341.793 200.611 340.828 199.436 340.828Z" fill="#F2F2F2"/>
<path d="M30.7251 474.951C32.2808 474.951 33.542 473.677 33.542 472.105C33.542 470.533 32.2808 469.259 30.7251 469.259C29.1694 469.259 27.9082 470.533 27.9082 472.105C27.9082 473.677 29.1694 474.951 30.7251 474.951Z" fill="#F2F2F2"/>
<path d="M209.597 158.936C212.04 158.936 214.02 156.936 214.02 154.468C214.02 152 212.04 149.999 209.597 149.999C207.154 149.999 205.174 152 205.174 154.468C205.174 156.936 207.154 158.936 209.597 158.936Z" fill="#F2F2F2"/>
<path d="M321.667 161.724C320.468 161.724 319.502 162.7 319.502 163.911C319.502 165.122 320.468 166.098 321.667 166.098C322.866 166.098 323.832 165.122 323.832 163.911C323.832 162.7 322.866 161.724 321.667 161.724Z" fill="#F2F2F2"/>
<path d="M110.657 136.251C109.237 136.251 108.097 137.416 108.097 138.839C108.097 140.261 109.249 141.426 110.657 141.426C112.066 141.426 113.218 140.261 113.218 138.839C113.218 137.416 112.066 136.251 110.657 136.251Z" fill="#F2F2F2"/>
<path d="M163.829 262.201C165.365 262.201 166.611 260.943 166.611 259.39C166.611 257.838 165.365 256.58 163.829 256.58C162.292 256.58 161.047 257.838 161.047 259.39C161.047 260.943 162.292 262.201 163.829 262.201Z" fill="#F2F2F2"/>
<path d="M-2.25092 543.124C-0.740201 543.124 0.484477 541.886 0.484477 540.36C0.484477 538.834 -0.740201 537.597 -2.25092 537.597C-3.76164 537.597 -4.98633 538.834 -4.98633 540.36C-4.98633 541.886 -3.76164 543.124 -2.25092 543.124Z" fill="#F2F2F2"/>
<path d="M259.789 284.874C259.789 282.769 258.101 281.076 256.029 281.076C253.957 281.076 252.27 282.781 252.27 284.874C252.27 286.968 253.957 288.673 256.029 288.673C258.101 288.673 259.789 286.968 259.789 284.874Z" fill="#F2F2F2"/>
<path d="M356.168 569.596C357.769 569.596 359.066 568.285 359.066 566.667C359.066 565.05 357.769 563.739 356.168 563.739C354.567 563.739 353.27 565.05 353.27 566.667C353.27 568.285 354.567 569.596 356.168 569.596Z" fill="#F2F2F2"/>
<path d="M355.76 251.041C357.393 251.041 358.717 249.703 358.717 248.054C358.717 246.404 357.393 245.067 355.76 245.067C354.127 245.067 352.804 246.404 352.804 248.054C352.804 249.703 354.127 251.041 355.76 251.041Z" fill="#F2F2F2"/>
<path d="M267.436 530.964C267.436 529.388 266.168 528.106 264.62 528.106C263.072 528.106 261.803 529.388 261.803 530.964C261.803 532.54 263.072 533.81 264.62 533.81C266.168 533.81 267.436 532.528 267.436 530.964Z" fill="#F2F2F2"/>
<path d="M215.929 185.338C218.455 185.338 220.504 183.268 220.504 180.716C220.504 178.163 218.455 176.094 215.929 176.094C213.403 176.094 211.354 178.163 211.354 180.716C211.354 183.268 213.403 185.338 215.929 185.338Z" fill="#F2F2F2"/>
<path d="M335.635 369.229C336.881 369.229 337.882 368.206 337.882 366.959C337.882 365.712 336.869 364.689 335.635 364.689C334.401 364.689 333.389 365.712 333.389 366.959C333.389 368.206 334.401 369.229 335.635 369.229Z" fill="#F2F2F2"/>
<path d="M226.219 575.887C227.488 575.887 228.523 574.841 228.523 573.559C228.523 572.277 227.488 571.23 226.219 571.23C224.95 571.23 223.914 572.277 223.914 573.559C223.914 574.841 224.95 575.887 226.219 575.887Z" fill="#F2F2F2"/>
<path d="M259.986 261.025C259.986 262.812 261.43 264.271 263.199 264.271C264.968 264.271 266.412 262.812 266.412 261.025C266.412 259.237 264.968 257.779 263.199 257.779C261.43 257.779 259.986 259.237 259.986 261.025Z" fill="#F2F2F2"/>
<path d="M219.887 366.242C219.887 367.418 220.83 368.382 222.005 368.382C223.181 368.382 224.124 367.429 224.124 366.242C224.124 365.054 223.181 364.101 222.005 364.101C220.83 364.101 219.887 365.054 219.887 366.242Z" fill="#F2F2F2"/>
<path d="M252.141 393.337C253.689 393.337 254.935 392.067 254.935 390.514C254.935 388.962 253.678 387.692 252.141 387.692C250.605 387.692 249.348 388.962 249.348 390.514C249.348 392.067 250.605 393.337 252.141 393.337Z" fill="#F2F2F2"/>
<path d="M71.6748 215.725C72.7108 215.725 73.5489 214.879 73.5489 213.832C73.5489 212.785 72.7108 211.939 71.6748 211.939C70.6389 211.939 69.8008 212.785 69.8008 213.832C69.8008 214.879 70.6389 215.725 71.6748 215.725Z" fill="#F2F2F2"/>
<path d="M323.145 263.647C323.145 261.86 321.714 260.425 319.956 260.425C318.198 260.425 316.767 261.872 316.767 263.647C316.767 265.423 318.198 266.87 319.956 266.87C321.714 266.87 323.145 265.423 323.145 263.647Z" fill="#F2F2F2"/>
<path d="M233.099 323.376C233.099 324.47 233.972 325.352 235.054 325.352C236.137 325.352 237.01 324.47 237.01 323.376C237.01 322.283 236.137 321.401 235.054 321.401C233.972 321.401 233.099 322.283 233.099 323.376Z" fill="#F2F2F2"/>
<path d="M254.516 154.456C256.32 154.456 257.775 152.974 257.775 151.163C257.775 149.352 256.309 147.87 254.516 147.87C252.723 147.87 251.257 149.352 251.257 151.163C251.257 152.974 252.723 154.456 254.516 154.456Z" fill="#F2F2F2"/>
<path d="M21.5994 521.815C23.8459 521.815 25.6734 519.968 25.6734 517.699C25.6734 515.429 23.8459 513.583 21.5994 513.583C19.3529 513.583 17.5254 515.429 17.5254 517.699C17.5254 519.968 19.3529 521.815 21.5994 521.815Z" fill="#F2F2F2"/>
<path d="M100.95 64.7153C102.19 64.7153 103.196 63.6991 103.196 62.4456C103.196 61.1921 102.19 60.1759 100.95 60.1759C99.7089 60.1759 98.7031 61.1921 98.7031 62.4456C98.7031 63.6991 99.7089 64.7153 100.95 64.7153Z" fill="#F2F2F2"/>
<path d="M350.406 335.336C349.021 335.336 347.892 336.477 347.892 337.877C347.892 339.276 349.021 340.417 350.406 340.417C351.791 340.417 352.92 339.276 352.92 337.877C352.92 336.477 351.791 335.336 350.406 335.336Z" fill="#F2F2F2"/>
<path d="M130.212 72.8414C130.212 70.313 128.187 68.255 125.672 68.255C123.158 68.255 121.133 70.3013 121.133 72.8414C121.133 75.3816 123.158 77.4278 125.672 77.4278C128.187 77.4278 130.212 75.3816 130.212 72.8414Z" fill="#F2F2F2"/>
<path d="M146.101 577.063C148.254 577.063 150 575.299 150 573.124C150 570.948 148.254 569.184 146.101 569.184C143.947 569.184 142.201 570.948 142.201 573.124C142.201 575.299 143.947 577.063 146.101 577.063Z" fill="#F2F2F2"/>
<path d="M265.003 89.5054C263.758 89.5054 262.745 90.5285 262.745 91.7868C262.745 93.0451 263.758 94.0682 265.003 94.0682C266.249 94.0682 267.261 93.0451 267.261 91.7868C267.261 90.5285 266.249 89.5054 265.003 89.5054Z" fill="#F2F2F2"/>
<path d="M325.822 497.719C325.822 496.472 324.821 495.461 323.587 495.461C322.354 495.461 321.353 496.472 321.353 497.719C321.353 498.965 322.354 499.976 323.587 499.976C324.821 499.976 325.822 498.965 325.822 497.719Z" fill="#F2F2F2"/>
<path d="M333.458 238.881C334.416 238.881 335.192 238.096 335.192 237.129C335.192 236.161 334.416 235.376 333.458 235.376C332.5 235.376 331.724 236.161 331.724 237.129C331.724 238.096 332.5 238.881 333.458 238.881Z" fill="#F2F2F2"/>
<path d="M5.58301 231.437C5.58301 232.413 6.36289 233.201 7.32901 233.201C8.29513 233.201 9.07501 232.413 9.07501 231.437C9.07501 230.461 8.29513 229.673 7.32901 229.673C6.36289 229.673 5.58301 230.461 5.58301 231.437Z" fill="#F2F2F2"/>
<path d="M96.6429 268.046C99.33 268.046 101.508 265.845 101.508 263.13C101.508 260.415 99.33 258.214 96.6429 258.214C93.9557 258.214 91.7773 260.415 91.7773 263.13C91.7773 265.845 93.9557 268.046 96.6429 268.046Z" fill="#F2F2F2"/>
<path d="M301.344 23.0496C302.473 23.0496 303.381 22.1323 303.381 20.9916C303.381 19.8509 302.473 18.9336 301.344 18.9336C300.215 18.9336 299.307 19.8509 299.307 20.9916C299.307 22.1323 300.215 23.0496 301.344 23.0496Z" fill="#F2F2F2"/>
<path d="M104.174 582.802C106.141 582.802 107.736 581.191 107.736 579.204C107.736 577.216 106.141 575.605 104.174 575.605C102.207 575.605 100.612 577.216 100.612 579.204C100.612 581.191 102.207 582.802 104.174 582.802Z" fill="#F2F2F2"/>
<path d="M347.333 88.3646C349.969 88.3646 352.105 86.2059 352.105 83.543C352.105 80.8801 349.969 78.7214 347.333 78.7214C344.697 78.7214 342.561 80.8801 342.561 83.543C342.561 86.2059 344.697 88.3646 347.333 88.3646Z" fill="#F2F2F2"/>
<path d="M336.578 188.007C336.578 186.655 335.495 185.561 334.156 185.561C332.818 185.561 331.735 186.655 331.735 188.007C331.735 189.36 332.818 190.453 334.156 190.453C335.495 190.453 336.578 189.36 336.578 188.007Z" fill="#F2F2F2"/>
<path d="M294.743 457.617C296.711 457.617 298.305 456.006 298.305 454.018C298.305 452.031 296.711 450.42 294.743 450.42C292.776 450.42 291.182 452.031 291.182 454.018C291.182 456.006 292.776 457.617 294.743 457.617Z" fill="#F2F2F2"/>
<path d="M78.0766 319.943C79.7993 319.943 81.1845 318.531 81.1845 316.803C81.1845 315.074 79.7877 313.663 78.0766 313.663C76.3655 313.663 74.9688 315.074 74.9688 316.803C74.9688 318.531 76.3655 319.943 78.0766 319.943Z" fill="#F2F2F2"/>
<path d="M304.02 340.346C304.02 337.641 301.855 335.454 299.178 335.454C296.501 335.454 294.336 337.641 294.336 340.346C294.336 343.051 296.501 345.238 299.178 345.238C301.855 345.238 304.02 343.051 304.02 340.346Z" fill="#F2F2F2"/>
<path d="M359.625 142.637C359.625 141.637 358.822 140.838 357.844 140.838C356.867 140.838 356.063 141.649 356.063 142.637C356.063 143.625 356.867 144.436 357.844 144.436C358.822 144.436 359.625 143.625 359.625 142.637Z" fill="#F2F2F2"/>
<path d="M247.52 31.1405C247.52 29.647 246.321 28.4357 244.843 28.4357C243.365 28.4357 242.166 29.647 242.166 31.1405C242.166 32.634 243.365 33.8453 244.843 33.8453C246.321 33.8453 247.52 32.634 247.52 31.1405Z" fill="#F2F2F2"/>
<path d="M31.1091 582.038C33.1213 582.038 34.7525 580.39 34.7525 578.357C34.7525 576.324 33.1213 574.676 31.1091 574.676C29.097 574.676 27.4658 576.324 27.4658 578.357C27.4658 580.39 29.097 582.038 31.1091 582.038Z" fill="#F2F2F2"/>
<path d="M65.68 400.205C66.8557 400.205 67.7985 399.24 67.7985 398.064C67.7985 396.888 66.844 395.924 65.68 395.924C64.516 395.924 63.5615 396.888 63.5615 398.064C63.5615 399.24 64.516 400.205 65.68 400.205Z" fill="#F2F2F2"/>
<path d="M191.707 547.734C192.761 547.734 193.616 546.87 193.616 545.805C193.616 544.74 192.761 543.876 191.707 543.876C190.653 543.876 189.798 544.74 189.798 545.805C189.798 546.87 190.653 547.734 191.707 547.734Z" fill="#F2F2F2"/>
<path d="M353.025 453.948C354.969 453.948 356.552 452.348 356.552 450.384C356.552 448.421 354.969 446.821 353.025 446.821C351.081 446.821 349.498 448.421 349.498 450.384C349.498 452.348 351.081 453.948 353.025 453.948Z" fill="#F2F2F2"/>
<path d="M65.2261 339.441C65.2261 337.806 63.9224 336.489 62.3044 336.489C60.6865 336.489 59.3828 337.806 59.3828 339.441C59.3828 341.075 60.6865 342.392 62.3044 342.392C63.9224 342.392 65.2261 341.075 65.2261 339.441Z" fill="#F2F2F2"/>
<path d="M17.7 146.341C17.7 145.365 16.9201 144.577 15.954 144.577C14.9879 144.577 14.208 145.365 14.208 146.341C14.208 147.318 14.9879 148.105 15.954 148.105C16.9201 148.105 17.7 147.318 17.7 146.341Z" fill="#F2F2F2"/>
<path d="M215.766 447.444C213.252 447.444 211.215 449.502 211.215 452.043C211.215 454.583 213.252 456.641 215.766 456.641C218.28 456.641 220.317 454.583 220.317 452.043C220.317 449.502 218.28 447.444 215.766 447.444Z" fill="#F2F2F2"/>
<path d="M174.188 574.923C175.469 574.923 176.505 573.876 176.505 572.583C176.505 571.289 175.469 570.242 174.188 570.242C172.908 570.242 171.872 571.289 171.872 572.583C171.872 573.876 172.908 574.923 174.188 574.923Z" fill="#F2F2F2"/>
<path d="M292.02 150.916C292.02 148.446 290.041 146.447 287.597 146.447C285.153 146.447 283.174 148.446 283.174 150.916C283.174 153.386 285.153 155.385 287.597 155.385C290.041 155.385 292.02 153.386 292.02 150.916Z" fill="#F2F2F2"/>
<path d="M172.873 207.929C174.782 207.929 176.33 206.365 176.33 204.436C176.33 202.507 174.782 200.943 172.873 200.943C170.964 200.943 169.416 202.507 169.416 204.436C169.416 206.365 170.964 207.929 172.873 207.929Z" fill="#F2F2F2"/>
<path d="M262.222 568.62C264.369 568.62 266.109 566.861 266.109 564.692C266.109 562.522 264.369 560.764 262.222 560.764C260.075 560.764 258.334 562.522 258.334 564.692C258.334 566.861 260.075 568.62 262.222 568.62Z" fill="#F2F2F2"/>
<path d="M234.297 74.9818C232.249 74.9818 230.584 76.6634 230.584 78.7332C230.584 80.8029 232.249 82.4846 234.297 82.4846C236.346 82.4846 238.01 80.8029 238.01 78.7332C238.01 76.6634 236.346 74.9818 234.297 74.9818Z" fill="#F2F2F2"/>
<path d="M313.706 398.829C316.045 398.829 317.943 396.912 317.943 394.548C317.943 392.184 316.045 390.267 313.706 390.267C311.366 390.267 309.469 392.184 309.469 394.548C309.469 396.912 311.366 398.829 313.706 398.829Z" fill="#F2F2F2"/>
<path d="M120.004 378.002C118.234 378.002 116.791 379.448 116.791 381.247C116.791 383.047 118.223 384.493 120.004 384.493C121.785 384.493 123.216 383.047 123.216 381.247C123.216 379.448 121.785 378.002 120.004 378.002Z" fill="#F2F2F2"/>
<path d="M242.282 545.711C244.063 545.711 245.506 544.253 245.506 542.453C245.506 540.654 244.063 539.196 242.282 539.196C240.501 539.196 239.058 540.654 239.058 542.453C239.058 544.253 240.501 545.711 242.282 545.711Z" fill="#F2F2F2"/>
<path d="M154.924 406.508C157.547 406.508 159.673 404.36 159.673 401.71C159.673 399.06 157.547 396.912 154.924 396.912C152.301 396.912 150.175 399.06 150.175 401.71C150.175 404.36 152.301 406.508 154.924 406.508Z" fill="#F2F2F2"/>
<path d="M28.6885 65.5267C28.6885 66.7733 29.6895 67.7846 30.9234 67.7846C32.1572 67.7846 33.1582 66.7733 33.1582 65.5267C33.1582 64.2802 32.1572 63.2688 30.9234 63.2688C29.6895 63.2688 28.6885 64.2802 28.6885 65.5267Z" fill="#F2F2F2"/>
<path d="M36.5457 451.372C37.5933 451.372 38.4546 450.514 38.4546 449.444C38.4546 448.373 37.6049 447.515 36.5457 447.515C35.4864 447.515 34.6367 448.373 34.6367 449.444C34.6367 450.514 35.4864 451.372 36.5457 451.372Z" fill="#F2F2F2"/>
<path d="M79.8461 514.394C81.0097 514.394 81.9529 513.441 81.9529 512.266C81.9529 511.09 81.0097 510.137 79.8461 510.137C78.6825 510.137 77.7393 511.09 77.7393 512.266C77.7393 513.441 78.6825 514.394 79.8461 514.394Z" fill="#F2F2F2"/>
<path d="M235.228 351.765C237.89 351.765 240.047 349.585 240.047 346.896C240.047 344.208 237.89 342.028 235.228 342.028C232.567 342.028 230.409 344.208 230.409 346.896C230.409 349.585 232.567 351.765 235.228 351.765Z" fill="#F2F2F2"/>
<path d="M59.127 279.817C59.127 281.628 60.582 283.098 62.3745 283.098C64.1671 283.098 65.6221 281.628 65.6221 279.817C65.6221 278.006 64.1671 276.536 62.3745 276.536C60.582 276.536 59.127 278.006 59.127 279.817Z" fill="#F2F2F2"/>
<path d="M160.873 128.549C162.512 128.549 163.841 127.206 163.841 125.55C163.841 123.894 162.512 122.551 160.873 122.551C159.233 122.551 157.904 123.894 157.904 125.55C157.904 127.206 159.233 128.549 160.873 128.549Z" fill="#F2F2F2"/>
<path d="M10.1463 564.268C12.3928 564.268 14.2203 562.422 14.2203 560.152C14.2203 557.883 12.3928 556.036 10.1463 556.036C7.89975 556.036 6.07227 557.883 6.07227 560.152C6.07227 562.422 7.89975 564.268 10.1463 564.268Z" fill="#F2F2F2"/>
<path d="M142.47 24.7666C145.035 24.7666 147.114 22.6658 147.114 20.0743C147.114 17.4829 145.035 15.3821 142.47 15.3821C139.905 15.3821 137.825 17.4829 137.825 20.0743C137.825 22.6658 139.905 24.7666 142.47 24.7666Z" fill="#F2F2F2"/>
<path d="M319.106 225.78C319.106 224.722 318.256 223.863 317.209 223.863C316.161 223.863 315.312 224.722 315.312 225.78C315.312 226.839 316.161 227.697 317.209 227.697C318.256 227.697 319.106 226.839 319.106 225.78Z" fill="#F2F2F2"/>
<path d="M133.821 118.529C133.821 117.036 132.622 115.824 131.144 115.824C129.666 115.824 128.467 117.036 128.467 118.529C128.467 120.023 129.666 121.234 131.144 121.234C132.622 121.234 133.821 120.023 133.821 118.529Z" fill="#F2F2F2"/>
<path d="M-0.0862269 361.467C-1.94863 361.467 -3.4502 362.996 -3.4502 364.866C-3.4502 366.736 -1.94863 368.264 -0.0862269 368.264C1.77617 368.264 3.27773 366.736 3.27773 364.866C3.27773 362.996 1.77617 361.467 -0.0862269 361.467Z" fill="#F2F2F2"/>
<path d="M266.528 316.191C266.528 318.355 268.263 320.119 270.416 320.119C272.569 320.119 274.304 318.367 274.304 316.191C274.304 314.016 272.569 312.263 270.416 312.263C268.263 312.263 266.528 314.016 266.528 316.191Z" fill="#F2F2F2"/>
<path d="M292.684 304.572C292.684 306.854 294.511 308.7 296.769 308.7C299.027 308.7 300.855 306.854 300.855 304.572C300.855 302.291 299.027 300.444 296.769 300.444C294.511 300.444 292.684 302.291 292.684 304.572Z" fill="#F2F2F2"/>
<path d="M213.683 482.972C215.894 482.972 217.687 481.16 217.687 478.926C217.687 476.692 215.894 474.881 213.683 474.881C211.471 474.881 209.679 476.692 209.679 478.926C209.679 481.16 211.471 482.972 213.683 482.972Z" fill="#F2F2F2"/>
<path d="M5.61785 64.8211C3.99989 64.8211 2.68457 66.15 2.68457 67.7846C2.68457 69.4193 3.99989 70.7481 5.61785 70.7481C7.23581 70.7481 8.55113 69.4193 8.55113 67.7846C8.55113 66.15 7.23581 64.8211 5.61785 64.8211Z" fill="#F2F2F2"/>
<path d="M162.583 77.2044C163.666 77.2044 164.551 76.3106 164.551 75.217C164.551 74.1233 163.666 73.2295 162.583 73.2295C161.501 73.2295 160.616 74.1233 160.616 75.217C160.616 76.3106 161.501 77.2044 162.583 77.2044Z" fill="#F2F2F2"/>
<path d="M316.324 578.557C317.848 578.557 319.083 577.309 319.083 575.77C319.083 574.23 317.848 572.982 316.324 572.982C314.801 572.982 313.565 574.23 313.565 575.77C313.565 577.309 314.801 578.557 316.324 578.557Z" fill="#F2F2F2"/>
<path d="M328.081 433.427C325.636 433.427 323.669 435.426 323.669 437.884C323.669 440.341 325.648 442.341 328.081 442.341C330.513 442.341 332.492 440.341 332.492 437.884C332.492 435.426 330.513 433.427 328.081 433.427Z" fill="#F2F2F2"/>
<path d="M295.757 368.958C294.15 368.958 292.858 370.275 292.858 371.887C292.858 373.498 294.162 374.815 295.757 374.815C297.351 374.815 298.655 373.498 298.655 371.887C298.655 370.275 297.363 368.958 295.757 368.958Z" fill="#F2F2F2"/>
<path d="M51.6773 143.448C50.4434 143.448 49.4424 144.46 49.4424 145.706C49.4424 146.953 50.4434 147.964 51.6773 147.964C52.9111 147.964 53.9121 146.953 53.9121 145.706C53.9121 144.46 52.9111 143.448 51.6773 143.448Z" fill="#F2F2F2"/>
<path d="M221.494 545.323C224.019 545.323 226.056 543.253 226.056 540.713C226.056 538.173 224.008 536.103 221.494 536.103C218.979 536.103 216.931 538.173 216.931 540.713C216.931 543.253 218.979 545.323 221.494 545.323Z" fill="#F2F2F2"/>
<path d="M281.753 483.901C283.103 483.901 284.186 482.795 284.186 481.443C284.186 480.09 283.092 478.985 281.753 478.985C280.414 478.985 279.32 480.09 279.32 481.443C279.32 482.795 280.414 483.901 281.753 483.901Z" fill="#F2F2F2"/>
<path d="M223.577 96.0439C222.017 96.0439 220.748 97.3258 220.748 98.9016C220.748 100.477 222.017 101.759 223.577 101.759C225.136 101.759 226.405 100.477 226.405 98.9016C226.405 97.3258 225.136 96.0439 223.577 96.0439Z" fill="#F2F2F2"/>
<path d="M182.593 281.593C183.795 281.593 184.769 280.609 184.769 279.394C184.769 278.18 183.795 277.195 182.593 277.195C181.391 277.195 180.416 278.18 180.416 279.394C180.416 280.609 181.391 281.593 182.593 281.593Z" fill="#F2F2F2"/>
<path d="M238.022 206.176C238.022 204.624 236.776 203.366 235.24 203.366C233.703 203.366 232.458 204.624 232.458 206.176C232.458 207.729 233.703 208.987 235.24 208.987C236.776 208.987 238.022 207.729 238.022 206.176Z" fill="#F2F2F2"/>
<path d="M166.75 369.64C166.75 371.216 168.019 372.498 169.579 372.498C171.138 372.498 172.407 371.216 172.407 369.64C172.407 368.064 171.138 366.783 169.579 366.783C168.019 366.783 166.75 368.064 166.75 369.64Z" fill="#F2F2F2"/>
<path d="M240.583 451.666C241.7 451.666 242.608 450.749 242.608 449.62C242.608 448.491 241.7 447.574 240.583 447.574C239.466 447.574 238.558 448.491 238.558 449.62C238.558 450.749 239.466 451.666 240.583 451.666Z" fill="#F2F2F2"/>
<path d="M218.269 1.1172C218.269 2.36376 219.27 3.36336 220.492 3.36336C221.714 3.36336 222.715 2.352 222.715 1.1172C222.715 0.7056 222.599 0.32928 222.412 0H218.571C218.385 0.32928 218.269 0.7056 218.269 1.1172Z" fill="#F2F2F2"/>
<path d="M48.2432 217.407C48.2432 219.618 50.0241 221.417 52.2124 221.417C54.4007 221.417 56.1817 219.618 56.1817 217.407C56.1817 215.196 54.4007 213.397 52.2124 213.397C50.0241 213.397 48.2432 215.196 48.2432 217.407Z" fill="#F2F2F2"/>
<path d="M33.8097 312.357C31.9822 312.357 30.5039 313.851 30.5039 315.697C30.5039 317.544 31.9822 319.037 33.8097 319.037C35.6371 319.037 37.1154 317.544 37.1154 315.697C37.1154 313.851 35.6371 312.357 33.8097 312.357Z" fill="#F2F2F2"/>
<path d="M79.4622 113.907C77.658 113.907 76.1914 115.389 76.1914 117.212C76.1914 119.035 77.658 120.516 79.4622 120.516C81.2664 120.516 82.7331 119.035 82.7331 117.212C82.7331 115.389 81.2664 113.907 79.4622 113.907Z" fill="#F2F2F2"/>
<path d="M202.544 53.849C200.192 53.849 198.295 55.7659 198.295 58.1414C198.295 60.517 200.192 62.4338 202.544 62.4338C204.895 62.4338 206.792 60.517 206.792 58.1414C206.792 55.7659 204.895 53.849 202.544 53.849Z" fill="#F2F2F2"/>
<path d="M88.5294 538.584C89.7166 538.584 90.6828 537.608 90.6828 536.409C90.6828 535.209 89.7166 534.233 88.5294 534.233C87.3421 534.233 86.376 535.209 86.376 536.409C86.376 537.608 87.3421 538.584 88.5294 538.584Z" fill="#F2F2F2"/>
<path d="M87.2723 200.143C89.9262 200.143 92.0679 197.968 92.0679 195.298C92.0679 192.629 89.9145 190.453 87.2723 190.453C84.63 190.453 82.4766 192.629 82.4766 195.298C82.4766 197.968 84.63 200.143 87.2723 200.143Z" fill="#F2F2F2"/>
<path d="M339.313 134.346C339.313 132.735 338.021 131.418 336.415 131.418C334.809 131.418 333.517 132.723 333.517 134.346C333.517 135.969 334.809 137.274 336.415 137.274C338.021 137.274 339.313 135.969 339.313 134.346Z" fill="#F2F2F2"/>
<path d="M69.5917 75.7814C68.3928 75.7814 67.415 76.7693 67.415 77.9805C67.415 79.1918 68.3928 80.1797 69.5917 80.1797C70.7907 80.1797 71.7684 79.1918 71.7684 77.9805C71.7684 76.7693 70.7907 75.7814 69.5917 75.7814Z" fill="#F2F2F2"/>
<path d="M259.87 446.633C262.349 446.633 264.351 444.61 264.351 442.105C264.351 439.601 262.349 437.578 259.87 437.578C257.391 437.578 255.389 439.601 255.389 442.105C255.389 444.61 257.391 446.633 259.87 446.633Z" fill="#F2F2F2"/>
<path d="M69.3934 254.098C69.3934 252.922 68.4505 251.97 67.2865 251.97C66.1225 251.97 65.1797 252.922 65.1797 254.098C65.1797 255.274 66.1225 256.227 67.2865 256.227C68.4505 256.227 69.3934 255.274 69.3934 254.098Z" fill="#F2F2F2"/>
<path d="M334.401 334.219C334.401 332.808 333.272 331.667 331.876 331.667C330.479 331.667 329.35 332.808 329.35 334.219C329.35 335.63 330.479 336.771 331.876 336.771C333.272 336.771 334.401 335.63 334.401 334.219Z" fill="#F2F2F2"/>
<path d="M112.17 191.923C112.17 193.605 113.52 194.969 115.185 194.969C116.849 194.969 118.199 193.605 118.199 191.923C118.199 190.242 116.849 188.877 115.185 188.877C113.52 188.877 112.17 190.242 112.17 191.923Z" fill="#F2F2F2"/>
<path d="M40.584 280.652C40.584 279.606 39.7459 278.759 38.71 278.759C37.674 278.759 36.8359 279.606 36.8359 280.652C36.8359 281.699 37.674 282.546 38.71 282.546C39.7459 282.546 40.584 281.699 40.584 280.652Z" fill="#F2F2F2"/>
<path d="M182.162 421.737C183.488 421.737 184.559 420.655 184.559 419.315C184.559 417.974 183.488 416.892 182.162 416.892C180.835 416.892 179.764 417.974 179.764 419.315C179.764 420.655 180.835 421.737 182.162 421.737Z" fill="#F2F2F2"/>
<path d="M296.141 508.808C296.141 507.221 294.872 505.927 293.289 505.927C291.706 505.927 290.438 507.209 290.438 508.808C290.438 510.408 291.706 511.689 293.289 511.689C294.872 511.689 296.141 510.396 296.141 508.808Z" fill="#F2F2F2"/>
<path d="M132.051 230.966C132.051 228.885 130.387 227.203 128.326 227.203C126.266 227.203 124.602 228.885 124.602 230.966C124.602 233.048 126.266 234.73 128.326 234.73C130.387 234.73 132.051 233.048 132.051 230.966Z" fill="#F2F2F2"/>
<path d="M10.7515 300.303C13.3422 300.303 15.4424 298.182 15.4424 295.564C15.4424 292.947 13.3422 290.825 10.7515 290.825C8.16074 290.825 6.06055 292.947 6.06055 295.564C6.06055 298.182 8.16074 300.303 10.7515 300.303Z" fill="#F2F2F2"/>
<path d="M321.528 92.1749C320.212 92.1749 319.142 93.2568 319.142 94.5857C319.142 95.9145 320.212 96.9965 321.528 96.9965C322.843 96.9965 323.914 95.9145 323.914 94.5857C323.914 93.2568 322.843 92.1749 321.528 92.1749Z" fill="#F2F2F2"/>
<path d="M25.2664 103.276C25.2664 101.254 23.6485 99.619 21.6464 99.619C19.6443 99.619 18.0264 101.254 18.0264 103.276C18.0264 105.299 19.6443 106.934 21.6464 106.934C23.6485 106.934 25.2664 105.299 25.2664 103.276Z" fill="#F2F2F2"/>
<path d="M42.8778 522.685C44.2471 522.685 45.3571 521.563 45.3571 520.18C45.3571 518.797 44.2471 517.675 42.8778 517.675C41.5085 517.675 40.3984 518.797 40.3984 520.18C40.3984 521.563 41.5085 522.685 42.8778 522.685Z" fill="#F2F2F2"/>
<path d="M154.156 543.912C156.495 543.912 158.404 541.995 158.404 539.619C158.404 537.244 156.507 535.327 154.156 535.327C151.805 535.327 149.907 537.244 149.907 539.619C149.907 541.995 151.805 543.912 154.156 543.912Z" fill="#F2F2F2"/>
<path d="M312.46 478.397C313.543 478.397 314.427 477.515 314.427 476.409C314.427 475.304 313.554 474.422 312.46 474.422C311.366 474.422 310.493 475.304 310.493 476.409C310.493 477.515 311.366 478.397 312.46 478.397Z" fill="#F2F2F2"/>
<path d="M207.921 264.094C209.213 264.094 210.26 263.036 210.26 261.731C210.26 260.425 209.213 259.367 207.921 259.367C206.629 259.367 205.581 260.425 205.581 261.731C205.581 263.036 206.629 264.094 207.921 264.094Z" fill="#F2F2F2"/>
<path d="M208.864 299.445C210.066 299.445 211.041 298.46 211.041 297.246C211.041 296.031 210.066 295.047 208.864 295.047C207.662 295.047 206.688 296.031 206.688 297.246C206.688 298.46 207.662 299.445 208.864 299.445Z" fill="#F2F2F2"/>
<path d="M194.884 90.1286C196.793 90.1286 198.341 88.5649 198.341 86.6359C198.341 84.7069 196.793 83.1432 194.884 83.1432C192.975 83.1432 191.427 84.7069 191.427 86.6359C191.427 88.5649 192.975 90.1286 194.884 90.1286Z" fill="#F2F2F2"/>
<path d="M269.066 170.767C267.693 170.767 266.575 171.896 266.575 173.284C266.575 174.671 267.693 175.8 269.066 175.8C270.44 175.8 271.557 174.671 271.557 173.284C271.557 171.896 270.44 170.767 269.066 170.767Z" fill="#F2F2F2"/>
<path d="M179.799 325.54C181.065 325.54 182.092 324.503 182.092 323.224C182.092 321.944 181.065 320.907 179.799 320.907C178.533 320.907 177.506 321.944 177.506 323.224C177.506 324.503 178.533 325.54 179.799 325.54Z" fill="#F2F2F2"/>
<path d="M161.117 510.619C161.117 509.408 160.139 508.42 158.94 508.42C157.741 508.42 156.764 509.408 156.764 510.619C156.764 511.83 157.741 512.818 158.94 512.818C160.139 512.818 161.117 511.83 161.117 510.619Z" fill="#F2F2F2"/>
<path d="M322.226 537.114C323.727 537.114 324.949 535.88 324.949 534.363C324.949 532.846 323.727 531.611 322.226 531.611C320.724 531.611 319.502 532.846 319.502 534.363C319.502 535.88 320.724 537.114 322.226 537.114Z" fill="#F2F2F2"/>
<path d="M276.445 295.399C276.445 296.47 277.307 297.352 278.378 297.352C279.448 297.352 280.31 296.481 280.31 295.399C280.31 294.318 279.448 293.447 278.378 293.447C277.307 293.447 276.445 294.318 276.445 295.399Z" fill="#F2F2F2"/>
<path d="M205.756 210.504C205.756 209.352 204.837 208.422 203.696 208.422C202.555 208.422 201.636 209.352 201.636 210.504C201.636 211.656 202.555 212.586 203.696 212.586C204.837 212.586 205.756 211.656 205.756 210.504Z" fill="#F2F2F2"/>
<path d="M330.432 21.7442C328.511 21.7442 326.951 23.3201 326.951 25.2605C326.951 27.2009 328.511 28.7767 330.432 28.7767C332.352 28.7767 333.912 27.2009 333.912 25.2605C333.912 23.3201 332.352 21.7442 330.432 21.7442Z" fill="#F2F2F2"/>
<path d="M310.167 129.913C310.167 132.241 312.041 134.135 314.346 134.135C316.65 134.135 318.525 132.241 318.525 129.913C318.525 127.584 316.65 125.691 314.346 125.691C312.041 125.691 310.167 127.584 310.167 129.913Z" fill="#F2F2F2"/>
<path d="M56.9033 548.004C59.1381 548.004 60.954 546.17 60.954 543.912C60.954 541.654 59.1381 539.819 56.9033 539.819C54.6684 539.819 52.8525 541.654 52.8525 543.912C52.8525 546.17 54.6684 548.004 56.9033 548.004Z" fill="#F2F2F2"/>
<path d="M145.449 284.392C145.449 286.133 146.846 287.556 148.58 287.556C150.315 287.556 151.712 286.144 151.712 284.392C151.712 282.64 150.315 281.229 148.58 281.229C146.846 281.229 145.449 282.64 145.449 284.392Z" fill="#F2F2F2"/>
<path d="M189.088 109.815C187.493 109.815 186.213 111.12 186.213 112.72C186.213 114.319 187.505 115.624 189.088 115.624C190.671 115.624 191.963 114.319 191.963 112.72C191.963 111.12 190.671 109.815 189.088 109.815Z" fill="#F2F2F2"/>
<path d="M199.179 389.374C197.957 389.374 196.956 390.373 196.956 391.62C196.956 392.866 197.945 393.866 199.179 393.866C200.413 393.866 201.403 392.866 201.403 391.62C201.403 390.373 200.413 389.374 199.179 389.374Z" fill="#F2F2F2"/>
<path d="M364.409 108.721C364.409 106.016 362.232 103.817 359.555 103.817C356.878 103.817 354.701 106.016 354.701 108.721C354.701 111.426 356.878 113.625 359.555 113.625C362.232 113.625 364.409 111.426 364.409 108.721Z" fill="#F2F2F2"/>
<path d="M225.917 240.821C224.951 240.821 224.159 241.621 224.159 242.597C224.159 243.573 224.951 244.373 225.917 244.373C226.883 244.373 227.674 243.573 227.674 242.597C227.674 241.621 226.883 240.821 225.917 240.821Z" fill="#F2F2F2"/>
<path d="M142.889 153.209C142.889 150.469 140.7 148.258 137.988 148.258C135.276 148.258 133.088 150.481 133.088 153.209C133.088 155.938 135.288 158.16 137.988 158.16C140.689 158.16 142.889 155.938 142.889 153.209Z" fill="#F2F2F2"/>
<path d="M68.9858 570.948C70.2196 570.948 71.2323 569.937 71.2323 568.678C71.2323 567.42 70.2312 566.409 68.9858 566.409C67.7403 566.409 66.7393 567.42 66.7393 568.678C66.7393 569.937 67.7403 570.948 68.9858 570.948Z" fill="#F2F2F2"/>
<path d="M85.4913 247.56C86.6087 247.56 87.505 246.642 87.505 245.525C87.505 244.408 86.5971 243.491 85.4913 243.491C84.3855 243.491 83.4775 244.408 83.4775 245.525C83.4775 246.642 84.3855 247.56 85.4913 247.56Z" fill="#F2F2F2"/>
<path d="M91.6261 8.9964C89.5542 8.9964 87.8896 10.6898 87.8896 12.7714C87.8896 14.8529 89.5658 16.5463 91.6261 16.5463C93.6864 16.5463 95.3625 14.8529 95.3625 12.7714C95.3625 10.6898 93.6864 8.9964 91.6261 8.9964Z" fill="#F2F2F2"/>
<path d="M2.74304 482.419C2.74304 479.761 0.60128 477.597 -2.02936 477.597C-4.66 477.597 -6.80176 479.761 -6.80176 482.419C-6.80176 485.076 -4.66 487.24 -2.02936 487.24C0.60128 487.24 2.74304 485.076 2.74304 482.419Z" fill="#F2F2F2"/>
<path d="M201.112 572.559C203.242 572.559 204.964 570.819 204.964 568.667C204.964 566.514 203.242 564.774 201.112 564.774C198.982 564.774 197.259 566.514 197.259 568.667C197.259 570.819 198.982 572.559 201.112 572.559Z" fill="#F2F2F2"/>
<path d="M182.849 38.2788C182.849 37.0322 181.847 36.0091 180.602 36.0091C179.357 36.0091 178.355 37.0205 178.355 38.2788C178.355 39.5371 179.357 40.5485 180.602 40.5485C181.847 40.5485 182.849 39.5371 182.849 38.2788Z" fill="#F2F2F2"/>
<path d="M239.908 501.599C242.143 501.599 243.959 499.765 243.959 497.507C243.959 495.249 242.143 493.414 239.908 493.414C237.673 493.414 235.857 495.249 235.857 497.507C235.857 499.765 237.673 501.599 239.908 501.599Z" fill="#F2F2F2"/>
<path d="M197.329 23.6729C197.329 22.4616 196.363 21.4855 195.164 21.4855C193.965 21.4855 192.999 22.4616 192.999 23.6729C192.999 24.8842 193.965 25.8602 195.164 25.8602C196.363 25.8602 197.329 24.8842 197.329 23.6729Z" fill="#F2F2F2"/>
<path d="M94.9197 410.248C97.4076 410.248 99.4244 408.21 99.4244 405.697C99.4244 403.183 97.4076 401.145 94.9197 401.145C92.4318 401.145 90.415 403.183 90.415 405.697C90.415 408.21 92.4318 410.248 94.9197 410.248Z" fill="#F2F2F2"/>
<path d="M188.668 169.92C188.668 168.003 187.132 166.451 185.223 166.451C183.314 166.451 181.777 168.003 181.777 169.92C181.777 171.837 183.314 173.401 185.223 173.401C187.132 173.401 188.668 171.849 188.668 169.92Z" fill="#F2F2F2"/>
<path d="M15.9777 344.168C17.2348 344.168 18.2592 343.133 18.2592 341.863C18.2592 340.593 17.2348 339.558 15.9777 339.558C14.7206 339.558 13.6963 340.593 13.6963 341.863C13.6963 343.133 14.7206 344.168 15.9777 344.168Z" fill="#F2F2F2"/>
<path d="M334.739 70.1249C337.4 70.1249 339.558 67.9451 339.558 65.2562C339.558 62.5674 337.4 60.3876 334.739 60.3876C332.077 60.3876 329.92 62.5674 329.92 65.2562C329.92 67.9451 332.077 70.1249 334.739 70.1249Z" fill="#F2F2F2"/>
<path d="M343.283 291.66C343.283 289.108 341.234 287.038 338.708 287.038C336.182 287.038 334.134 289.108 334.134 291.66C334.134 294.212 336.182 296.281 338.708 296.281C341.234 296.281 343.283 294.212 343.283 291.66Z" fill="#F2F2F2"/>
<path d="M68.2757 463.532C66.6345 463.532 65.2959 464.885 65.2959 466.543C65.2959 468.201 66.6345 469.553 68.2757 469.553C69.917 469.553 71.2556 468.201 71.2556 466.543C71.2556 464.885 69.917 463.532 68.2757 463.532Z" fill="#F2F2F2"/>
<path d="M39.1415 22.0265C39.1415 19.7686 37.3257 17.934 35.0908 17.934C32.8559 17.934 31.04 19.7686 31.04 22.0265C31.04 24.2844 32.8559 26.119 35.0908 26.119C37.3257 26.119 39.1415 24.2844 39.1415 22.0265Z" fill="#F2F2F2"/>
<path d="M277.354 407.096C279.694 407.096 281.603 405.179 281.603 402.804C281.603 400.428 279.705 398.511 277.354 398.511C275.003 398.511 273.105 400.428 273.105 402.804C273.105 405.179 275.003 407.096 277.354 407.096Z" fill="#F2F2F2"/>
<path d="M42.575 391.02C44.8186 391.02 46.6374 389.182 46.6374 386.916C46.6374 384.649 44.8186 382.812 42.575 382.812C40.3315 382.812 38.5127 384.649 38.5127 386.916C38.5127 389.182 40.3315 391.02 42.575 391.02Z" fill="#F2F2F2"/>
<path d="M134.403 325.211C135.656 325.211 136.672 324.184 136.672 322.918C136.672 321.651 135.656 320.625 134.403 320.625C133.149 320.625 132.133 321.651 132.133 322.918C132.133 324.184 133.149 325.211 134.403 325.211Z" fill="#F2F2F2"/>
<path d="M117.234 166.91C119.612 166.91 121.54 164.962 121.54 162.558C121.54 160.155 119.612 158.207 117.234 158.207C114.855 158.207 112.927 160.155 112.927 162.558C112.927 164.962 114.855 166.91 117.234 166.91Z" fill="#F2F2F2"/>
<path d="M286.561 421.337C286.561 420.102 285.571 419.103 284.349 419.103C283.127 419.103 282.138 420.102 282.138 421.337C282.138 422.572 283.127 423.572 284.349 423.572C285.571 423.572 286.561 422.572 286.561 421.337Z" fill="#F2F2F2"/>
<path d="M151.956 226.768C149.977 226.768 148.383 228.391 148.383 230.378C148.383 232.366 149.989 233.989 151.956 233.989C153.923 233.989 155.53 232.366 155.53 230.378C155.53 228.391 153.923 226.768 151.956 226.768Z" fill="#F2F2F2"/>
<path d="M347.962 218.395C350.185 218.395 351.989 216.572 351.989 214.326C351.989 212.08 350.185 210.257 347.962 210.257C345.739 210.257 343.935 212.08 343.935 214.326C343.935 216.572 345.739 218.395 347.962 218.395Z" fill="#F2F2F2"/>
<path d="M108.865 31.6697C106.513 31.6697 104.593 33.5983 104.593 35.9856C104.593 38.3729 106.502 40.3015 108.865 40.3015C111.228 40.3015 113.137 38.3729 113.137 35.9856C113.137 33.5983 111.228 31.6697 108.865 31.6697Z" fill="#F2F2F2"/>
<path d="M8.97014 262.965C8.97014 261.66 7.92253 260.59 6.61885 260.59C5.31517 260.59 4.26758 261.648 4.26758 262.965C4.26758 264.282 5.31517 265.341 6.61885 265.341C7.92253 265.341 8.97014 264.282 8.97014 262.965Z" fill="#F2F2F2"/>
<path d="M291.403 560.529C292.532 560.529 293.44 559.611 293.44 558.471C293.44 557.33 292.532 556.413 291.403 556.413C290.274 556.413 289.366 557.33 289.366 558.471C289.366 559.611 290.274 560.529 291.403 560.529Z" fill="#F2F2F2"/>
<path d="M67.985 52.0145C67.985 50.9914 67.1702 50.1682 66.1576 50.1682C65.1449 50.1682 64.3301 50.9914 64.3301 52.0145C64.3301 53.0376 65.1449 53.8608 66.1576 53.8608C67.1702 53.8608 67.985 53.0376 67.985 52.0145Z" fill="#F2F2F2"/>
<path d="M19.2246 175.365C19.2246 176.447 20.0976 177.329 21.1685 177.329C22.2394 177.329 23.1124 176.447 23.1124 175.365C23.1124 174.283 22.2394 173.401 21.1685 173.401C20.0976 173.401 19.2246 174.283 19.2246 175.365Z" fill="#F2F2F2"/>
<path d="M278.984 226.745C280.481 226.745 281.696 225.518 281.696 224.004C281.696 222.491 280.481 221.264 278.984 221.264C277.486 221.264 276.271 222.491 276.271 224.004C276.271 225.518 277.486 226.745 278.984 226.745Z" fill="#F2F2F2"/>
<path d="M344.249 586.883C344.249 584.625 342.433 582.779 340.186 582.779C337.94 582.779 336.124 584.613 336.124 586.883C336.124 587.271 336.194 587.647 336.299 588H344.063C344.167 587.647 344.237 587.271 344.237 586.883H344.249Z" fill="#F2F2F2"/>
<path d="M91.0323 172.26C89.845 172.26 88.8789 173.237 88.8789 174.436C88.8789 175.636 89.845 176.612 91.0323 176.612C92.2196 176.612 93.1857 175.636 93.1857 174.436C93.1857 173.237 92.2196 172.26 91.0323 172.26Z" fill="#F2F2F2"/>
<path d="M284.455 119.141C284.455 117.024 282.755 115.307 280.66 115.307C278.565 115.307 276.865 117.024 276.865 119.141C276.865 121.257 278.565 122.974 280.66 122.974C282.755 122.974 284.455 121.257 284.455 119.141Z" fill="#F2F2F2"/>
<path d="M50.3623 189.312C50.3623 191.276 51.9337 192.864 53.8776 192.864C55.8215 192.864 57.3929 191.276 57.3929 189.312C57.3929 187.349 55.8215 185.761 53.8776 185.761C51.9337 185.761 50.3623 187.349 50.3623 189.312Z" fill="#F2F2F2"/>
<path d="M351.244 184.844C351.244 186.725 352.757 188.254 354.62 188.254C356.482 188.254 357.995 186.725 357.995 184.844C357.995 182.962 356.482 181.433 354.62 181.433C352.757 181.433 351.244 182.962 351.244 184.844Z" fill="#F2F2F2"/>
<path d="M313.624 293.483C312.344 293.483 311.308 294.529 311.308 295.823C311.308 297.116 312.344 298.163 313.624 298.163C314.904 298.163 315.94 297.116 315.94 295.823C315.94 294.529 314.904 293.483 313.624 293.483Z" fill="#F2F2F2"/>
<path d="M194.756 498.295C194.756 496.648 193.441 495.319 191.811 495.319C190.182 495.319 188.866 496.648 188.866 498.295C188.866 499.941 190.182 501.27 191.811 501.27C193.441 501.27 194.756 499.941 194.756 498.295Z" fill="#F2F2F2"/>
<path d="M340.187 2.97528C342.037 2.97528 343.586 1.71696 344.074 0H336.311C336.799 1.71696 338.336 2.97528 340.198 2.97528H340.187Z" fill="#F2F2F2"/>
</g>
<defs>
<clipPath id="clip0_181_4215">
<rect width="582" height="588" fill="white" transform="translate(-119)"/>
</clipPath>
</defs>
</svg>
