<svg width="484" height="726" viewBox="0 0 484 726" fill="none" xmlns="http://www.w3.org/2000/svg">
<path fill-rule="evenodd" clip-rule="evenodd" d="M484 0H0V726H484V0ZM27 94.0177H237.049V357.726H27V94.0177ZM247.139 94.0177H457.188V357.726H247.139V94.0177ZM237.049 368.274H27V631.982H237.049V368.274ZM247.139 368.274H457.188V631.982H247.139V368.274Z" fill="#D9D9D9"/>
<rect x="8.5463" y="8.5463" width="466.907" height="708.907" stroke="black" stroke-width="1.09259"/>
<g filter="url(#filter0_di_333_2554)">
<rect x="188" y="656" width="108.5" height="35.5" fill="#D9D9D9"/>
<rect x="188.75" y="656.75" width="107" height="34" stroke="black" stroke-width="1.5"/>
</g>
<path d="M236.607 680.292C233.679 680.292 231.263 678.292 231.263 674.82V672.42C231.263 668.948 233.679 666.948 236.607 666.948C239.551 666.948 241.951 668.948 241.951 672.42V674.82C241.951 678.292 239.551 680.292 236.607 680.292ZM236.607 679.22C238.927 679.22 240.799 677.684 240.799 674.692V672.548C240.799 669.556 238.927 668.02 236.607 668.02C234.287 668.02 232.431 669.556 232.431 672.548V674.692C232.431 677.684 234.287 679.22 236.607 679.22ZM253.363 680.052H251.875L246.835 673.748L245.331 675.38V680.052H244.163V667.188H245.331V673.716L251.347 667.188H252.883L247.603 672.916L253.363 680.052Z" fill="black"/>
<rect x="27" y="28" width="430" height="32" fill="#010080"/>
<g filter="url(#filter1_di_333_2554)">
<rect width="21" height="21" transform="matrix(1 0 0 -1 430 54.5)" fill="#D9D9D9"/>
</g>
<path d="M445.369 39.5L436 48.8692" stroke="black" stroke-width="1.5"/>
<path d="M445.369 48.8691L436 39.5" stroke="black" stroke-width="1.5"/>
<path d="M52.7765 35H51.8485H50.9204H49.9924H49.0644H48.1363H47.2083V35.8704V36.7408H46.2803V37.6112V38.4816V39.352H47.2083V40.2224H46.2803V41.0928V41.9631V42.8335V43.7039V44.5743H45.3523V45.4447V46.3151H46.2803H47.2083V47.1855H46.2803V48.0559V48.9263V49.7967V50.6671H47.2083V51.5375V52.4079H48.1363H49.0644H49.9924H50.9204H51.8485H52.7765V51.5375H53.7045V50.6671V49.7967V48.9263H52.7765V49.7967H51.8485V50.6671V51.5375H50.9204H49.9924V50.6671V49.7967H49.0644V48.9263V48.0559V47.1855H49.9924V46.3151H49.0644H48.1363V45.4447V44.5743H49.0644H49.9924H50.9204H51.8485V43.7039H52.7765V42.8335H51.8485H50.9204H49.9924H49.0644V41.9631V41.0928V40.2224H49.9924V39.352H49.0644V38.4816V37.6112H49.9924V36.7408V35.8704H50.9204H51.8485V36.7408V37.6112H52.7765V38.4816H53.7045V37.6112V36.7408V35.8704H52.7765V35Z" fill="#9E63E6"/>
<path d="M61.1287 35H60.2007H59.2727H58.3447H57.4166H56.4886H55.5606V35.8704H56.4886H57.4166H58.3447H59.2727V36.7408V37.6112V38.4816V39.352H60.2007V40.2224H59.2727V41.0928V41.9631V42.8335V43.7039V44.5743H58.3447V45.4447V46.3151H59.2727H60.2007V47.1855H59.2727V48.0559V48.9263V49.7967V50.6671V51.5375H58.3447H57.4166V50.6671V49.7967H56.4886V48.9263V48.0559V47.1855H55.5606H54.6325V48.0559V48.9263V49.7967H55.5606V50.6671V51.5375H56.4886V52.4079H57.4166H58.3447H59.2727H60.2007V51.5375H61.1287V50.6671H62.0568V49.7967V48.9263V48.0559V47.1855H62.9848V46.3151H62.0568H61.1287V45.4447V44.5743H62.0568V43.7039V42.8335V41.9631V41.0928V40.2224H62.9848V39.352H62.0568V38.4816V37.6112V36.7408V35.8704H62.9848V35H62.0568H61.1287Z" fill="#9E63E6"/>
<path d="M72.2651 35H71.337H70.409H69.481V35.8704H70.409V36.7408V37.6112V38.4816V39.352H71.337V40.2224H70.409V41.0928V41.9631V42.8335V43.7039V44.5743H69.481V45.4447V46.3151H70.409H71.337V47.1855H70.409V48.0559V48.9263V49.7967V50.6671V51.5375H71.337H72.2651V50.6671H73.1931V49.7967V48.9263V48.0559V47.1855H74.1211V46.3151H73.1931H72.2651V45.4447V44.5743H73.1931V43.7039V42.8335V41.9631V41.0928V40.2224H74.1211V39.352H73.1931V38.4816V37.6112V36.7408V35.8704H74.1211V35H73.1931H72.2651Z" fill="#9E63E6"/>
<path d="M90.8256 35H89.8976H88.9696H88.0415V35.8704H88.9696V36.7408V37.6112V38.4816V39.352H89.8976V40.2224H88.9696V41.0928V41.9631V42.8335V43.7039V44.5743H88.0415V45.4447V46.3151H88.9696H89.8976V47.1855H88.9696V48.0559V48.9263V49.7967V50.6671V51.5375H88.0415V52.4079H88.9696H89.8976H90.8256H91.7537H92.6817V51.5375H91.7537V50.6671V49.7967V48.9263V48.0559V47.1855H92.6817V46.3151H91.7537H90.8256V45.4447V44.5743H91.7537V43.7039V42.8335V41.9631V41.0928V40.2224H92.6817V39.352H91.7537V38.4816V37.6112V36.7408V35.8704H92.6817V35H91.7537H90.8256Z" fill="#9E63E6"/>
<path d="M110.314 35.8704H111.242V35H110.314H109.386H108.458V35.8704H109.386H110.314Z" fill="#9E63E6"/>
<path d="M140.011 35H139.083H138.155H137.227H136.299H135.371H134.443V35.8704V36.7408H133.515V37.6112V38.4816V39.352H134.443V40.2224H133.515V41.0928V41.9631V42.8335V43.7039V44.5743H132.587V45.4447V46.3151H133.515H134.443V47.1855H133.515V48.0559V48.9263V49.7967V50.6671H134.443V51.5375V52.4079H135.371H136.299H137.227H138.155H139.083H140.011V51.5375H140.939V50.6671V49.7967V48.9263H140.011V49.7967H139.083V50.6671V51.5375H138.155H137.227V50.6671V49.7967H136.299V48.9263V48.0559V47.1855H137.227V46.3151H136.299H135.371V45.4447V44.5743H136.299H137.227H138.155H139.083V43.7039H140.011V42.8335H139.083H138.155H137.227H136.299V41.9631V41.0928V40.2224H137.227V39.352H136.299V38.4816V37.6112H137.227V36.7408V35.8704H138.155H139.083V36.7408V37.6112H140.011V38.4816H140.939V37.6112V36.7408V35.8704H140.011V35Z" fill="#9E63E6"/>
<path d="M186.413 35.8704V35H185.485H184.557H183.628H182.7H181.772H180.844V35.8704V36.7408H179.916V37.6112V38.4816V39.352H180.844V40.2224H179.916V41.0928V41.9631V42.8335V43.7039V44.5743H178.988V45.4447V46.3151H179.916H180.844V47.1855H179.916V48.0559V48.9263V49.7967V50.6671H180.844V51.5375V52.4079H181.772H182.7H183.628H184.557H185.485H186.413V51.5375H187.341V50.6671V49.7967V48.9263H186.413V49.7967H185.485V50.6671V51.5375H184.557H183.628V50.6671V49.7967H182.7V48.9263V48.0559V47.1855H183.628V46.3151H182.7H181.772V45.4447V44.5743H182.7H183.628H184.557H185.485V43.7039H186.413V42.8335H185.485H184.557H183.628H182.7V41.9631V41.0928V40.2224H183.628V39.352H182.7V38.4816V37.6112H183.628V36.7408V35.8704H184.557H185.485V36.7408V37.6112H186.413V38.4816H187.341V37.6112V36.7408V35.8704H186.413Z" fill="#9E63E6"/>
<path d="M132.587 38.4816V37.6112V36.7408V35.8704H131.659V35H130.731H129.803H128.875H127.947H127.019H126.091V35.8704V36.7408H125.163V37.6112V38.4816V39.352H126.091V40.2224H125.163V41.0928V41.9631V42.8335H124.235V43.7039V44.5743V45.4447V46.3151H125.163H126.091V47.1855H125.163V48.0559V48.9263V49.7967V50.6671V51.5375H124.235V52.4079H125.163H126.091H127.019H127.947H128.875H129.803V51.5375H128.875H127.947V50.6671V49.7967V48.9263V48.0559V47.1855H128.875V46.3151H127.947H127.019V45.4447V44.5743H127.947H128.875H129.803H130.731V43.7039H131.659V42.8335H130.731H129.803H128.875H127.947V41.9631V41.0928V40.2224H128.875V39.352H127.947V38.4816V37.6112H128.875V36.7408V35.8704H129.803H130.731V36.7408V37.6112H131.659V38.4816H132.587Z" fill="#9E63E6"/>
<path d="M104.746 39.352V38.4816V37.6112H103.818V36.7408V35.8704H102.89V35H101.962H101.034H100.106H99.1779V35.8704H98.2499V36.7408H97.3218V37.6112V38.4816H96.3938V39.352H97.3218V40.2224H96.3938V41.0928V41.9631V42.8335V43.7039V44.5743H95.4658V45.4447V46.3151H96.3938H97.3218V47.1855H96.3938V48.0559V48.9263H97.3218V49.7967V50.6671H98.2499V51.5375H99.1779V52.4079H100.106H101.034H101.962H102.89V51.5375H103.818V50.6671V49.7967H104.746V48.9263V48.0559V47.1855H103.818H102.89V48.0559V48.9263V49.7967H101.962V50.6671V51.5375H101.034H100.106V50.6671V49.7967H99.1779V48.9263V48.0559V47.1855H100.106V46.3151H99.1779H98.2499V45.4447V44.5743H99.1779V43.7039V42.8335V41.9631V41.0928V40.2224H100.106V39.352H99.1779V38.4816V37.6112H100.106V36.7408V35.8704H101.034H101.962V36.7408V37.6112H102.89V38.4816V39.352H103.818V40.2224H104.746H105.674V39.352H104.746Z" fill="#9E63E6"/>
<path d="M178.988 39.352V38.4816V37.6112H178.06V36.7408V35.8704H177.132V35H176.204H175.276H174.348H173.42V35.8704H172.492V36.7408H171.564V37.6112V38.4816H170.636V39.352H171.564V40.2224H170.636V41.0928V41.9631V42.8335V43.7039V44.5743H169.708V45.4447V46.3151H168.78V45.4447V44.5743H169.708V43.7039V42.8335V41.9631V41.0928V40.2224H170.636V39.352H169.708V38.4816V37.6112V36.7408V35.8704H168.78V35H167.852V35.8704H166.924V36.7408V37.6112V38.4816V39.352H167.852V40.2224H166.924V41.0928V41.9631V42.8335V43.7039V44.5743H165.996V45.4447H165.068V46.3151H165.996H166.924V47.1855H165.996V48.0559V48.9263H166.924V49.7967V50.6671V51.5375H167.852V52.4079H168.78V51.5375H169.708V50.6671V49.7967V48.9263V48.0559V47.1855H170.636V46.3151H171.564V47.1855H170.636V48.0559V48.9263H171.564V49.7967V50.6671H172.492V51.5375H173.42V52.4079H174.348H175.276H176.204H177.132V51.5375H178.06V50.6671V49.7967H178.988V48.9263V48.0559V47.1855H178.06H177.132V48.0559V48.9263V49.7967H176.204V50.6671V51.5375H175.276H174.348V50.6671V49.7967H173.42V48.9263V48.0559V47.1855H174.348V46.3151H173.42H172.492V45.4447V44.5743H173.42V43.7039V42.8335V41.9631V41.0928V40.2224H174.348V39.352H173.42V38.4816V37.6112H174.348V36.7408V35.8704H175.276H176.204V36.7408V37.6112H177.132V38.4816V39.352H178.06V40.2224H178.988H179.916V39.352H178.988Z" fill="#9E63E6"/>
<path d="M118.666 43.7039V44.5743H119.595V43.7039V42.8335V41.9631H118.666V42.8335V43.7039Z" fill="#9E63E6"/>
<path d="M165.068 43.7039V44.5743H165.996V43.7039V42.8335V41.9631H165.068V42.8335V43.7039Z" fill="#9E63E6"/>
<path d="M118.666 44.5743H117.738V45.4447H118.666V44.5743Z" fill="#9E63E6"/>
<path d="M165.068 44.5743H164.14V45.4447H165.068V44.5743Z" fill="#9E63E6"/>
<path d="M43.4962 46.3151V45.4447V44.5743H44.4242V43.7039V42.8335V41.9631V41.0928V40.2224H45.3523V39.352H44.4242V38.4816V37.6112V36.7408V35.8704H45.3523V35H44.4242H43.4962H42.5682H41.6401H40.7121H39.7841H38.8561H37.928V35.8704H38.8561H39.7841H40.7121H41.6401V36.7408V37.6112V38.4816V39.352H42.5682V40.2224H41.6401V41.0928V41.9631V42.8335V43.7039V44.5743H40.7121V45.4447V46.3151H41.6401H42.5682V47.1855H41.6401V48.0559V48.9263V49.7967V50.6671V51.5375H40.7121H39.7841V50.6671V49.7967H38.8561V48.9263V48.0559V47.1855H37.928H37V48.0559V48.9263V49.7967H37.928V50.6671V51.5375H38.8561V52.4079H39.7841H40.7121H41.6401H42.5682V51.5375H43.4962V50.6671H44.4242V49.7967V48.9263V48.0559V47.1855H45.3523V46.3151H44.4242H43.4962Z" fill="#9E63E6"/>
<path d="M85.2575 46.3151V44.5743H86.1855V39.352H85.2575V37.6112H84.3294V35.8704H83.4014V35H80.6173V35.8704H79.6893V37.6112H78.7613V39.352H79.6893V40.2224H77.8332V44.5743H76.9052V46.3151H78.7613V47.1855H77.8332V51.5375H76.9052V52.4079H81.5454V51.5375H80.6173V47.1855H81.5454V46.3151H79.6893V44.5743H80.6173V43.7039H83.4014V44.5743H82.4734V46.3151H84.3294V47.1855H83.4014V51.5375H82.4734V52.4079H87.1135V51.5375H86.1855V47.1855H87.1135V46.3151H85.2575ZM82.4734 42.8335H80.6173V40.2224H81.5454V39.352H80.6173V37.6112H81.5454V35.8704H82.4734V37.6112H83.4014V39.352H84.3294V40.2224H83.4014V42.8335H82.4734Z" fill="#9E63E6"/>
<path d="M116.81 46.3151V45.4447V44.5743H117.738V43.7039V42.8335V41.9631H118.666V41.0928V40.2224H119.595V39.352H118.666V38.4816H117.738V37.6112V36.7408V35.8704H116.81V35H115.882V35.8704H114.954V36.7408V37.6112V38.4816V39.352H115.882V40.2224H114.954V41.0928V41.9631V42.8335V43.7039V44.5743H114.026V45.4447V46.3151H113.098V45.4447V44.5743H114.026V43.7039V42.8335V41.9631V41.0928V40.2224H114.954V39.352H114.026V38.4816V37.6112H113.098V36.7408V35.8704H112.17H111.242V36.7408V37.6112V38.4816V39.352H112.17V40.2224H111.242V41.0928V41.9631V42.8335V43.7039V44.5743H110.314V45.4447V46.3151H111.242H112.17V47.1855H111.242V48.0559V48.9263V49.7967V50.6671V51.5375H112.17H113.098V50.6671H114.026V49.7967V48.9263V48.0559V47.1855H114.954V46.3151H115.882V47.1855H114.954V48.0559V48.9263V49.7967V50.6671V51.5375H115.882V52.4079H116.81V51.5375H117.738V50.6671V49.7967V48.9263V48.0559V47.1855H118.666V46.3151H117.738H116.81Z" fill="#9E63E6"/>
<path d="M122.379 46.3151V45.4447V44.5743H123.307V43.7039V42.8335V41.9631V41.0928V40.2224H124.235V39.352H123.307V38.4816V37.6112V36.7408V35.8704H122.379V35H121.451V35.8704H120.523V36.7408V37.6112V38.4816V39.352H121.451V40.2224H120.523V41.0928V41.9631V42.8335V43.7039V44.5743H119.595V45.4447H118.666V46.3151H119.595H120.523V47.1855H119.595V48.0559V48.9263H120.523V49.7967V50.6671V51.5375H121.451V52.4079H122.379V51.5375H123.307V50.6671V49.7967V48.9263V48.0559V47.1855H124.235V46.3151H123.307H122.379Z" fill="#9E63E6"/>
<path d="M150.219 46.3151V45.4447H149.291V42.8335H150.219V41.9631H151.148V40.2224H152.076V39.352H151.148V36.7408H150.219V35.8704H149.291V35H143.723V35.8704H142.795V39.352H143.723V40.2224H142.795V44.5743H141.867V46.3151H143.723V47.1855H142.795V51.5375H141.867V52.4079H146.507V51.5375H145.579V47.1855H146.507V46.3151H144.651V44.5743H146.507V45.4447H147.435V46.3151H149.291V47.1855H148.363V51.5375H147.435V52.4079H152.076V51.5375H151.148V47.1855H152.076V46.3151H150.219ZM147.435 35.8704V36.7408H148.363V37.6112H149.291V39.352H150.219V40.2224H149.291V41.0928H148.363V41.9631H147.435V42.8335H145.579V40.2224H146.507V39.352H145.579V36.7408H146.507V35.8704H147.435Z" fill="#9E63E6"/>
<path d="M163.212 46.3151V45.4447V44.5743H164.14V43.7039V42.8335V41.9631H165.068V41.0928V40.2224H165.996V39.352H165.068V38.4816H164.14V37.6112V36.7408V35.8704H163.212V35H162.284V35.8704H161.356V36.7408V37.6112V38.4816V39.352H162.284V40.2224H161.356V41.0928V41.9631V42.8335V43.7039V44.5743H160.428V45.4447V46.3151H161.356H162.284V47.1855H161.356V48.0559V48.9263V49.7967V50.6671V51.5375H162.284V52.4079H163.212V51.5375H164.14V50.6671V49.7967V48.9263V48.0559V47.1855H165.068V46.3151H164.14H163.212Z" fill="#9E63E6"/>
<path d="M159.5 49.7967H158.572V50.6671V51.5375H157.644H156.716V50.6671V49.7967H155.788V48.9263V48.0559V47.1855H156.716V46.3151H155.788H154.86V45.4447V44.5743H155.788H156.716H157.644H158.572V43.7039H159.5V42.8335H158.572H157.644H156.716H155.788V41.9631V41.0928V40.2224H156.716V39.352H155.788V38.4816V37.6112H156.716V36.7408V35.8704H157.644H158.572V36.7408V37.6112H159.5V38.4816H160.428V37.6112V36.7408V35.8704H159.5V35H158.572H157.644H156.716H155.788H154.86H153.932V35.8704V36.7408H153.004V37.6112V38.4816V39.352H153.932V40.2224H153.004V41.0928V41.9631V42.8335V43.7039V44.5743H152.076V45.4447V46.3151H153.004H153.932V47.1855H153.004V48.0559V48.9263V49.7967V50.6671H153.932V51.5375V52.4079H154.86H155.788H156.716H157.644H158.572H159.5V51.5375H160.428V50.6671V49.7967V48.9263H159.5V49.7967Z" fill="#9E63E6"/>
<path d="M67.6249 49.7967V48.9263V48.0559V47.1855H68.553V46.3151H67.6249H66.6969V45.4447V44.5743H67.6249V43.7039V42.8335V41.9631V41.0928V40.2224H68.553V39.352H67.6249V38.4816V37.6112V36.7408V35.8704H68.553V35H67.6249H66.6969H65.7689H64.8408H63.9128V35.8704H64.8408V36.7408V37.6112V38.4816V39.352H65.7689V40.2224H64.8408V41.0928V41.9631V42.8335V43.7039V44.5743H63.9128V45.4447V46.3151H64.8408H65.7689V47.1855H64.8408V48.0559V48.9263V49.7967V50.6671H65.7689V51.5375H66.6969H67.6249V50.6671V49.7967Z" fill="#9E63E6"/>
<path d="M108.458 49.7966V48.9263V48.0559V47.1855H109.386V46.3151H108.458H107.53V45.4447V44.5743H108.458V43.7039V42.8335V41.9631V41.0927V40.2223H109.386V39.3519H108.458V38.4815V37.6111V36.7408V35.8704H107.53H106.602V36.7408V37.6111H105.674V38.4815V39.3519H106.602V40.2223H105.674V41.0927V41.9631V42.8335V43.7039V44.5743H104.746V45.4447V46.3151H105.674H106.602V47.1855H105.674V48.0559V48.9263V49.7966V50.667H106.602V51.5374H107.53H108.458V50.667V49.7966Z" fill="#9E63E6"/>
<path d="M68.553 51.5375H67.6249V52.4079H68.553H69.481H70.409V51.5375H69.481H68.553Z" fill="#9E63E6"/>
<path d="M109.386 51.5375H108.458V52.4079H109.386H110.314H111.242V51.5375H110.314H109.386Z" fill="#9E63E6"/>
<path d="M53.4359 35H52.5079H51.5798H50.6518H49.7238H48.7958H47.8677V35.8704V36.7408H46.9397V37.6112V38.4816V39.352H47.8677V40.2224H46.9397V41.0928V41.9631V42.8335V43.7039V44.5743H46.0117V45.4447V46.3151H46.9397H47.8677V47.1855H46.9397V48.0559V48.9263V49.7967V50.6671H47.8677V51.5375V52.4079H48.7958H49.7238H50.6518H51.5798H52.5079H53.4359V51.5375H54.3639V50.6671V49.7967V48.9263H53.4359V49.7967H52.5079V50.6671V51.5375H51.5798H50.6518V50.6671V49.7967H49.7238V48.9263V48.0559V47.1855H50.6518V46.3151H49.7238H48.7958V45.4447V44.5743H49.7238H50.6518H51.5798H52.5079V43.7039H53.4359V42.8335H52.5079H51.5798H50.6518H49.7238V41.9631V41.0928V40.2224H50.6518V39.352H49.7238V38.4816V37.6112H50.6518V36.7408V35.8704H51.5798H52.5079V36.7408V37.6112H53.4359V38.4816H54.3639V37.6112V36.7408V35.8704H53.4359V35Z" fill="#63E679"/>
<path d="M61.7882 35H60.8601H59.9321H59.0041H58.076H57.148H56.22V35.8704H57.148H58.076H59.0041H59.9321V36.7408V37.6112V38.4816V39.352H60.8601V40.2224H59.9321V41.0928V41.9631V42.8335V43.7039V44.5743H59.0041V45.4447V46.3151H59.9321H60.8601V47.1855H59.9321V48.0559V48.9263V49.7967V50.6671V51.5375H59.0041H58.076V50.6671V49.7967H57.148V48.9263V48.0559V47.1855H56.22H55.292V48.0559V48.9263V49.7967H56.22V50.6671V51.5375H57.148V52.4079H58.076H59.0041H59.9321H60.8601V51.5375H61.7882V50.6671H62.7162V49.7967V48.9263V48.0559V47.1855H63.6442V46.3151H62.7162H61.7882V45.4447V44.5743H62.7162V43.7039V42.8335V41.9631V41.0928V40.2224H63.6442V39.352H62.7162V38.4816V37.6112V36.7408V35.8704H63.6442V35H62.7162H61.7882Z" fill="#63E679"/>
<path d="M72.9245 35H71.9965H71.0684H70.1404V35.8704H71.0684V36.7408V37.6112V38.4816V39.352H71.9965V40.2224H71.0684V41.0928V41.9631V42.8335V43.7039V44.5743H70.1404V45.4447V46.3151H71.0684H71.9965V47.1855H71.0684V48.0559V48.9263V49.7967V50.6671V51.5375H71.9965H72.9245V50.6671H73.8525V49.7967V48.9263V48.0559V47.1855H74.7806V46.3151H73.8525H72.9245V45.4447V44.5743H73.8525V43.7039V42.8335V41.9631V41.0928V40.2224H74.7806V39.352H73.8525V38.4816V37.6112V36.7408V35.8704H74.7806V35H73.8525H72.9245Z" fill="#63E679"/>
<path d="M91.4851 35H90.557H89.629H88.701V35.8704H89.629V36.7408V37.6112V38.4816V39.352H90.557V40.2224H89.629V41.0928V41.9631V42.8335V43.7039V44.5743H88.701V45.4447V46.3151H89.629H90.557V47.1855H89.629V48.0559V48.9263V49.7967V50.6671V51.5375H88.701V52.4079H89.629H90.557H91.4851H92.4131H93.3411V51.5375H92.4131V50.6671V49.7967V48.9263V48.0559V47.1855H93.3411V46.3151H92.4131H91.4851V45.4447V44.5743H92.4131V43.7039V42.8335V41.9631V41.0928V40.2224H93.3411V39.352H92.4131V38.4816V37.6112V36.7408V35.8704H93.3411V35H92.4131H91.4851Z" fill="#63E679"/>
<path d="M110.974 35.8704H111.902V35H110.974H110.046H109.118V35.8704H110.046H110.974Z" fill="#63E679"/>
<path d="M140.671 35H139.743H138.815H137.886H136.958H136.03H135.102V35.8704V36.7408H134.174V37.6112V38.4816V39.352H135.102V40.2224H134.174V41.0928V41.9631V42.8335V43.7039V44.5743H133.246V45.4447V46.3151H134.174H135.102V47.1855H134.174V48.0559V48.9263V49.7967V50.6671H135.102V51.5375V52.4079H136.03H136.958H137.886H138.815H139.743H140.671V51.5375H141.599V50.6671V49.7967V48.9263H140.671V49.7967H139.743V50.6671V51.5375H138.815H137.886V50.6671V49.7967H136.958V48.9263V48.0559V47.1855H137.886V46.3151H136.958H136.03V45.4447V44.5743H136.958H137.886H138.815H139.743V43.7039H140.671V42.8335H139.743H138.815H137.886H136.958V41.9631V41.0928V40.2224H137.886V39.352H136.958V38.4816V37.6112H137.886V36.7408V35.8704H138.815H139.743V36.7408V37.6112H140.671V38.4816H141.599V37.6112V36.7408V35.8704H140.671V35Z" fill="#63E679"/>
<path d="M187.072 35.8704V35H186.144H185.216H184.288H183.36H182.432H181.504V35.8704V36.7408H180.576V37.6112V38.4816V39.352H181.504V40.2224H180.576V41.0928V41.9631V42.8335V43.7039V44.5743H179.648V45.4447V46.3151H180.576H181.504V47.1855H180.576V48.0559V48.9263V49.7967V50.6671H181.504V51.5375V52.4079H182.432H183.36H184.288H185.216H186.144H187.072V51.5375H188V50.6671V49.7967V48.9263H187.072V49.7967H186.144V50.6671V51.5375H185.216H184.288V50.6671V49.7967H183.36V48.9263V48.0559V47.1855H184.288V46.3151H183.36H182.432V45.4447V44.5743H183.36H184.288H185.216H186.144V43.7039H187.072V42.8335H186.144H185.216H184.288H183.36V41.9631V41.0928V40.2224H184.288V39.352H183.36V38.4816V37.6112H184.288V36.7408V35.8704H185.216H186.144V36.7408V37.6112H187.072V38.4816H188V37.6112V36.7408V35.8704H187.072Z" fill="#63E679"/>
<path d="M133.246 38.4816V37.6112V36.7408V35.8704H132.318V35H131.39H130.462H129.534H128.606H127.678H126.75V35.8704V36.7408H125.822V37.6112V38.4816V39.352H126.75V40.2224H125.822V41.0928V41.9631V42.8335H124.894V43.7039V44.5743V45.4447V46.3151H125.822H126.75V47.1855H125.822V48.0559V48.9263V49.7967V50.6671V51.5375H124.894V52.4079H125.822H126.75H127.678H128.606H129.534H130.462V51.5375H129.534H128.606V50.6671V49.7967V48.9263V48.0559V47.1855H129.534V46.3151H128.606H127.678V45.4447V44.5743H128.606H129.534H130.462H131.39V43.7039H132.318V42.8335H131.39H130.462H129.534H128.606V41.9631V41.0928V40.2224H129.534V39.352H128.606V38.4816V37.6112H129.534V36.7408V35.8704H130.462H131.39V36.7408V37.6112H132.318V38.4816H133.246Z" fill="#63E679"/>
<path d="M105.405 39.352V38.4816V37.6112H104.477V36.7408V35.8704H103.549V35H102.621H101.693H100.765H99.8373V35.8704H98.9093V36.7408H97.9813V37.6112V38.4816H97.0532V39.352H97.9813V40.2224H97.0532V41.0928V41.9631V42.8335V43.7039V44.5743H96.1252V45.4447V46.3151H97.0532H97.9813V47.1855H97.0532V48.0559V48.9263H97.9813V49.7967V50.6671H98.9093V51.5375H99.8373V52.4079H100.765H101.693H102.621H103.549V51.5375H104.477V50.6671V49.7967H105.405V48.9263V48.0559V47.1855H104.477H103.549V48.0559V48.9263V49.7967H102.621V50.6671V51.5375H101.693H100.765V50.6671V49.7967H99.8373V48.9263V48.0559V47.1855H100.765V46.3151H99.8373H98.9093V45.4447V44.5743H99.8373V43.7039V42.8335V41.9631V41.0928V40.2224H100.765V39.352H99.8373V38.4816V37.6112H100.765V36.7408V35.8704H101.693H102.621V36.7408V37.6112H103.549V38.4816V39.352H104.477V40.2224H105.405H106.334V39.352H105.405Z" fill="#63E679"/>
<path d="M179.648 39.352V38.4816V37.6112H178.72V36.7408V35.8704H177.792V35H176.864H175.936H175.008H174.08V35.8704H173.152V36.7408H172.224V37.6112V38.4816H171.295V39.352H172.224V40.2224H171.295V41.0928V41.9631V42.8335V43.7039V44.5743H170.367V45.4447V46.3151H169.439V45.4447V44.5743H170.367V43.7039V42.8335V41.9631V41.0928V40.2224H171.295V39.352H170.367V38.4816V37.6112V36.7408V35.8704H169.439V35H168.511V35.8704H167.583V36.7408V37.6112V38.4816V39.352H168.511V40.2224H167.583V41.0928V41.9631V42.8335V43.7039V44.5743H166.655V45.4447H165.727V46.3151H166.655H167.583V47.1855H166.655V48.0559V48.9263H167.583V49.7967V50.6671V51.5375H168.511V52.4079H169.439V51.5375H170.367V50.6671V49.7967V48.9263V48.0559V47.1855H171.295V46.3151H172.224V47.1855H171.295V48.0559V48.9263H172.224V49.7967V50.6671H173.152V51.5375H174.08V52.4079H175.008H175.936H176.864H177.792V51.5375H178.72V50.6671V49.7967H179.648V48.9263V48.0559V47.1855H178.72H177.792V48.0559V48.9263V49.7967H176.864V50.6671V51.5375H175.936H175.008V50.6671V49.7967H174.08V48.9263V48.0559V47.1855H175.008V46.3151H174.08H173.152V45.4447V44.5743H174.08V43.7039V42.8335V41.9631V41.0928V40.2224H175.008V39.352H174.08V38.4816V37.6112H175.008V36.7408V35.8704H175.936H176.864V36.7408V37.6112H177.792V38.4816V39.352H178.72V40.2224H179.648H180.576V39.352H179.648Z" fill="#63E679"/>
<path d="M119.326 43.7039V44.5743H120.254V43.7039V42.8335V41.9631H119.326V42.8335V43.7039Z" fill="#63E679"/>
<path d="M165.727 43.7039V44.5743H166.655V43.7039V42.8335V41.9631H165.727V42.8335V43.7039Z" fill="#63E679"/>
<path d="M119.326 44.5743H118.398V45.4447H119.326V44.5743Z" fill="#63E679"/>
<path d="M165.727 44.5743H164.799V45.4447H165.727V44.5743Z" fill="#63E679"/>
<path d="M44.1556 46.3151V45.4447V44.5743H45.0836V43.7039V42.8335V41.9631V41.0928V40.2224H46.0117V39.352H45.0836V38.4816V37.6112V36.7408V35.8704H46.0117V35H45.0836H44.1556H43.2276H42.2996H41.3715H40.4435H39.5155H38.5874V35.8704H39.5155H40.4435H41.3715H42.2996V36.7408V37.6112V38.4816V39.352H43.2276V40.2224H42.2996V41.0928V41.9631V42.8335V43.7039V44.5743H41.3715V45.4447V46.3151H42.2996H43.2276V47.1855H42.2996V48.0559V48.9263V49.7967V50.6671V51.5375H41.3715H40.4435V50.6671V49.7967H39.5155V48.9263V48.0559V47.1855H38.5874H37.6594V48.0559V48.9263V49.7967H38.5874V50.6671V51.5375H39.5155V52.4079H40.4435H41.3715H42.2996H43.2276V51.5375H44.1556V50.6671H45.0836V49.7967V48.9263V48.0559V47.1855H46.0117V46.3151H45.0836H44.1556Z" fill="#63E679"/>
<path d="M85.9169 46.3151V44.5743H86.8449V39.352H85.9169V37.6112H84.9889V35.8704H84.0608V35H81.2768V35.8704H80.3487V37.6112H79.4207V39.352H80.3487V40.2224H78.4927V44.5743H77.5646V46.3151H79.4207V47.1855H78.4927V51.5375H77.5646V52.4079H82.2048V51.5375H81.2768V47.1855H82.2048V46.3151H80.3487V44.5743H81.2768V43.7039H84.0608V44.5743H83.1328V46.3151H84.9889V47.1855H84.0608V51.5375H83.1328V52.4079H87.7729V51.5375H86.8449V47.1855H87.7729V46.3151H85.9169ZM83.1328 42.8335H81.2768V40.2224H82.2048V39.352H81.2768V37.6112H82.2048V35.8704H83.1328V37.6112H84.0608V39.352H84.9889V40.2224H84.0608V42.8335H83.1328Z" fill="#63E679"/>
<path d="M117.47 46.3151V45.4447V44.5743H118.398V43.7039V42.8335V41.9631H119.326V41.0928V40.2224H120.254V39.352H119.326V38.4816H118.398V37.6112V36.7408V35.8704H117.47V35H116.542V35.8704H115.614V36.7408V37.6112V38.4816V39.352H116.542V40.2224H115.614V41.0928V41.9631V42.8335V43.7039V44.5743H114.686V45.4447V46.3151H113.758V45.4447V44.5743H114.686V43.7039V42.8335V41.9631V41.0928V40.2224H115.614V39.352H114.686V38.4816V37.6112H113.758V36.7408V35.8704H112.83H111.902V36.7408V37.6112V38.4816V39.352H112.83V40.2224H111.902V41.0928V41.9631V42.8335V43.7039V44.5743H110.974V45.4447V46.3151H111.902H112.83V47.1855H111.902V48.0559V48.9263V49.7967V50.6671V51.5375H112.83H113.758V50.6671H114.686V49.7967V48.9263V48.0559V47.1855H115.614V46.3151H116.542V47.1855H115.614V48.0559V48.9263V49.7967V50.6671V51.5375H116.542V52.4079H117.47V51.5375H118.398V50.6671V49.7967V48.9263V48.0559V47.1855H119.326V46.3151H118.398H117.47Z" fill="#63E679"/>
<path d="M123.038 46.3151V45.4447V44.5743H123.966V43.7039V42.8335V41.9631V41.0928V40.2224H124.894V39.352H123.966V38.4816V37.6112V36.7408V35.8704H123.038V35H122.11V35.8704H121.182V36.7408V37.6112V38.4816V39.352H122.11V40.2224H121.182V41.0928V41.9631V42.8335V43.7039V44.5743H120.254V45.4447H119.326V46.3151H120.254H121.182V47.1855H120.254V48.0559V48.9263H121.182V49.7967V50.6671V51.5375H122.11V52.4079H123.038V51.5375H123.966V50.6671V49.7967V48.9263V48.0559V47.1855H124.894V46.3151H123.966H123.038Z" fill="#63E679"/>
<path d="M150.879 46.3151V45.4447H149.951V42.8335H150.879V41.9631H151.807V40.2224H152.735V39.352H151.807V36.7408H150.879V35.8704H149.951V35H144.383V35.8704H143.455V39.352H144.383V40.2224H143.455V44.5743H142.527V46.3151H144.383V47.1855H143.455V51.5375H142.527V52.4079H147.167V51.5375H146.239V47.1855H147.167V46.3151H145.311V44.5743H147.167V45.4447H148.095V46.3151H149.951V47.1855H149.023V51.5375H148.095V52.4079H152.735V51.5375H151.807V47.1855H152.735V46.3151H150.879ZM148.095 35.8704V36.7408H149.023V37.6112H149.951V39.352H150.879V40.2224H149.951V41.0928H149.023V41.9631H148.095V42.8335H146.239V40.2224H147.167V39.352H146.239V36.7408H147.167V35.8704H148.095Z" fill="#63E679"/>
<path d="M163.871 46.3151V45.4447V44.5743H164.799V43.7039V42.8335V41.9631H165.727V41.0928V40.2224H166.655V39.352H165.727V38.4816H164.799V37.6112V36.7408V35.8704H163.871V35H162.943V35.8704H162.015V36.7408V37.6112V38.4816V39.352H162.943V40.2224H162.015V41.0928V41.9631V42.8335V43.7039V44.5743H161.087V45.4447V46.3151H162.015H162.943V47.1855H162.015V48.0559V48.9263V49.7967V50.6671V51.5375H162.943V52.4079H163.871V51.5375H164.799V50.6671V49.7967V48.9263V48.0559V47.1855H165.727V46.3151H164.799H163.871Z" fill="#63E679"/>
<path d="M160.159 49.7967H159.231V50.6671V51.5375H158.303H157.375V50.6671V49.7967H156.447V48.9263V48.0559V47.1855H157.375V46.3151H156.447H155.519V45.4447V44.5743H156.447H157.375H158.303H159.231V43.7039H160.159V42.8335H159.231H158.303H157.375H156.447V41.9631V41.0928V40.2224H157.375V39.352H156.447V38.4816V37.6112H157.375V36.7408V35.8704H158.303H159.231V36.7408V37.6112H160.159V38.4816H161.087V37.6112V36.7408V35.8704H160.159V35H159.231H158.303H157.375H156.447H155.519H154.591V35.8704V36.7408H153.663V37.6112V38.4816V39.352H154.591V40.2224H153.663V41.0928V41.9631V42.8335V43.7039V44.5743H152.735V45.4447V46.3151H153.663H154.591V47.1855H153.663V48.0559V48.9263V49.7967V50.6671H154.591V51.5375V52.4079H155.519H156.447H157.375H158.303H159.231H160.159V51.5375H161.087V50.6671V49.7967V48.9263H160.159V49.7967Z" fill="#63E679"/>
<path d="M68.2843 49.7967V48.9263V48.0559V47.1855H69.2124V46.3151H68.2843H67.3563V45.4447V44.5743H68.2843V43.7039V42.8335V41.9631V41.0928V40.2224H69.2124V39.352H68.2843V38.4816V37.6112V36.7408V35.8704H69.2124V35H68.2843H67.3563H66.4283H65.5003H64.5722V35.8704H65.5003V36.7408V37.6112V38.4816V39.352H66.4283V40.2224H65.5003V41.0928V41.9631V42.8335V43.7039V44.5743H64.5722V45.4447V46.3151H65.5003H66.4283V47.1855H65.5003V48.0559V48.9263V49.7967V50.6671H66.4283V51.5375H67.3563H68.2843V50.6671V49.7967Z" fill="#63E679"/>
<path d="M109.118 49.7966V48.9263V48.0559V47.1855H110.046V46.3151H109.118H108.19V45.4447V44.5743H109.118V43.7039V42.8335V41.9631V41.0927V40.2223H110.046V39.3519H109.118V38.4815V37.6111V36.7408V35.8704H108.19H107.262V36.7408V37.6111H106.334V38.4815V39.3519H107.262V40.2223H106.334V41.0927V41.9631V42.8335V43.7039V44.5743H105.405V45.4447V46.3151H106.334H107.262V47.1855H106.334V48.0559V48.9263V49.7966V50.667H107.262V51.5374H108.19H109.118V50.667V49.7966Z" fill="#63E679"/>
<path d="M69.2124 51.5375H68.2843V52.4079H69.2124H70.1404H71.0684V51.5375H70.1404H69.2124Z" fill="#63E679"/>
<path d="M110.046 51.5375H109.118V52.4079H110.046H110.974H111.902V51.5375H110.974H110.046Z" fill="#63E679"/>
<path d="M53.1721 35H52.2441H51.316H50.388H49.46H48.5319H47.6039V35.8704V36.7408H46.6759V37.6112V38.4816V39.352H47.6039V40.2224H46.6759V41.0928V41.9631V42.8335V43.7039V44.5743H45.7479V45.4447V46.3151H46.6759H47.6039V47.1855H46.6759V48.0559V48.9263V49.7967V50.6671H47.6039V51.5375V52.4079H48.5319H49.46H50.388H51.316H52.2441H53.1721V51.5375H54.1001V50.6671V49.7967V48.9263H53.1721V49.7967H52.2441V50.6671V51.5375H51.316H50.388V50.6671V49.7967H49.46V48.9263V48.0559V47.1855H50.388V46.3151H49.46H48.5319V45.4447V44.5743H49.46H50.388H51.316H52.2441V43.7039H53.1721V42.8335H52.2441H51.316H50.388H49.46V41.9631V41.0928V40.2224H50.388V39.352H49.46V38.4816V37.6112H50.388V36.7408V35.8704H51.316H52.2441V36.7408V37.6112H53.1721V38.4816H54.1001V37.6112V36.7408V35.8704H53.1721V35Z" fill="white"/>
<path d="M61.5243 35H60.5963H59.6683H58.7403H57.8122H56.8842H55.9562V35.8704H56.8842H57.8122H58.7403H59.6683V36.7408V37.6112V38.4816V39.352H60.5963V40.2224H59.6683V41.0928V41.9631V42.8335V43.7039V44.5743H58.7403V45.4447V46.3151H59.6683H60.5963V47.1855H59.6683V48.0559V48.9263V49.7967V50.6671V51.5375H58.7403H57.8122V50.6671V49.7967H56.8842V48.9263V48.0559V47.1855H55.9562H55.0281V48.0559V48.9263V49.7967H55.9562V50.6671V51.5375H56.8842V52.4079H57.8122H58.7403H59.6683H60.5963V51.5375H61.5243V50.6671H62.4524V49.7967V48.9263V48.0559V47.1855H63.3804V46.3151H62.4524H61.5243V45.4447V44.5743H62.4524V43.7039V42.8335V41.9631V41.0928V40.2224H63.3804V39.352H62.4524V38.4816V37.6112V36.7408V35.8704H63.3804V35H62.4524H61.5243Z" fill="white"/>
<path d="M72.6607 35H71.7327H70.8046H69.8766V35.8704H70.8046V36.7408V37.6112V38.4816V39.352H71.7327V40.2224H70.8046V41.0928V41.9631V42.8335V43.7039V44.5743H69.8766V45.4447V46.3151H70.8046H71.7327V47.1855H70.8046V48.0559V48.9263V49.7967V50.6671V51.5375H71.7327H72.6607V50.6671H73.5887V49.7967V48.9263V48.0559V47.1855H74.5167V46.3151H73.5887H72.6607V45.4447V44.5743H73.5887V43.7039V42.8335V41.9631V41.0928V40.2224H74.5167V39.352H73.5887V38.4816V37.6112V36.7408V35.8704H74.5167V35H73.5887H72.6607Z" fill="white"/>
<path d="M91.2212 35H90.2932H89.3652H88.4372V35.8704H89.3652V36.7408V37.6112V38.4816V39.352H90.2932V40.2224H89.3652V41.0928V41.9631V42.8335V43.7039V44.5743H88.4372V45.4447V46.3151H89.3652H90.2932V47.1855H89.3652V48.0559V48.9263V49.7967V50.6671V51.5375H88.4372V52.4079H89.3652H90.2932H91.2212H92.1493H93.0773V51.5375H92.1493V50.6671V49.7967V48.9263V48.0559V47.1855H93.0773V46.3151H92.1493H91.2212V45.4447V44.5743H92.1493V43.7039V42.8335V41.9631V41.0928V40.2224H93.0773V39.352H92.1493V38.4816V37.6112V36.7408V35.8704H93.0773V35H92.1493H91.2212Z" fill="white"/>
<path d="M110.71 35.8704H111.638V35H110.71H109.782H108.854V35.8704H109.782H110.71Z" fill="white"/>
<path d="M140.407 35H139.479H138.551H137.623H136.695H135.767H134.839V35.8704V36.7408H133.911V37.6112V38.4816V39.352H134.839V40.2224H133.911V41.0928V41.9631V42.8335V43.7039V44.5743H132.983V45.4447V46.3151H133.911H134.839V47.1855H133.911V48.0559V48.9263V49.7967V50.6671H134.839V51.5375V52.4079H135.767H136.695H137.623H138.551H139.479H140.407V51.5375H141.335V50.6671V49.7967V48.9263H140.407V49.7967H139.479V50.6671V51.5375H138.551H137.623V50.6671V49.7967H136.695V48.9263V48.0559V47.1855H137.623V46.3151H136.695H135.767V45.4447V44.5743H136.695H137.623H138.551H139.479V43.7039H140.407V42.8335H139.479H138.551H137.623H136.695V41.9631V41.0928V40.2224H137.623V39.352H136.695V38.4816V37.6112H137.623V36.7408V35.8704H138.551H139.479V36.7408V37.6112H140.407V38.4816H141.335V37.6112V36.7408V35.8704H140.407V35Z" fill="white"/>
<path d="M186.808 35.8704V35H185.88H184.952H184.024H183.096H182.168H181.24V35.8704V36.7408H180.312V37.6112V38.4816V39.352H181.24V40.2224H180.312V41.0928V41.9631V42.8335V43.7039V44.5743H179.384V45.4447V46.3151H180.312H181.24V47.1855H180.312V48.0559V48.9263V49.7967V50.6671H181.24V51.5375V52.4079H182.168H183.096H184.024H184.952H185.88H186.808V51.5375H187.736V50.6671V49.7967V48.9263H186.808V49.7967H185.88V50.6671V51.5375H184.952H184.024V50.6671V49.7967H183.096V48.9263V48.0559V47.1855H184.024V46.3151H183.096H182.168V45.4447V44.5743H183.096H184.024H184.952H185.88V43.7039H186.808V42.8335H185.88H184.952H184.024H183.096V41.9631V41.0928V40.2224H184.024V39.352H183.096V38.4816V37.6112H184.024V36.7408V35.8704H184.952H185.88V36.7408V37.6112H186.808V38.4816H187.736V37.6112V36.7408V35.8704H186.808Z" fill="white"/>
<path d="M132.983 38.4816V37.6112V36.7408V35.8704H132.054V35H131.126H130.198H129.27H128.342H127.414H126.486V35.8704V36.7408H125.558V37.6112V38.4816V39.352H126.486V40.2224H125.558V41.0928V41.9631V42.8335H124.63V43.7039V44.5743V45.4447V46.3151H125.558H126.486V47.1855H125.558V48.0559V48.9263V49.7967V50.6671V51.5375H124.63V52.4079H125.558H126.486H127.414H128.342H129.27H130.198V51.5375H129.27H128.342V50.6671V49.7967V48.9263V48.0559V47.1855H129.27V46.3151H128.342H127.414V45.4447V44.5743H128.342H129.27H130.198H131.126V43.7039H132.054V42.8335H131.126H130.198H129.27H128.342V41.9631V41.0928V40.2224H129.27V39.352H128.342V38.4816V37.6112H129.27V36.7408V35.8704H130.198H131.126V36.7408V37.6112H132.054V38.4816H132.983Z" fill="white"/>
<path d="M105.142 39.352V38.4816V37.6112H104.214V36.7408V35.8704H103.286V35H102.358H101.43H100.502H99.5735V35.8704H98.6455V36.7408H97.7174V37.6112V38.4816H96.7894V39.352H97.7174V40.2224H96.7894V41.0928V41.9631V42.8335V43.7039V44.5743H95.8614V45.4447V46.3151H96.7894H97.7174V47.1855H96.7894V48.0559V48.9263H97.7174V49.7967V50.6671H98.6455V51.5375H99.5735V52.4079H100.502H101.43H102.358H103.286V51.5375H104.214V50.6671V49.7967H105.142V48.9263V48.0559V47.1855H104.214H103.286V48.0559V48.9263V49.7967H102.358V50.6671V51.5375H101.43H100.502V50.6671V49.7967H99.5735V48.9263V48.0559V47.1855H100.502V46.3151H99.5735H98.6455V45.4447V44.5743H99.5735V43.7039V42.8335V41.9631V41.0928V40.2224H100.502V39.352H99.5735V38.4816V37.6112H100.502V36.7408V35.8704H101.43H102.358V36.7408V37.6112H103.286V38.4816V39.352H104.214V40.2224H105.142H106.07V39.352H105.142Z" fill="white"/>
<path d="M179.384 39.352V38.4816V37.6112H178.456V36.7408V35.8704H177.528V35H176.6H175.672H174.744H173.816V35.8704H172.888V36.7408H171.96V37.6112V38.4816H171.032V39.352H171.96V40.2224H171.032V41.0928V41.9631V42.8335V43.7039V44.5743H170.104V45.4447V46.3151H169.176V45.4447V44.5743H170.104V43.7039V42.8335V41.9631V41.0928V40.2224H171.032V39.352H170.104V38.4816V37.6112V36.7408V35.8704H169.176V35H168.248V35.8704H167.32V36.7408V37.6112V38.4816V39.352H168.248V40.2224H167.32V41.0928V41.9631V42.8335V43.7039V44.5743H166.392V45.4447H165.464V46.3151H166.392H167.32V47.1855H166.392V48.0559V48.9263H167.32V49.7967V50.6671V51.5375H168.248V52.4079H169.176V51.5375H170.104V50.6671V49.7967V48.9263V48.0559V47.1855H171.032V46.3151H171.96V47.1855H171.032V48.0559V48.9263H171.96V49.7967V50.6671H172.888V51.5375H173.816V52.4079H174.744H175.672H176.6H177.528V51.5375H178.456V50.6671V49.7967H179.384V48.9263V48.0559V47.1855H178.456H177.528V48.0559V48.9263V49.7967H176.6V50.6671V51.5375H175.672H174.744V50.6671V49.7967H173.816V48.9263V48.0559V47.1855H174.744V46.3151H173.816H172.888V45.4447V44.5743H173.816V43.7039V42.8335V41.9631V41.0928V40.2224H174.744V39.352H173.816V38.4816V37.6112H174.744V36.7408V35.8704H175.672H176.6V36.7408V37.6112H177.528V38.4816V39.352H178.456V40.2224H179.384H180.312V39.352H179.384Z" fill="white"/>
<path d="M119.062 43.7039V44.5743H119.99V43.7039V42.8335V41.9631H119.062V42.8335V43.7039Z" fill="white"/>
<path d="M165.464 43.7039V44.5743H166.392V43.7039V42.8335V41.9631H165.464V42.8335V43.7039Z" fill="white"/>
<path d="M119.062 44.5743H118.134V45.4447H119.062V44.5743Z" fill="white"/>
<path d="M165.464 44.5743H164.535V45.4447H165.464V44.5743Z" fill="white"/>
<path d="M43.8918 46.3151V45.4447V44.5743H44.8198V43.7039V42.8335V41.9631V41.0928V40.2224H45.7479V39.352H44.8198V38.4816V37.6112V36.7408V35.8704H45.7479V35H44.8198H43.8918H42.9638H42.0357H41.1077H40.1797H39.2517H38.3236V35.8704H39.2517H40.1797H41.1077H42.0357V36.7408V37.6112V38.4816V39.352H42.9638V40.2224H42.0357V41.0928V41.9631V42.8335V43.7039V44.5743H41.1077V45.4447V46.3151H42.0357H42.9638V47.1855H42.0357V48.0559V48.9263V49.7967V50.6671V51.5375H41.1077H40.1797V50.6671V49.7967H39.2517V48.9263V48.0559V47.1855H38.3236H37.3956V48.0559V48.9263V49.7967H38.3236V50.6671V51.5375H39.2517V52.4079H40.1797H41.1077H42.0357H42.9638V51.5375H43.8918V50.6671H44.8198V49.7967V48.9263V48.0559V47.1855H45.7479V46.3151H44.8198H43.8918Z" fill="white"/>
<path d="M85.6531 46.3151V44.5743H86.5811V39.352H85.6531V37.6112H84.7251V35.8704H83.797V35H81.0129V35.8704H80.0849V37.6112H79.1569V39.352H80.0849V40.2224H78.2289V44.5743H77.3008V46.3151H79.1569V47.1855H78.2289V51.5375H77.3008V52.4079H81.941V51.5375H81.0129V47.1855H81.941V46.3151H80.0849V44.5743H81.0129V43.7039H83.797V44.5743H82.869V46.3151H84.7251V47.1855H83.797V51.5375H82.869V52.4079H87.5091V51.5375H86.5811V47.1855H87.5091V46.3151H85.6531ZM82.869 42.8335H81.0129V40.2224H81.941V39.352H81.0129V37.6112H81.941V35.8704H82.869V37.6112H83.797V39.352H84.7251V40.2224H83.797V42.8335H82.869Z" fill="white"/>
<path d="M117.206 46.3151V45.4447V44.5743H118.134V43.7039V42.8335V41.9631H119.062V41.0928V40.2224H119.99V39.352H119.062V38.4816H118.134V37.6112V36.7408V35.8704H117.206V35H116.278V35.8704H115.35V36.7408V37.6112V38.4816V39.352H116.278V40.2224H115.35V41.0928V41.9631V42.8335V43.7039V44.5743H114.422V45.4447V46.3151H113.494V45.4447V44.5743H114.422V43.7039V42.8335V41.9631V41.0928V40.2224H115.35V39.352H114.422V38.4816V37.6112H113.494V36.7408V35.8704H112.566H111.638V36.7408V37.6112V38.4816V39.352H112.566V40.2224H111.638V41.0928V41.9631V42.8335V43.7039V44.5743H110.71V45.4447V46.3151H111.638H112.566V47.1855H111.638V48.0559V48.9263V49.7967V50.6671V51.5375H112.566H113.494V50.6671H114.422V49.7967V48.9263V48.0559V47.1855H115.35V46.3151H116.278V47.1855H115.35V48.0559V48.9263V49.7967V50.6671V51.5375H116.278V52.4079H117.206V51.5375H118.134V50.6671V49.7967V48.9263V48.0559V47.1855H119.062V46.3151H118.134H117.206Z" fill="white"/>
<path d="M122.774 46.3151V45.4447V44.5743H123.702V43.7039V42.8335V41.9631V41.0928V40.2224H124.63V39.352H123.702V38.4816V37.6112V36.7408V35.8704H122.774V35H121.846V35.8704H120.918V36.7408V37.6112V38.4816V39.352H121.846V40.2224H120.918V41.0928V41.9631V42.8335V43.7039V44.5743H119.99V45.4447H119.062V46.3151H119.99H120.918V47.1855H119.99V48.0559V48.9263H120.918V49.7967V50.6671V51.5375H121.846V52.4079H122.774V51.5375H123.702V50.6671V49.7967V48.9263V48.0559V47.1855H124.63V46.3151H123.702H122.774Z" fill="white"/>
<path d="M150.615 46.3151V45.4447H149.687V42.8335H150.615V41.9631H151.543V40.2224H152.471V39.352H151.543V36.7408H150.615V35.8704H149.687V35H144.119V35.8704H143.191V39.352H144.119V40.2224H143.191V44.5743H142.263V46.3151H144.119V47.1855H143.191V51.5375H142.263V52.4079H146.903V51.5375H145.975V47.1855H146.903V46.3151H145.047V44.5743H146.903V45.4447H147.831V46.3151H149.687V47.1855H148.759V51.5375H147.831V52.4079H152.471V51.5375H151.543V47.1855H152.471V46.3151H150.615ZM147.831 35.8704V36.7408H148.759V37.6112H149.687V39.352H150.615V40.2224H149.687V41.0928H148.759V41.9631H147.831V42.8335H145.975V40.2224H146.903V39.352H145.975V36.7408H146.903V35.8704H147.831Z" fill="white"/>
<path d="M163.607 46.3151V45.4447V44.5743H164.535V43.7039V42.8335V41.9631H165.464V41.0928V40.2224H166.392V39.352H165.464V38.4816H164.535V37.6112V36.7408V35.8704H163.607V35H162.679V35.8704H161.751V36.7408V37.6112V38.4816V39.352H162.679V40.2224H161.751V41.0928V41.9631V42.8335V43.7039V44.5743H160.823V45.4447V46.3151H161.751H162.679V47.1855H161.751V48.0559V48.9263V49.7967V50.6671V51.5375H162.679V52.4079H163.607V51.5375H164.535V50.6671V49.7967V48.9263V48.0559V47.1855H165.464V46.3151H164.535H163.607Z" fill="white"/>
<path d="M159.895 49.7967H158.967V50.6671V51.5375H158.039H157.111V50.6671V49.7967H156.183V48.9263V48.0559V47.1855H157.111V46.3151H156.183H155.255V45.4447V44.5743H156.183H157.111H158.039H158.967V43.7039H159.895V42.8335H158.967H158.039H157.111H156.183V41.9631V41.0928V40.2224H157.111V39.352H156.183V38.4816V37.6112H157.111V36.7408V35.8704H158.039H158.967V36.7408V37.6112H159.895V38.4816H160.823V37.6112V36.7408V35.8704H159.895V35H158.967H158.039H157.111H156.183H155.255H154.327V35.8704V36.7408H153.399V37.6112V38.4816V39.352H154.327V40.2224H153.399V41.0928V41.9631V42.8335V43.7039V44.5743H152.471V45.4447V46.3151H153.399H154.327V47.1855H153.399V48.0559V48.9263V49.7967V50.6671H154.327V51.5375V52.4079H155.255H156.183H157.111H158.039H158.967H159.895V51.5375H160.823V50.6671V49.7967V48.9263H159.895V49.7967Z" fill="white"/>
<path d="M68.0205 49.7967V48.9263V48.0559V47.1855H68.9486V46.3151H68.0205H67.0925V45.4447V44.5743H68.0205V43.7039V42.8335V41.9631V41.0928V40.2224H68.9486V39.352H68.0205V38.4816V37.6112V36.7408V35.8704H68.9486V35H68.0205H67.0925H66.1645H65.2365H64.3084V35.8704H65.2365V36.7408V37.6112V38.4816V39.352H66.1645V40.2224H65.2365V41.0928V41.9631V42.8335V43.7039V44.5743H64.3084V45.4447V46.3151H65.2365H66.1645V47.1855H65.2365V48.0559V48.9263V49.7967V50.6671H66.1645V51.5375H67.0925H68.0205V50.6671V49.7967Z" fill="white"/>
<path d="M108.854 49.7966V48.9263V48.0559V47.1855H109.782V46.3151H108.854H107.926V45.4447V44.5743H108.854V43.7039V42.8335V41.9631V41.0927V40.2223H109.782V39.3519H108.854V38.4815V37.6111V36.7408V35.8704H107.926H106.998V36.7408V37.6111H106.07V38.4815V39.3519H106.998V40.2223H106.07V41.0927V41.9631V42.8335V43.7039V44.5743H105.142V45.4447V46.3151H106.07H106.998V47.1855H106.07V48.0559V48.9263V49.7966V50.667H106.998V51.5374H107.926H108.854V50.667V49.7966Z" fill="white"/>
<path d="M68.9486 51.5375H68.0205V52.4079H68.9486H69.8766H70.8046V51.5375H69.8766H68.9486Z" fill="white"/>
<path d="M109.782 51.5375H108.854V52.4079H109.782H110.71H111.638V51.5375H110.71H109.782Z" fill="white"/>
<defs>
<filter id="filter0_di_333_2554" x="188" y="656" width="110.5" height="37.5" filterUnits="userSpaceOnUse" color-interpolation-filters="sRGB">
<feFlood flood-opacity="0" result="BackgroundImageFix"/>
<feColorMatrix in="SourceAlpha" type="matrix" values="0 0 0 0 0 0 0 0 0 0 0 0 0 0 0 0 0 0 127 0" result="hardAlpha"/>
<feOffset dx="2" dy="2"/>
<feComposite in2="hardAlpha" operator="out"/>
<feColorMatrix type="matrix" values="0 0 0 0 0 0 0 0 0 0 0 0 0 0 0 0 0 0 1 0"/>
<feBlend mode="normal" in2="BackgroundImageFix" result="effect1_dropShadow_333_2554"/>
<feBlend mode="normal" in="SourceGraphic" in2="effect1_dropShadow_333_2554" result="shape"/>
<feColorMatrix in="SourceAlpha" type="matrix" values="0 0 0 0 0 0 0 0 0 0 0 0 0 0 0 0 0 0 127 0" result="hardAlpha"/>
<feOffset dx="2" dy="2"/>
<feComposite in2="hardAlpha" operator="arithmetic" k2="-1" k3="1"/>
<feColorMatrix type="matrix" values="0 0 0 0 1 0 0 0 0 1 0 0 0 0 1 0 0 0 1 0"/>
<feBlend mode="normal" in2="shape" result="effect2_innerShadow_333_2554"/>
</filter>
<filter id="filter1_di_333_2554" x="430" y="33.5" width="23" height="23" filterUnits="userSpaceOnUse" color-interpolation-filters="sRGB">
<feFlood flood-opacity="0" result="BackgroundImageFix"/>
<feColorMatrix in="SourceAlpha" type="matrix" values="0 0 0 0 0 0 0 0 0 0 0 0 0 0 0 0 0 0 127 0" result="hardAlpha"/>
<feOffset dx="2" dy="2"/>
<feComposite in2="hardAlpha" operator="out"/>
<feColorMatrix type="matrix" values="0 0 0 0 0 0 0 0 0 0 0 0 0 0 0 0 0 0 1 0"/>
<feBlend mode="normal" in2="BackgroundImageFix" result="effect1_dropShadow_333_2554"/>
<feBlend mode="normal" in="SourceGraphic" in2="effect1_dropShadow_333_2554" result="shape"/>
<feColorMatrix in="SourceAlpha" type="matrix" values="0 0 0 0 0 0 0 0 0 0 0 0 0 0 0 0 0 0 127 0" result="hardAlpha"/>
<feOffset dx="2" dy="2"/>
<feComposite in2="hardAlpha" operator="arithmetic" k2="-1" k3="1"/>
<feColorMatrix type="matrix" values="0 0 0 0 1 0 0 0 0 1 0 0 0 0 1 0 0 0 1 0"/>
<feBlend mode="normal" in2="shape" result="effect2_innerShadow_333_2554"/>
</filter>
</defs>
</svg>
